<?xml version="1.0" encoding="utf-8" standalone="no"?>
<!DOCTYPE svg PUBLIC "-//W3C//DTD SVG 1.1//EN"
  "http://www.w3.org/Graphics/SVG/1.1/DTD/svg11.dtd">
<svg xmlns:xlink="http://www.w3.org/1999/xlink" width="495.96125pt" height="351.438125pt" viewBox="0 0 495.96125 351.438125" xmlns="http://www.w3.org/2000/svg" version="1.1">
 <metadata>
  <rdf:RDF xmlns:dc="http://purl.org/dc/elements/1.1/" xmlns:cc="http://creativecommons.org/ns#" xmlns:rdf="http://www.w3.org/1999/02/22-rdf-syntax-ns#">
   <cc:Work>
    <dc:type rdf:resource="http://purl.org/dc/dcmitype/StillImage"/>
    <dc:date>2026-04-07T17:25:25.392556</dc:date>
    <dc:format>image/svg+xml</dc:format>
    <dc:creator>
     <cc:Agent>
      <dc:title>Matplotlib v3.10.7, https://matplotlib.org/</dc:title>
     </cc:Agent>
    </dc:creator>
   </cc:Work>
  </rdf:RDF>
 </metadata>
 <defs>
  <style type="text/css">*{stroke-linejoin: round; stroke-linecap: butt}</style>
 </defs>
 <g id="figure_1">
  <g id="patch_1">
   <path d="M 0 351.438125 
L 495.96125 351.438125 
L 495.96125 0 
L 0 0 
z
" style="fill: #ffffff"/>
  </g>
  <g id="axes_1">
   <g id="patch_2">
    <path d="M 48.90125 311.8 
L 488.76125 311.8 
L 488.76125 7.2 
L 48.90125 7.2 
z
" style="fill: #ffffff"/>
   </g>
   <g id="FillBetweenPolyCollection_1">
    <path d="M -35.687212 333.120397 
L -35.687212 349.411687 
L -34.432793 348.570601 
L -33.178375 347.729514 
L -31.923957 346.888427 
L -30.669539 346.047341 
L -29.415121 345.206254 
L -28.160703 344.365167 
L -26.906285 343.524081 
L -25.651867 342.682994 
L -24.397449 341.841907 
L -23.143031 341.000821 
L -21.888613 340.159734 
L -20.634195 339.318647 
L -19.379777 338.477561 
L -18.125359 337.636474 
L -16.870941 336.795387 
L -15.616522 335.954301 
L -14.362104 335.113214 
L -13.107686 334.272127 
L -11.853268 333.431041 
L -10.59885 332.589954 
L -9.344432 331.748867 
L -8.090014 330.907781 
L -6.835596 330.066694 
L -5.581178 329.225607 
L -4.32676 328.384521 
L -3.072342 327.543434 
L -1.817924 326.702347 
L -0.563506 325.861261 
L 0.690912 325.020174 
L 1.94533 324.179087 
L 3.199749 323.338001 
L 4.454167 322.496914 
L 5.708585 321.655827 
L 6.963003 320.814741 
L 8.217421 319.973654 
L 9.471839 319.132567 
L 10.726257 318.291481 
L 11.980675 317.450394 
L 13.235093 316.609307 
L 14.489511 315.768221 
L 15.743929 314.927134 
L 16.998347 314.086047 
L 18.252765 313.244961 
L 19.507183 312.403874 
L 20.761601 311.562787 
L 22.01602 310.721701 
L 23.270438 309.880614 
L 24.524856 309.039527 
L 25.779274 308.198441 
L 27.033692 307.357354 
L 28.28811 306.516267 
L 29.542528 305.675181 
L 30.796946 304.834094 
L 32.051364 303.993007 
L 33.305782 303.151921 
L 34.5602 302.310834 
L 35.814618 301.469747 
L 37.069036 300.628661 
L 38.323454 299.787574 
L 39.577872 298.946487 
L 40.832291 298.105401 
L 42.086709 297.264314 
L 43.341127 296.423227 
L 44.595545 295.582141 
L 45.849963 294.741054 
L 47.104381 293.899967 
L 48.358799 293.058881 
L 49.613217 291.988337 
L 50.867635 290.742968 
L 52.122053 289.4976 
L 53.376471 288.252231 
L 54.630889 287.006863 
L 55.885307 285.761495 
L 57.139725 284.516126 
L 58.394143 283.270758 
L 59.648562 282.02539 
L 60.90298 280.780021 
L 62.157398 279.534653 
L 63.411816 278.289284 
L 64.666234 277.043916 
L 65.920652 275.798548 
L 67.17507 274.553179 
L 68.429488 273.307811 
L 69.683906 272.062442 
L 70.938324 270.817074 
L 72.192742 269.571706 
L 73.44716 268.326337 
L 74.701578 267.080969 
L 75.955996 265.8356 
L 77.210414 264.590232 
L 78.464833 263.344864 
L 79.719251 262.099495 
L 80.973669 260.854127 
L 82.228087 259.608758 
L 83.482505 258.36339 
L 84.736923 257.118022 
L 85.991341 255.872653 
L 87.245759 254.627285 
L 88.500177 253.381916 
L 89.754595 252.136548 
L 91.009013 250.89118 
L 92.263431 249.645811 
L 93.517849 248.400443 
L 94.772267 247.155075 
L 96.026685 245.909706 
L 97.281104 244.664338 
L 98.535522 243.418969 
L 99.78994 242.173601 
L 101.044358 240.928233 
L 102.298776 239.682864 
L 103.553194 238.437496 
L 104.807612 237.192127 
L 106.06203 235.946759 
L 107.316448 234.701391 
L 108.570866 233.456022 
L 109.825284 232.210654 
L 111.079702 230.965285 
L 112.33412 229.719917 
L 113.588538 228.474549 
L 114.842956 227.22918 
L 116.097375 225.983812 
L 117.351793 224.738443 
L 118.606211 223.493075 
L 119.860629 222.247707 
L 121.115047 221.002338 
L 122.369465 219.75697 
L 123.623883 218.511601 
L 124.878301 217.266233 
L 126.132719 216.020865 
L 127.387137 214.775496 
L 128.641555 213.530128 
L 129.895973 212.28476 
L 131.150391 211.039391 
L 132.404809 209.794023 
L 133.659227 208.570446 
L 134.913646 207.486339 
L 136.168064 206.402232 
L 137.422482 205.318124 
L 138.6769 204.234017 
L 139.931318 203.149909 
L 141.185736 202.065802 
L 142.440154 200.981694 
L 143.694572 199.897587 
L 144.94899 198.81348 
L 146.203408 197.729372 
L 147.457826 196.645265 
L 148.712244 195.561157 
L 149.966662 194.47705 
L 151.22108 193.392943 
L 152.475498 192.308835 
L 153.729917 191.224728 
L 154.984335 190.14062 
L 156.238753 189.056513 
L 157.493171 187.972405 
L 158.747589 186.888298 
L 160.002007 185.804191 
L 161.256425 184.720083 
L 162.510843 183.635976 
L 163.765261 182.551868 
L 165.019679 181.467761 
L 166.274097 180.383654 
L 167.528515 179.299546 
L 168.782933 178.215439 
L 170.037351 177.131331 
L 171.29177 176.047224 
L 172.546188 174.963117 
L 173.800606 173.879009 
L 175.055024 172.794902 
L 176.309442 171.824333 
L 177.56386 171.011252 
L 178.818278 170.198171 
L 180.072696 169.385091 
L 181.327114 168.57201 
L 182.581532 167.75893 
L 183.83595 166.945849 
L 185.090368 166.132769 
L 186.344786 165.319688 
L 187.599204 164.506607 
L 188.853622 163.693527 
L 190.108041 162.880446 
L 191.362459 162.067366 
L 192.616877 161.254285 
L 193.871295 160.441205 
L 195.125713 159.628124 
L 196.380131 158.815044 
L 197.634549 158.001963 
L 198.888967 157.188882 
L 200.143385 156.375802 
L 201.397803 155.562721 
L 202.652221 154.749641 
L 203.906639 153.93656 
L 205.161057 153.12348 
L 206.415475 152.310399 
L 207.669893 151.497319 
L 208.924312 150.684238 
L 210.17873 149.871157 
L 211.433148 149.058077 
L 212.687566 148.244996 
L 213.941984 147.431916 
L 215.196402 146.618835 
L 216.45082 145.805755 
L 217.705238 144.992674 
L 218.959656 144.433529 
L 220.214074 143.981817 
L 221.468492 143.530106 
L 222.72291 143.078394 
L 223.977328 142.626683 
L 225.231746 142.174971 
L 226.486164 141.72326 
L 227.740583 141.271549 
L 228.995001 140.819837 
L 230.249419 140.368126 
L 231.503837 139.916414 
L 232.758255 139.464703 
L 234.012673 139.012991 
L 235.267091 138.56128 
L 236.521509 138.109569 
L 237.775927 137.657857 
L 239.030345 137.206146 
L 240.284763 136.754434 
L 241.539181 136.302723 
L 242.793599 135.851011 
L 244.048017 135.3993 
L 245.302435 134.947589 
L 246.556854 134.495877 
L 247.811272 134.044166 
L 249.06569 133.592454 
L 250.320108 133.140743 
L 251.574526 132.689032 
L 252.828944 132.23732 
L 254.083362 131.785609 
L 255.33778 131.333897 
L 256.592198 130.882186 
L 257.846616 130.430474 
L 259.101034 129.978763 
L 260.355452 129.527052 
L 261.60987 129.423805 
L 262.864288 129.325332 
L 264.118706 129.226859 
L 265.373125 129.128386 
L 266.627543 129.029913 
L 267.881961 128.93144 
L 269.136379 128.832966 
L 270.390797 128.734493 
L 271.645215 128.63602 
L 272.899633 128.537547 
L 274.154051 128.439074 
L 275.408469 128.340601 
L 276.662887 128.242128 
L 277.917305 128.143655 
L 279.171723 128.045182 
L 280.426141 127.946709 
L 281.680559 127.848236 
L 282.934977 127.749762 
L 284.189396 127.651289 
L 285.443814 127.552816 
L 286.698232 127.454343 
L 287.95265 127.35587 
L 289.207068 127.257397 
L 290.461486 127.158924 
L 291.715904 127.060451 
L 292.970322 126.961978 
L 294.22474 126.863505 
L 295.479158 126.765032 
L 296.733576 126.666558 
L 297.987994 126.568085 
L 299.242412 126.469612 
L 300.49683 126.371139 
L 301.751248 126.272666 
L 303.005667 126.251839 
L 304.260085 126.440654 
L 305.514503 126.629469 
L 306.768921 126.818285 
L 308.023339 127.0071 
L 309.277757 127.195915 
L 310.532175 127.384731 
L 311.786593 127.573546 
L 313.041011 127.762362 
L 314.295429 127.951177 
L 315.549847 128.139992 
L 316.804265 128.328808 
L 318.058683 128.517623 
L 319.313101 128.706438 
L 320.567519 128.895254 
L 321.821938 129.084069 
L 323.076356 129.272885 
L 324.330774 129.4617 
L 325.585192 129.650515 
L 326.83961 129.839331 
L 328.094028 130.028146 
L 329.348446 130.216961 
L 330.602864 130.405777 
L 331.857282 130.594592 
L 333.1117 130.783408 
L 334.366118 130.972223 
L 335.620536 131.161038 
L 336.874954 131.349854 
L 338.129372 131.538669 
L 339.38379 131.727484 
L 340.638209 131.9163 
L 341.892627 132.105115 
L 343.147045 132.293931 
L 344.401463 132.482746 
L 345.655881 132.81722 
L 346.910299 133.268931 
L 348.164717 133.720643 
L 349.419135 134.172354 
L 350.673553 134.624066 
L 351.927971 135.075777 
L 353.182389 135.527488 
L 354.436807 135.9792 
L 355.691225 136.430911 
L 356.945643 136.882623 
L 358.200061 137.334334 
L 359.45448 137.786046 
L 360.708898 138.237757 
L 361.963316 138.689468 
L 363.217734 139.14118 
L 364.472152 139.592891 
L 365.72657 140.044603 
L 366.980988 140.496314 
L 368.235406 140.948026 
L 369.489824 141.399737 
L 370.744242 141.851448 
L 371.99866 142.30316 
L 373.253078 142.754871 
L 374.507496 143.206583 
L 375.761914 143.658294 
L 377.016332 144.110005 
L 378.270751 144.561717 
L 379.525169 145.013428 
L 380.779587 145.46514 
L 382.034005 145.916851 
L 383.288423 146.368563 
L 384.542841 146.820274 
L 385.797259 147.271985 
L 387.051677 147.723697 
L 388.306095 148.099716 
L 389.560513 148.461085 
L 390.814931 148.822454 
L 392.069349 149.183824 
L 393.323767 149.545193 
L 394.578185 149.906562 
L 395.832603 150.267931 
L 397.087022 150.6293 
L 398.34144 150.990669 
L 399.595858 151.352038 
L 400.850276 151.713407 
L 402.104694 152.074777 
L 403.359112 152.436146 
L 404.61353 152.797515 
L 405.867948 153.158884 
L 407.122366 153.520253 
L 408.376784 153.881622 
L 409.631202 154.242991 
L 410.88562 154.604361 
L 412.140038 154.96573 
L 413.394456 155.327099 
L 414.648874 155.688468 
L 415.903293 156.049837 
L 417.157711 156.411206 
L 418.412129 156.772575 
L 419.666547 157.133945 
L 420.920965 157.495314 
L 422.175383 157.856683 
L 423.429801 158.218052 
L 424.684219 158.579421 
L 425.938637 158.94079 
L 427.193055 159.302159 
L 428.447473 159.663529 
L 429.701891 160.010724 
L 430.956309 160.255551 
L 432.210727 160.500379 
L 433.465145 160.745206 
L 434.719564 160.990034 
L 435.973982 161.234862 
L 437.2284 161.479689 
L 438.482818 161.724517 
L 439.737236 161.969344 
L 440.991654 162.214172 
L 442.246072 162.459 
L 443.50049 162.703827 
L 444.754908 162.948655 
L 446.009326 163.193482 
L 447.263744 163.43831 
L 448.518162 163.683138 
L 449.77258 163.927965 
L 451.026998 164.172793 
L 452.281416 164.41762 
L 453.535835 164.662448 
L 454.790253 164.907276 
L 456.044671 165.152103 
L 457.299089 165.396931 
L 458.553507 165.641758 
L 459.807925 165.886586 
L 461.062343 166.131413 
L 462.316761 166.376241 
L 463.571179 166.621069 
L 464.825597 166.865896 
L 466.080015 167.110724 
L 467.334433 167.355551 
L 468.588851 167.600379 
L 469.843269 167.845207 
L 471.097687 168.090034 
L 472.352106 168.236523 
L 473.606524 168.238782 
L 474.860942 168.24104 
L 476.11536 168.243299 
L 477.369778 168.245557 
L 478.624196 168.247816 
L 479.878614 168.250074 
L 481.133032 168.252333 
L 482.38745 168.254591 
L 483.641868 168.25685 
L 484.896286 168.259109 
L 486.150704 168.261367 
L 487.405122 168.263626 
L 488.65954 168.265884 
L 489.913958 168.268143 
L 491.168377 168.270401 
L 492.422795 168.27266 
L 493.677213 168.274918 
L 494.931631 168.277177 
L 496.186049 168.279436 
L 497.440467 168.281694 
L 498.694885 168.283953 
L 499.949303 168.286211 
L 501.203721 168.28847 
L 502.458139 168.290728 
L 503.712557 168.292987 
L 504.966975 168.295245 
L 506.221393 168.297504 
L 507.475811 168.299763 
L 508.730229 168.302021 
L 509.984648 168.30428 
L 511.239066 168.306538 
L 512.493484 168.308797 
L 513.747902 168.311055 
L 515.00232 168.313314 
L 516.256738 168.315572 
L 517.511156 168.317831 
L 518.765574 168.32009 
L 520.019992 168.322348 
L 521.27441 168.324607 
L 522.528828 168.326865 
L 523.783246 168.329124 
L 525.037664 168.331382 
L 526.292082 168.333641 
L 527.546501 168.3359 
L 528.800919 168.338158 
L 530.055337 168.340417 
L 531.309755 168.342675 
L 532.564173 168.344934 
L 533.818591 168.347192 
L 535.073009 168.349451 
L 536.327427 168.351709 
L 537.581845 168.353968 
L 538.836263 168.356227 
L 540.090681 168.358485 
L 541.345099 168.360744 
L 542.599517 168.363002 
L 543.853935 168.365261 
L 545.108353 168.367519 
L 546.362772 168.369778 
L 547.61719 168.372036 
L 548.871608 168.374295 
L 550.126026 168.376554 
L 551.380444 168.378812 
L 552.634862 168.381071 
L 553.88928 168.383329 
L 555.143698 168.385588 
L 556.398116 168.387846 
L 557.652534 168.008836 
L 558.906952 167.619235 
L 560.16137 167.229634 
L 561.415788 166.840033 
L 562.670206 166.450432 
L 563.924624 166.060831 
L 565.179043 165.671229 
L 566.433461 165.281628 
L 567.687879 164.892027 
L 568.942297 164.502426 
L 570.196715 164.112825 
L 571.451133 163.723224 
L 572.705551 163.333623 
L 573.959969 162.944022 
L 575.214387 162.554421 
L 576.468805 162.164819 
L 577.723223 161.775218 
L 578.977641 161.385617 
L 580.232059 160.996016 
L 581.486477 160.606415 
L 582.740895 160.216814 
L 583.995314 159.827213 
L 585.249732 159.437612 
L 586.50415 159.048011 
L 587.758568 158.65841 
L 589.012986 158.268808 
L 590.267404 157.879207 
L 590.267404 121.426603 
L 590.267404 121.426603 
L 589.012986 121.857215 
L 587.758568 122.287827 
L 586.50415 122.718438 
L 585.249732 123.14905 
L 583.995314 123.579662 
L 582.740895 124.010274 
L 581.486477 124.440885 
L 580.232059 124.871497 
L 578.977641 125.302109 
L 577.723223 125.732721 
L 576.468805 126.163332 
L 575.214387 126.593944 
L 573.959969 127.024556 
L 572.705551 127.455168 
L 571.451133 127.885779 
L 570.196715 128.316391 
L 568.942297 128.747003 
L 567.687879 129.177615 
L 566.433461 129.608226 
L 565.179043 130.038838 
L 563.924624 130.46945 
L 562.670206 130.900062 
L 561.415788 131.330673 
L 560.16137 131.761285 
L 558.906952 132.191897 
L 557.652534 132.622509 
L 556.398116 133.041415 
L 555.143698 133.038918 
L 553.88928 133.036422 
L 552.634862 133.033926 
L 551.380444 133.031429 
L 550.126026 133.028933 
L 548.871608 133.026437 
L 547.61719 133.023941 
L 546.362772 133.021444 
L 545.108353 133.018948 
L 543.853935 133.016452 
L 542.599517 133.013955 
L 541.345099 133.011459 
L 540.090681 133.008963 
L 538.836263 133.006466 
L 537.581845 133.00397 
L 536.327427 133.001474 
L 535.073009 132.998978 
L 533.818591 132.996481 
L 532.564173 132.993985 
L 531.309755 132.991489 
L 530.055337 132.988992 
L 528.800919 132.986496 
L 527.546501 132.984 
L 526.292082 132.981503 
L 525.037664 132.979007 
L 523.783246 132.976511 
L 522.528828 132.974015 
L 521.27441 132.971518 
L 520.019992 132.969022 
L 518.765574 132.966526 
L 517.511156 132.964029 
L 516.256738 132.961533 
L 515.00232 132.959037 
L 513.747902 132.95654 
L 512.493484 132.954044 
L 511.239066 132.951548 
L 509.984648 132.949052 
L 508.730229 132.946555 
L 507.475811 132.944059 
L 506.221393 132.941563 
L 504.966975 132.939066 
L 503.712557 132.93657 
L 502.458139 132.934074 
L 501.203721 132.931577 
L 499.949303 132.929081 
L 498.694885 132.926585 
L 497.440467 132.924089 
L 496.186049 132.921592 
L 494.931631 132.919096 
L 493.677213 132.9166 
L 492.422795 132.914103 
L 491.168377 132.911607 
L 489.913958 132.909111 
L 488.65954 132.906614 
L 487.405122 132.904118 
L 486.150704 132.901622 
L 484.896286 132.899126 
L 483.641868 132.896629 
L 482.38745 132.894133 
L 481.133032 132.891637 
L 479.878614 132.88914 
L 478.624196 132.886644 
L 477.369778 132.884148 
L 476.11536 132.881651 
L 474.860942 132.879155 
L 473.606524 132.876659 
L 472.352106 132.874163 
L 471.097687 132.712254 
L 469.843269 132.441655 
L 468.588851 132.171056 
L 467.334433 131.900457 
L 466.080015 131.629858 
L 464.825597 131.359259 
L 463.571179 131.08866 
L 462.316761 130.818061 
L 461.062343 130.547463 
L 459.807925 130.276864 
L 458.553507 130.006265 
L 457.299089 129.735666 
L 456.044671 129.465067 
L 454.790253 129.194468 
L 453.535835 128.923869 
L 452.281416 128.65327 
L 451.026998 128.382671 
L 449.77258 128.112072 
L 448.518162 127.841473 
L 447.263744 127.570874 
L 446.009326 127.300276 
L 444.754908 127.029677 
L 443.50049 126.759078 
L 442.246072 126.488479 
L 440.991654 126.21788 
L 439.737236 125.947281 
L 438.482818 125.676682 
L 437.2284 125.406083 
L 435.973982 125.135484 
L 434.719564 124.864885 
L 433.465145 124.594286 
L 432.210727 124.323687 
L 430.956309 124.053089 
L 429.701891 123.78249 
L 428.447473 123.398748 
L 427.193055 122.99934 
L 425.938637 122.599932 
L 424.684219 122.200524 
L 423.429801 121.801116 
L 422.175383 121.401708 
L 420.920965 121.0023 
L 419.666547 120.602892 
L 418.412129 120.203484 
L 417.157711 119.804076 
L 415.903293 119.404668 
L 414.648874 119.00526 
L 413.394456 118.605852 
L 412.140038 118.206444 
L 410.88562 117.807036 
L 409.631202 117.407628 
L 408.376784 117.00822 
L 407.122366 116.608812 
L 405.867948 116.209404 
L 404.61353 115.809996 
L 403.359112 115.410588 
L 402.104694 115.01118 
L 400.850276 114.611772 
L 399.595858 114.212364 
L 398.34144 113.812956 
L 397.087022 113.413548 
L 395.832603 113.01414 
L 394.578185 112.614732 
L 393.323767 112.215324 
L 392.069349 111.815916 
L 390.814931 111.416508 
L 389.560513 111.0171 
L 388.306095 110.617692 
L 387.051677 110.202092 
L 385.797259 109.702832 
L 384.542841 109.203572 
L 383.288423 108.704312 
L 382.034005 108.205052 
L 380.779587 107.705792 
L 379.525169 107.206532 
L 378.270751 106.707272 
L 377.016332 106.208012 
L 375.761914 105.708752 
L 374.507496 105.209492 
L 373.253078 104.710232 
L 371.99866 104.210972 
L 370.744242 103.711712 
L 369.489824 103.212452 
L 368.235406 102.713192 
L 366.980988 102.213932 
L 365.72657 101.714672 
L 364.472152 101.215412 
L 363.217734 100.716152 
L 361.963316 100.216892 
L 360.708898 99.717632 
L 359.45448 99.218372 
L 358.200061 98.719112 
L 356.945643 98.219852 
L 355.691225 97.720592 
L 354.436807 97.221332 
L 353.182389 96.722072 
L 351.927971 96.222812 
L 350.673553 95.723552 
L 349.419135 95.224292 
L 348.164717 94.725032 
L 346.910299 94.225772 
L 345.655881 93.726512 
L 344.401463 93.35683 
L 343.147045 93.148139 
L 341.892627 92.939449 
L 340.638209 92.730758 
L 339.38379 92.522067 
L 338.129372 92.313377 
L 336.874954 92.104686 
L 335.620536 91.895995 
L 334.366118 91.687305 
L 333.1117 91.478614 
L 331.857282 91.269923 
L 330.602864 91.061233 
L 329.348446 90.852542 
L 328.094028 90.643851 
L 326.83961 90.43516 
L 325.585192 90.22647 
L 324.330774 90.017779 
L 323.076356 89.809088 
L 321.821938 89.600398 
L 320.567519 89.391707 
L 319.313101 89.183016 
L 318.058683 88.974326 
L 316.804265 88.765635 
L 315.549847 88.556944 
L 314.295429 88.348254 
L 313.041011 88.139563 
L 311.786593 87.930872 
L 310.532175 87.722182 
L 309.277757 87.513491 
L 308.023339 87.3048 
L 306.768921 87.09611 
L 305.514503 86.887419 
L 304.260085 86.678728 
L 303.005667 86.470038 
L 301.751248 86.493058 
L 300.49683 86.601896 
L 299.242412 86.710735 
L 297.987994 86.819574 
L 296.733576 86.928412 
L 295.479158 87.037251 
L 294.22474 87.14609 
L 292.970322 87.254928 
L 291.715904 87.363767 
L 290.461486 87.472606 
L 289.207068 87.581444 
L 287.95265 87.690283 
L 286.698232 87.799122 
L 285.443814 87.90796 
L 284.189396 88.016799 
L 282.934977 88.125638 
L 281.680559 88.234476 
L 280.426141 88.343315 
L 279.171723 88.452154 
L 277.917305 88.560992 
L 276.662887 88.669831 
L 275.408469 88.77867 
L 274.154051 88.887508 
L 272.899633 88.996347 
L 271.645215 89.105186 
L 270.390797 89.214025 
L 269.136379 89.322863 
L 267.881961 89.431702 
L 266.627543 89.540541 
L 265.373125 89.649379 
L 264.118706 89.758218 
L 262.864288 89.867057 
L 261.60987 89.975895 
L 260.355452 90.09001 
L 259.101034 90.58927 
L 257.846616 91.08853 
L 256.592198 91.58779 
L 255.33778 92.08705 
L 254.083362 92.58631 
L 252.828944 93.08557 
L 251.574526 93.58483 
L 250.320108 94.08409 
L 249.06569 94.58335 
L 247.811272 95.08261 
L 246.556854 95.58187 
L 245.302435 96.08113 
L 244.048017 96.58039 
L 242.793599 97.07965 
L 241.539181 97.57891 
L 240.284763 98.07817 
L 239.030345 98.57743 
L 237.775927 99.07669 
L 236.521509 99.57595 
L 235.267091 100.07521 
L 234.012673 100.57447 
L 232.758255 101.07373 
L 231.503837 101.57299 
L 230.249419 102.07225 
L 228.995001 102.57151 
L 227.740583 103.07077 
L 226.486164 103.57003 
L 225.231746 104.06929 
L 223.977328 104.56855 
L 222.72291 105.06781 
L 221.468492 105.56707 
L 220.214074 106.06633 
L 218.959656 106.56559 
L 217.705238 107.183593 
L 216.45082 108.082261 
L 215.196402 108.980929 
L 213.941984 109.879597 
L 212.687566 110.778265 
L 211.433148 111.676933 
L 210.17873 112.575601 
L 208.924312 113.474269 
L 207.669893 114.372937 
L 206.415475 115.271605 
L 205.161057 116.170273 
L 203.906639 117.06894 
L 202.652221 117.967608 
L 201.397803 118.866276 
L 200.143385 119.764944 
L 198.888967 120.663612 
L 197.634549 121.56228 
L 196.380131 122.460948 
L 195.125713 123.359616 
L 193.871295 124.258284 
L 192.616877 125.156952 
L 191.362459 126.05562 
L 190.108041 126.954288 
L 188.853622 127.852956 
L 187.599204 128.751624 
L 186.344786 129.650292 
L 185.090368 130.54896 
L 183.83595 131.447628 
L 182.581532 132.346296 
L 181.327114 133.244964 
L 180.072696 134.143632 
L 178.818278 135.0423 
L 177.56386 135.940968 
L 176.309442 136.839636 
L 175.055024 137.912371 
L 173.800606 139.110595 
L 172.546188 140.308819 
L 171.29177 141.507043 
L 170.037351 142.705266 
L 168.782933 143.90349 
L 167.528515 145.101714 
L 166.274097 146.299938 
L 165.019679 147.498162 
L 163.765261 148.696386 
L 162.510843 149.89461 
L 161.256425 151.092834 
L 160.002007 152.291058 
L 158.747589 153.489282 
L 157.493171 154.687506 
L 156.238753 155.88573 
L 154.984335 157.083954 
L 153.729917 158.282178 
L 152.475498 159.480402 
L 151.22108 160.678626 
L 149.966662 161.87685 
L 148.712244 163.075074 
L 147.457826 164.273298 
L 146.203408 165.471522 
L 144.94899 166.669746 
L 143.694572 167.86797 
L 142.440154 169.066194 
L 141.185736 170.264418 
L 139.931318 171.462642 
L 138.6769 172.660866 
L 137.422482 173.85909 
L 136.168064 175.057314 
L 134.913646 176.255538 
L 133.659227 177.453762 
L 132.404809 178.806136 
L 131.150391 180.182596 
L 129.895973 181.559056 
L 128.641555 182.935515 
L 127.387137 184.311975 
L 126.132719 185.688435 
L 124.878301 187.064895 
L 123.623883 188.441355 
L 122.369465 189.817814 
L 121.115047 191.194274 
L 119.860629 192.570734 
L 118.606211 193.947194 
L 117.351793 195.323654 
L 116.097375 196.700113 
L 114.842956 198.076573 
L 113.588538 199.453033 
L 112.33412 200.829493 
L 111.079702 202.205953 
L 109.825284 203.582412 
L 108.570866 204.958872 
L 107.316448 206.335332 
L 106.06203 207.711792 
L 104.807612 209.088252 
L 103.553194 210.464711 
L 102.298776 211.841171 
L 101.044358 213.217631 
L 99.78994 214.594091 
L 98.535522 215.970551 
L 97.281104 217.34701 
L 96.026685 218.72347 
L 94.772267 220.09993 
L 93.517849 221.47639 
L 92.263431 222.85285 
L 91.009013 224.229309 
L 89.754595 225.605769 
L 88.500177 226.982229 
L 87.245759 228.358689 
L 85.991341 229.735149 
L 84.736923 231.111608 
L 83.482505 232.488068 
L 82.228087 233.864528 
L 80.973669 235.240988 
L 79.719251 236.617448 
L 78.464833 237.993907 
L 77.210414 239.370367 
L 75.955996 240.746827 
L 74.701578 242.123287 
L 73.44716 243.499747 
L 72.192742 244.876206 
L 70.938324 246.252666 
L 69.683906 247.629126 
L 68.429488 249.005586 
L 67.17507 250.382046 
L 65.920652 251.758505 
L 64.666234 253.134965 
L 63.411816 254.511425 
L 62.157398 255.887885 
L 60.90298 257.264345 
L 59.648562 258.640804 
L 58.394143 260.017264 
L 57.139725 261.393724 
L 55.885307 262.770184 
L 54.630889 264.146644 
L 53.376471 265.523103 
L 52.122053 266.899563 
L 50.867635 268.276023 
L 49.613217 269.652483 
L 48.358799 270.835716 
L 47.104381 271.765338 
L 45.849963 272.69496 
L 44.595545 273.624582 
L 43.341127 274.554204 
L 42.086709 275.483826 
L 40.832291 276.413448 
L 39.577872 277.34307 
L 38.323454 278.272692 
L 37.069036 279.202315 
L 35.814618 280.131937 
L 34.5602 281.061559 
L 33.305782 281.991181 
L 32.051364 282.920803 
L 30.796946 283.850425 
L 29.542528 284.780047 
L 28.28811 285.709669 
L 27.033692 286.639291 
L 25.779274 287.568914 
L 24.524856 288.498536 
L 23.270438 289.428158 
L 22.01602 290.35778 
L 20.761601 291.287402 
L 19.507183 292.217024 
L 18.252765 293.146646 
L 16.998347 294.076268 
L 15.743929 295.00589 
L 14.489511 295.935513 
L 13.235093 296.865135 
L 11.980675 297.794757 
L 10.726257 298.724379 
L 9.471839 299.654001 
L 8.217421 300.583623 
L 6.963003 301.513245 
L 5.708585 302.442867 
L 4.454167 303.372489 
L 3.199749 304.302111 
L 1.94533 305.231734 
L 0.690912 306.161356 
L -0.563506 307.090978 
L -1.817924 308.0206 
L -3.072342 308.950222 
L -4.32676 309.879844 
L -5.581178 310.809466 
L -6.835596 311.739088 
L -8.090014 312.66871 
L -9.344432 313.598333 
L -10.59885 314.527955 
L -11.853268 315.457577 
L -13.107686 316.387199 
L -14.362104 317.316821 
L -15.616522 318.246443 
L -16.870941 319.176065 
L -18.125359 320.105687 
L -19.379777 321.035309 
L -20.634195 321.964932 
L -21.888613 322.894554 
L -23.143031 323.824176 
L -24.397449 324.753798 
L -25.651867 325.68342 
L -26.906285 326.613042 
L -28.160703 327.542664 
L -29.415121 328.472286 
L -30.669539 329.401908 
L -31.923957 330.331531 
L -33.178375 331.261153 
L -34.432793 332.190775 
L -35.687212 333.120397 
z
" clip-path="url(#pb45cca3eed)" style="fill: #c0c0c0; fill-opacity: 0.5; stroke: #c0c0c0; stroke-opacity: 0.5"/>
   </g>
   <g id="matplotlib.axis_1">
    <g id="xtick_1">
     <g id="line2d_1">
      <path d="M 48.90125 311.8 
L 48.90125 7.2 
" clip-path="url(#pb45cca3eed)" style="fill: none; stroke-dasharray: 1.85,0.8; stroke-dashoffset: 0; stroke: #b0b0b0; stroke-opacity: 0.5; stroke-width: 0.5"/>
     </g>
     <g id="line2d_2">
      <defs>
       <path id="m22afb60f5a" d="M 0 0 
L 0 3.5 
" style="stroke: #000000; stroke-width: 0.8"/>
      </defs>
      <g>
       <use xlink:href="#m22afb60f5a" x="48.90125" y="311.8" style="stroke: #000000; stroke-width: 0.8"/>
      </g>
     </g>
     <g id="text_1">
      <!-- 0.2 -->
      <g transform="translate(40.949688 326.398437) scale(0.1 -0.1)">
       <defs>
        <path id="DejaVuSans-30" d="M 2034 4250 
Q 1547 4250 1301 3770 
Q 1056 3291 1056 2328 
Q 1056 1369 1301 889 
Q 1547 409 2034 409 
Q 2525 409 2770 889 
Q 3016 1369 3016 2328 
Q 3016 3291 2770 3770 
Q 2525 4250 2034 4250 
z
M 2034 4750 
Q 2819 4750 3233 4129 
Q 3647 3509 3647 2328 
Q 3647 1150 3233 529 
Q 2819 -91 2034 -91 
Q 1250 -91 836 529 
Q 422 1150 422 2328 
Q 422 3509 836 4129 
Q 1250 4750 2034 4750 
z
" transform="scale(0.015625)"/>
        <path id="DejaVuSans-2e" d="M 684 794 
L 1344 794 
L 1344 0 
L 684 0 
L 684 794 
z
" transform="scale(0.015625)"/>
        <path id="DejaVuSans-32" d="M 1228 531 
L 3431 531 
L 3431 0 
L 469 0 
L 469 531 
Q 828 903 1448 1529 
Q 2069 2156 2228 2338 
Q 2531 2678 2651 2914 
Q 2772 3150 2772 3378 
Q 2772 3750 2511 3984 
Q 2250 4219 1831 4219 
Q 1534 4219 1204 4116 
Q 875 4013 500 3803 
L 500 4441 
Q 881 4594 1212 4672 
Q 1544 4750 1819 4750 
Q 2544 4750 2975 4387 
Q 3406 4025 3406 3419 
Q 3406 3131 3298 2873 
Q 3191 2616 2906 2266 
Q 2828 2175 2409 1742 
Q 1991 1309 1228 531 
z
" transform="scale(0.015625)"/>
       </defs>
       <use xlink:href="#DejaVuSans-30"/>
       <use xlink:href="#DejaVuSans-2e" transform="translate(63.623047 0)"/>
       <use xlink:href="#DejaVuSans-32" transform="translate(95.410156 0)"/>
      </g>
     </g>
    </g>
    <g id="xtick_2">
     <g id="line2d_3">
      <path d="M 133.489712 311.8 
L 133.489712 7.2 
" clip-path="url(#pb45cca3eed)" style="fill: none; stroke-dasharray: 1.85,0.8; stroke-dashoffset: 0; stroke: #b0b0b0; stroke-opacity: 0.5; stroke-width: 0.5"/>
     </g>
     <g id="line2d_4">
      <g>
       <use xlink:href="#m22afb60f5a" x="133.489712" y="311.8" style="stroke: #000000; stroke-width: 0.8"/>
      </g>
     </g>
     <g id="text_2">
      <!-- 0.3 -->
      <g transform="translate(125.538149 326.398437) scale(0.1 -0.1)">
       <defs>
        <path id="DejaVuSans-33" d="M 2597 2516 
Q 3050 2419 3304 2112 
Q 3559 1806 3559 1356 
Q 3559 666 3084 287 
Q 2609 -91 1734 -91 
Q 1441 -91 1130 -33 
Q 819 25 488 141 
L 488 750 
Q 750 597 1062 519 
Q 1375 441 1716 441 
Q 2309 441 2620 675 
Q 2931 909 2931 1356 
Q 2931 1769 2642 2001 
Q 2353 2234 1838 2234 
L 1294 2234 
L 1294 2753 
L 1863 2753 
Q 2328 2753 2575 2939 
Q 2822 3125 2822 3475 
Q 2822 3834 2567 4026 
Q 2313 4219 1838 4219 
Q 1578 4219 1281 4162 
Q 984 4106 628 3988 
L 628 4550 
Q 988 4650 1302 4700 
Q 1616 4750 1894 4750 
Q 2613 4750 3031 4423 
Q 3450 4097 3450 3541 
Q 3450 3153 3228 2886 
Q 3006 2619 2597 2516 
z
" transform="scale(0.015625)"/>
       </defs>
       <use xlink:href="#DejaVuSans-30"/>
       <use xlink:href="#DejaVuSans-2e" transform="translate(63.623047 0)"/>
       <use xlink:href="#DejaVuSans-33" transform="translate(95.410156 0)"/>
      </g>
     </g>
    </g>
    <g id="xtick_3">
     <g id="line2d_5">
      <path d="M 218.078173 311.8 
L 218.078173 7.2 
" clip-path="url(#pb45cca3eed)" style="fill: none; stroke-dasharray: 1.85,0.8; stroke-dashoffset: 0; stroke: #b0b0b0; stroke-opacity: 0.5; stroke-width: 0.5"/>
     </g>
     <g id="line2d_6">
      <g>
       <use xlink:href="#m22afb60f5a" x="218.078173" y="311.8" style="stroke: #000000; stroke-width: 0.8"/>
      </g>
     </g>
     <g id="text_3">
      <!-- 0.4 -->
      <g transform="translate(210.126611 326.398437) scale(0.1 -0.1)">
       <defs>
        <path id="DejaVuSans-34" d="M 2419 4116 
L 825 1625 
L 2419 1625 
L 2419 4116 
z
M 2253 4666 
L 3047 4666 
L 3047 1625 
L 3713 1625 
L 3713 1100 
L 3047 1100 
L 3047 0 
L 2419 0 
L 2419 1100 
L 313 1100 
L 313 1709 
L 2253 4666 
z
" transform="scale(0.015625)"/>
       </defs>
       <use xlink:href="#DejaVuSans-30"/>
       <use xlink:href="#DejaVuSans-2e" transform="translate(63.623047 0)"/>
       <use xlink:href="#DejaVuSans-34" transform="translate(95.410156 0)"/>
      </g>
     </g>
    </g>
    <g id="xtick_4">
     <g id="line2d_7">
      <path d="M 302.666635 311.8 
L 302.666635 7.2 
" clip-path="url(#pb45cca3eed)" style="fill: none; stroke-dasharray: 1.85,0.8; stroke-dashoffset: 0; stroke: #b0b0b0; stroke-opacity: 0.5; stroke-width: 0.5"/>
     </g>
     <g id="line2d_8">
      <g>
       <use xlink:href="#m22afb60f5a" x="302.666635" y="311.8" style="stroke: #000000; stroke-width: 0.8"/>
      </g>
     </g>
     <g id="text_4">
      <!-- 0.5 -->
      <g transform="translate(294.715072 326.398437) scale(0.1 -0.1)">
       <defs>
        <path id="DejaVuSans-35" d="M 691 4666 
L 3169 4666 
L 3169 4134 
L 1269 4134 
L 1269 2991 
Q 1406 3038 1543 3061 
Q 1681 3084 1819 3084 
Q 2600 3084 3056 2656 
Q 3513 2228 3513 1497 
Q 3513 744 3044 326 
Q 2575 -91 1722 -91 
Q 1428 -91 1123 -41 
Q 819 9 494 109 
L 494 744 
Q 775 591 1075 516 
Q 1375 441 1709 441 
Q 2250 441 2565 725 
Q 2881 1009 2881 1497 
Q 2881 1984 2565 2268 
Q 2250 2553 1709 2553 
Q 1456 2553 1204 2497 
Q 953 2441 691 2322 
L 691 4666 
z
" transform="scale(0.015625)"/>
       </defs>
       <use xlink:href="#DejaVuSans-30"/>
       <use xlink:href="#DejaVuSans-2e" transform="translate(63.623047 0)"/>
       <use xlink:href="#DejaVuSans-35" transform="translate(95.410156 0)"/>
      </g>
     </g>
    </g>
    <g id="xtick_5">
     <g id="line2d_9">
      <path d="M 387.255096 311.8 
L 387.255096 7.2 
" clip-path="url(#pb45cca3eed)" style="fill: none; stroke-dasharray: 1.85,0.8; stroke-dashoffset: 0; stroke: #b0b0b0; stroke-opacity: 0.5; stroke-width: 0.5"/>
     </g>
     <g id="line2d_10">
      <g>
       <use xlink:href="#m22afb60f5a" x="387.255096" y="311.8" style="stroke: #000000; stroke-width: 0.8"/>
      </g>
     </g>
     <g id="text_5">
      <!-- 0.6 -->
      <g transform="translate(379.303534 326.398437) scale(0.1 -0.1)">
       <defs>
        <path id="DejaVuSans-36" d="M 2113 2584 
Q 1688 2584 1439 2293 
Q 1191 2003 1191 1497 
Q 1191 994 1439 701 
Q 1688 409 2113 409 
Q 2538 409 2786 701 
Q 3034 994 3034 1497 
Q 3034 2003 2786 2293 
Q 2538 2584 2113 2584 
z
M 3366 4563 
L 3366 3988 
Q 3128 4100 2886 4159 
Q 2644 4219 2406 4219 
Q 1781 4219 1451 3797 
Q 1122 3375 1075 2522 
Q 1259 2794 1537 2939 
Q 1816 3084 2150 3084 
Q 2853 3084 3261 2657 
Q 3669 2231 3669 1497 
Q 3669 778 3244 343 
Q 2819 -91 2113 -91 
Q 1303 -91 875 529 
Q 447 1150 447 2328 
Q 447 3434 972 4092 
Q 1497 4750 2381 4750 
Q 2619 4750 2861 4703 
Q 3103 4656 3366 4563 
z
" transform="scale(0.015625)"/>
       </defs>
       <use xlink:href="#DejaVuSans-30"/>
       <use xlink:href="#DejaVuSans-2e" transform="translate(63.623047 0)"/>
       <use xlink:href="#DejaVuSans-36" transform="translate(95.410156 0)"/>
      </g>
     </g>
    </g>
    <g id="xtick_6">
     <g id="line2d_11">
      <path d="M 471.843558 311.8 
L 471.843558 7.2 
" clip-path="url(#pb45cca3eed)" style="fill: none; stroke-dasharray: 1.85,0.8; stroke-dashoffset: 0; stroke: #b0b0b0; stroke-opacity: 0.5; stroke-width: 0.5"/>
     </g>
     <g id="line2d_12">
      <g>
       <use xlink:href="#m22afb60f5a" x="471.843558" y="311.8" style="stroke: #000000; stroke-width: 0.8"/>
      </g>
     </g>
     <g id="text_6">
      <!-- 0.7 -->
      <g transform="translate(463.891995 326.398437) scale(0.1 -0.1)">
       <defs>
        <path id="DejaVuSans-37" d="M 525 4666 
L 3525 4666 
L 3525 4397 
L 1831 0 
L 1172 0 
L 2766 4134 
L 525 4134 
L 525 4666 
z
" transform="scale(0.015625)"/>
       </defs>
       <use xlink:href="#DejaVuSans-30"/>
       <use xlink:href="#DejaVuSans-2e" transform="translate(63.623047 0)"/>
       <use xlink:href="#DejaVuSans-37" transform="translate(95.410156 0)"/>
      </g>
     </g>
    </g>
    <g id="xtick_7">
     <g id="line2d_13">
      <path d="M 91.195481 311.8 
L 91.195481 7.2 
" clip-path="url(#pb45cca3eed)" style="fill: none; stroke-dasharray: 0.3,0.495; stroke-dashoffset: 0; stroke: #b0b0b0; stroke-opacity: 0.3; stroke-width: 0.3"/>
     </g>
     <g id="line2d_14">
      <defs>
       <path id="m067a48e4da" d="M 0 0 
L 0 2 
" style="stroke: #000000; stroke-width: 0.6"/>
      </defs>
      <g>
       <use xlink:href="#m067a48e4da" x="91.195481" y="311.8" style="stroke: #000000; stroke-width: 0.6"/>
      </g>
     </g>
    </g>
    <g id="xtick_8">
     <g id="line2d_15">
      <path d="M 175.783942 311.8 
L 175.783942 7.2 
" clip-path="url(#pb45cca3eed)" style="fill: none; stroke-dasharray: 0.3,0.495; stroke-dashoffset: 0; stroke: #b0b0b0; stroke-opacity: 0.3; stroke-width: 0.3"/>
     </g>
     <g id="line2d_16">
      <g>
       <use xlink:href="#m067a48e4da" x="175.783942" y="311.8" style="stroke: #000000; stroke-width: 0.6"/>
      </g>
     </g>
    </g>
    <g id="xtick_9">
     <g id="line2d_17">
      <path d="M 260.372404 311.8 
L 260.372404 7.2 
" clip-path="url(#pb45cca3eed)" style="fill: none; stroke-dasharray: 0.3,0.495; stroke-dashoffset: 0; stroke: #b0b0b0; stroke-opacity: 0.3; stroke-width: 0.3"/>
     </g>
     <g id="line2d_18">
      <g>
       <use xlink:href="#m067a48e4da" x="260.372404" y="311.8" style="stroke: #000000; stroke-width: 0.6"/>
      </g>
     </g>
    </g>
    <g id="xtick_10">
     <g id="line2d_19">
      <path d="M 344.960865 311.8 
L 344.960865 7.2 
" clip-path="url(#pb45cca3eed)" style="fill: none; stroke-dasharray: 0.3,0.495; stroke-dashoffset: 0; stroke: #b0b0b0; stroke-opacity: 0.3; stroke-width: 0.3"/>
     </g>
     <g id="line2d_20">
      <g>
       <use xlink:href="#m067a48e4da" x="344.960865" y="311.8" style="stroke: #000000; stroke-width: 0.6"/>
      </g>
     </g>
    </g>
    <g id="xtick_11">
     <g id="line2d_21">
      <path d="M 429.549327 311.8 
L 429.549327 7.2 
" clip-path="url(#pb45cca3eed)" style="fill: none; stroke-dasharray: 0.3,0.495; stroke-dashoffset: 0; stroke: #b0b0b0; stroke-opacity: 0.3; stroke-width: 0.3"/>
     </g>
     <g id="line2d_22">
      <g>
       <use xlink:href="#m067a48e4da" x="429.549327" y="311.8" style="stroke: #000000; stroke-width: 0.6"/>
      </g>
     </g>
    </g>
    <g id="text_7">
     <!-- $\beta = D/H$ -->
     <g transform="translate(246.57125 341.718125) scale(0.12 -0.12)">
      <defs>
       <path id="DejaVuSans-Oblique-3b2" d="M 872 216 
L 572 -1331 
L -6 -1331 
L 928 3478 
Q 1206 4903 2538 4903 
Q 3888 4903 3659 3700 
Q 3503 2844 2894 2531 
Q 3713 2250 3553 1416 
Q 3272 -69 1759 -66 
Q 1097 -63 872 216 
z
M 1019 966 
Q 1259 422 1875 425 
Q 2775 425 2966 1406 
Q 3138 2288 1675 2219 
L 1778 2750 
Q 2909 2731 3106 3750 
Q 3241 4438 2509 4434 
Q 1691 4434 1503 3459 
L 1019 966 
z
" transform="scale(0.015625)"/>
       <path id="DejaVuSans-3d" d="M 678 2906 
L 4684 2906 
L 4684 2381 
L 678 2381 
L 678 2906 
z
M 678 1631 
L 4684 1631 
L 4684 1100 
L 678 1100 
L 678 1631 
z
" transform="scale(0.015625)"/>
       <path id="DejaVuSans-Oblique-44" d="M 1081 4666 
L 2438 4666 
Q 3519 4666 4070 4208 
Q 4622 3750 4622 2847 
Q 4622 2250 4412 1698 
Q 4203 1147 3834 769 
Q 3463 381 2891 190 
Q 2319 0 1538 0 
L 172 0 
L 1081 4666 
z
M 1613 4147 
L 909 519 
L 1734 519 
Q 2794 519 3375 1128 
Q 3956 1738 3956 2847 
Q 3956 3519 3581 3833 
Q 3206 4147 2406 4147 
L 1613 4147 
z
" transform="scale(0.015625)"/>
       <path id="DejaVuSans-2f" d="M 1625 4666 
L 2156 4666 
L 531 -594 
L 0 -594 
L 1625 4666 
z
" transform="scale(0.015625)"/>
       <path id="DejaVuSans-Oblique-48" d="M 1081 4666 
L 1716 4666 
L 1344 2753 
L 3634 2753 
L 4006 4666 
L 4641 4666 
L 3731 0 
L 3097 0 
L 3531 2222 
L 1241 2222 
L 806 0 
L 172 0 
L 1081 4666 
z
" transform="scale(0.015625)"/>
      </defs>
      <use xlink:href="#DejaVuSans-Oblique-3b2" transform="translate(0 0.390625)"/>
      <use xlink:href="#DejaVuSans-3d" transform="translate(83.300781 0.390625)"/>
      <use xlink:href="#DejaVuSans-Oblique-44" transform="translate(186.572266 0.390625)"/>
      <use xlink:href="#DejaVuSans-2f" transform="translate(263.574219 0.390625)"/>
      <use xlink:href="#DejaVuSans-Oblique-48" transform="translate(295.515625 0.390625)"/>
     </g>
    </g>
   </g>
   <g id="matplotlib.axis_2">
    <g id="ytick_1">
     <g id="line2d_23">
      <path d="M 48.90125 311.8 
L 488.76125 311.8 
" clip-path="url(#pb45cca3eed)" style="fill: none; stroke-dasharray: 1.85,0.8; stroke-dashoffset: 0; stroke: #b0b0b0; stroke-opacity: 0.5; stroke-width: 0.5"/>
     </g>
     <g id="line2d_24">
      <defs>
       <path id="m1377fd0923" d="M 0 0 
L -3.5 0 
" style="stroke: #000000; stroke-width: 0.8"/>
      </defs>
      <g>
       <use xlink:href="#m1377fd0923" x="48.90125" y="311.8" style="stroke: #000000; stroke-width: 0.8"/>
      </g>
     </g>
     <g id="text_8">
      <!-- 60 -->
      <g transform="translate(29.17625 315.599219) scale(0.1 -0.1)">
       <use xlink:href="#DejaVuSans-36"/>
       <use xlink:href="#DejaVuSans-30" transform="translate(63.623047 0)"/>
      </g>
     </g>
    </g>
    <g id="ytick_2">
     <g id="line2d_25">
      <path d="M 48.90125 247.673684 
L 488.76125 247.673684 
" clip-path="url(#pb45cca3eed)" style="fill: none; stroke-dasharray: 1.85,0.8; stroke-dashoffset: 0; stroke: #b0b0b0; stroke-opacity: 0.5; stroke-width: 0.5"/>
     </g>
     <g id="line2d_26">
      <g>
       <use xlink:href="#m1377fd0923" x="48.90125" y="247.673684" style="stroke: #000000; stroke-width: 0.8"/>
      </g>
     </g>
     <g id="text_9">
      <!-- 80 -->
      <g transform="translate(29.17625 251.472903) scale(0.1 -0.1)">
       <defs>
        <path id="DejaVuSans-38" d="M 2034 2216 
Q 1584 2216 1326 1975 
Q 1069 1734 1069 1313 
Q 1069 891 1326 650 
Q 1584 409 2034 409 
Q 2484 409 2743 651 
Q 3003 894 3003 1313 
Q 3003 1734 2745 1975 
Q 2488 2216 2034 2216 
z
M 1403 2484 
Q 997 2584 770 2862 
Q 544 3141 544 3541 
Q 544 4100 942 4425 
Q 1341 4750 2034 4750 
Q 2731 4750 3128 4425 
Q 3525 4100 3525 3541 
Q 3525 3141 3298 2862 
Q 3072 2584 2669 2484 
Q 3125 2378 3379 2068 
Q 3634 1759 3634 1313 
Q 3634 634 3220 271 
Q 2806 -91 2034 -91 
Q 1263 -91 848 271 
Q 434 634 434 1313 
Q 434 1759 690 2068 
Q 947 2378 1403 2484 
z
M 1172 3481 
Q 1172 3119 1398 2916 
Q 1625 2713 2034 2713 
Q 2441 2713 2670 2916 
Q 2900 3119 2900 3481 
Q 2900 3844 2670 4047 
Q 2441 4250 2034 4250 
Q 1625 4250 1398 4047 
Q 1172 3844 1172 3481 
z
" transform="scale(0.015625)"/>
       </defs>
       <use xlink:href="#DejaVuSans-38"/>
       <use xlink:href="#DejaVuSans-30" transform="translate(63.623047 0)"/>
      </g>
     </g>
    </g>
    <g id="ytick_3">
     <g id="line2d_27">
      <path d="M 48.90125 183.547368 
L 488.76125 183.547368 
" clip-path="url(#pb45cca3eed)" style="fill: none; stroke-dasharray: 1.85,0.8; stroke-dashoffset: 0; stroke: #b0b0b0; stroke-opacity: 0.5; stroke-width: 0.5"/>
     </g>
     <g id="line2d_28">
      <g>
       <use xlink:href="#m1377fd0923" x="48.90125" y="183.547368" style="stroke: #000000; stroke-width: 0.8"/>
      </g>
     </g>
     <g id="text_10">
      <!-- 100 -->
      <g transform="translate(22.81375 187.346587) scale(0.1 -0.1)">
       <defs>
        <path id="DejaVuSans-31" d="M 794 531 
L 1825 531 
L 1825 4091 
L 703 3866 
L 703 4441 
L 1819 4666 
L 2450 4666 
L 2450 531 
L 3481 531 
L 3481 0 
L 794 0 
L 794 531 
z
" transform="scale(0.015625)"/>
       </defs>
       <use xlink:href="#DejaVuSans-31"/>
       <use xlink:href="#DejaVuSans-30" transform="translate(63.623047 0)"/>
       <use xlink:href="#DejaVuSans-30" transform="translate(127.246094 0)"/>
      </g>
     </g>
    </g>
    <g id="ytick_4">
     <g id="line2d_29">
      <path d="M 48.90125 119.421053 
L 488.76125 119.421053 
" clip-path="url(#pb45cca3eed)" style="fill: none; stroke-dasharray: 1.85,0.8; stroke-dashoffset: 0; stroke: #b0b0b0; stroke-opacity: 0.5; stroke-width: 0.5"/>
     </g>
     <g id="line2d_30">
      <g>
       <use xlink:href="#m1377fd0923" x="48.90125" y="119.421053" style="stroke: #000000; stroke-width: 0.8"/>
      </g>
     </g>
     <g id="text_11">
      <!-- 120 -->
      <g transform="translate(22.81375 123.220271) scale(0.1 -0.1)">
       <use xlink:href="#DejaVuSans-31"/>
       <use xlink:href="#DejaVuSans-32" transform="translate(63.623047 0)"/>
       <use xlink:href="#DejaVuSans-30" transform="translate(127.246094 0)"/>
      </g>
     </g>
    </g>
    <g id="ytick_5">
     <g id="line2d_31">
      <path d="M 48.90125 55.294737 
L 488.76125 55.294737 
" clip-path="url(#pb45cca3eed)" style="fill: none; stroke-dasharray: 1.85,0.8; stroke-dashoffset: 0; stroke: #b0b0b0; stroke-opacity: 0.5; stroke-width: 0.5"/>
     </g>
     <g id="line2d_32">
      <g>
       <use xlink:href="#m1377fd0923" x="48.90125" y="55.294737" style="stroke: #000000; stroke-width: 0.8"/>
      </g>
     </g>
     <g id="text_12">
      <!-- 140 -->
      <g transform="translate(22.81375 59.093956) scale(0.1 -0.1)">
       <use xlink:href="#DejaVuSans-31"/>
       <use xlink:href="#DejaVuSans-34" transform="translate(63.623047 0)"/>
       <use xlink:href="#DejaVuSans-30" transform="translate(127.246094 0)"/>
      </g>
     </g>
    </g>
    <g id="ytick_6">
     <g id="line2d_33">
      <path d="M 48.90125 279.736842 
L 488.76125 279.736842 
" clip-path="url(#pb45cca3eed)" style="fill: none; stroke-dasharray: 0.3,0.495; stroke-dashoffset: 0; stroke: #b0b0b0; stroke-opacity: 0.3; stroke-width: 0.3"/>
     </g>
     <g id="line2d_34">
      <defs>
       <path id="m3598606b5e" d="M 0 0 
L -2 0 
" style="stroke: #000000; stroke-width: 0.6"/>
      </defs>
      <g>
       <use xlink:href="#m3598606b5e" x="48.90125" y="279.736842" style="stroke: #000000; stroke-width: 0.6"/>
      </g>
     </g>
    </g>
    <g id="ytick_7">
     <g id="line2d_35">
      <path d="M 48.90125 215.610526 
L 488.76125 215.610526 
" clip-path="url(#pb45cca3eed)" style="fill: none; stroke-dasharray: 0.3,0.495; stroke-dashoffset: 0; stroke: #b0b0b0; stroke-opacity: 0.3; stroke-width: 0.3"/>
     </g>
     <g id="line2d_36">
      <g>
       <use xlink:href="#m3598606b5e" x="48.90125" y="215.610526" style="stroke: #000000; stroke-width: 0.6"/>
      </g>
     </g>
    </g>
    <g id="ytick_8">
     <g id="line2d_37">
      <path d="M 48.90125 151.484211 
L 488.76125 151.484211 
" clip-path="url(#pb45cca3eed)" style="fill: none; stroke-dasharray: 0.3,0.495; stroke-dashoffset: 0; stroke: #b0b0b0; stroke-opacity: 0.3; stroke-width: 0.3"/>
     </g>
     <g id="line2d_38">
      <g>
       <use xlink:href="#m3598606b5e" x="48.90125" y="151.484211" style="stroke: #000000; stroke-width: 0.6"/>
      </g>
     </g>
    </g>
    <g id="ytick_9">
     <g id="line2d_39">
      <path d="M 48.90125 87.357895 
L 488.76125 87.357895 
" clip-path="url(#pb45cca3eed)" style="fill: none; stroke-dasharray: 0.3,0.495; stroke-dashoffset: 0; stroke: #b0b0b0; stroke-opacity: 0.3; stroke-width: 0.3"/>
     </g>
     <g id="line2d_40">
      <g>
       <use xlink:href="#m3598606b5e" x="48.90125" y="87.357895" style="stroke: #000000; stroke-width: 0.6"/>
      </g>
     </g>
    </g>
    <g id="ytick_10">
     <g id="line2d_41">
      <path d="M 48.90125 23.231579 
L 488.76125 23.231579 
" clip-path="url(#pb45cca3eed)" style="fill: none; stroke-dasharray: 0.3,0.495; stroke-dashoffset: 0; stroke: #b0b0b0; stroke-opacity: 0.3; stroke-width: 0.3"/>
     </g>
     <g id="line2d_42">
      <g>
       <use xlink:href="#m3598606b5e" x="48.90125" y="23.231579" style="stroke: #000000; stroke-width: 0.6"/>
      </g>
     </g>
    </g>
    <g id="text_13">
     <!-- $Re_\mathrm{crit} = U_\mathrm{max}\,D/\nu$ -->
     <g transform="translate(16.318125 206.42) rotate(-90) scale(0.12 -0.12)">
      <defs>
       <path id="DejaVuSans-Oblique-52" d="M 1613 4147 
L 1294 2491 
L 2106 2491 
Q 2584 2491 2879 2755 
Q 3175 3019 3175 3444 
Q 3175 3784 2976 3965 
Q 2778 4147 2406 4147 
L 1613 4147 
z
M 2772 2241 
Q 2972 2194 3105 2009 
Q 3238 1825 3413 1275 
L 3809 0 
L 3144 0 
L 2778 1197 
Q 2638 1659 2453 1815 
Q 2269 1972 1888 1972 
L 1191 1972 
L 806 0 
L 172 0 
L 1081 4666 
L 2503 4666 
Q 3150 4666 3495 4373 
Q 3841 4081 3841 3531 
Q 3841 3044 3547 2687 
Q 3253 2331 2772 2241 
z
" transform="scale(0.015625)"/>
       <path id="DejaVuSans-Oblique-65" d="M 3078 2063 
Q 3088 2113 3092 2166 
Q 3097 2219 3097 2272 
Q 3097 2653 2873 2875 
Q 2650 3097 2266 3097 
Q 1838 3097 1509 2826 
Q 1181 2556 1013 2059 
L 3078 2063 
z
M 3578 1613 
L 903 1613 
Q 884 1494 878 1425 
Q 872 1356 872 1306 
Q 872 872 1139 634 
Q 1406 397 1894 397 
Q 2269 397 2603 481 
Q 2938 566 3225 728 
L 3116 159 
Q 2806 34 2476 -28 
Q 2147 -91 1806 -91 
Q 1078 -91 686 257 
Q 294 606 294 1247 
Q 294 1794 489 2264 
Q 684 2734 1063 3103 
Q 1306 3334 1642 3459 
Q 1978 3584 2356 3584 
Q 2950 3584 3301 3228 
Q 3653 2872 3653 2272 
Q 3653 2128 3634 1964 
Q 3616 1800 3578 1613 
z
" transform="scale(0.015625)"/>
       <path id="DejaVuSans-63" d="M 3122 3366 
L 3122 2828 
Q 2878 2963 2633 3030 
Q 2388 3097 2138 3097 
Q 1578 3097 1268 2742 
Q 959 2388 959 1747 
Q 959 1106 1268 751 
Q 1578 397 2138 397 
Q 2388 397 2633 464 
Q 2878 531 3122 666 
L 3122 134 
Q 2881 22 2623 -34 
Q 2366 -91 2075 -91 
Q 1284 -91 818 406 
Q 353 903 353 1747 
Q 353 2603 823 3093 
Q 1294 3584 2113 3584 
Q 2378 3584 2631 3529 
Q 2884 3475 3122 3366 
z
" transform="scale(0.015625)"/>
       <path id="DejaVuSans-72" d="M 2631 2963 
Q 2534 3019 2420 3045 
Q 2306 3072 2169 3072 
Q 1681 3072 1420 2755 
Q 1159 2438 1159 1844 
L 1159 0 
L 581 0 
L 581 3500 
L 1159 3500 
L 1159 2956 
Q 1341 3275 1631 3429 
Q 1922 3584 2338 3584 
Q 2397 3584 2469 3576 
Q 2541 3569 2628 3553 
L 2631 2963 
z
" transform="scale(0.015625)"/>
       <path id="DejaVuSans-69" d="M 603 3500 
L 1178 3500 
L 1178 0 
L 603 0 
L 603 3500 
z
M 603 4863 
L 1178 4863 
L 1178 4134 
L 603 4134 
L 603 4863 
z
" transform="scale(0.015625)"/>
       <path id="DejaVuSans-74" d="M 1172 4494 
L 1172 3500 
L 2356 3500 
L 2356 3053 
L 1172 3053 
L 1172 1153 
Q 1172 725 1289 603 
Q 1406 481 1766 481 
L 2356 481 
L 2356 0 
L 1766 0 
Q 1100 0 847 248 
Q 594 497 594 1153 
L 594 3053 
L 172 3053 
L 172 3500 
L 594 3500 
L 594 4494 
L 1172 4494 
z
" transform="scale(0.015625)"/>
       <path id="DejaVuSans-Oblique-55" d="M 991 4666 
L 1625 4666 
L 1075 1831 
Q 1041 1641 1027 1517 
Q 1013 1394 1013 1300 
Q 1013 869 1253 645 
Q 1494 422 1959 422 
Q 2563 422 2898 753 
Q 3234 1084 3378 1831 
L 3928 4666 
L 4563 4666 
L 4000 1753 
Q 3816 809 3300 359 
Q 2784 -91 1888 -91 
Q 1188 -91 780 261 
Q 372 613 372 1216 
Q 372 1325 387 1461 
Q 403 1597 434 1753 
L 991 4666 
z
" transform="scale(0.015625)"/>
       <path id="DejaVuSans-6d" d="M 3328 2828 
Q 3544 3216 3844 3400 
Q 4144 3584 4550 3584 
Q 5097 3584 5394 3201 
Q 5691 2819 5691 2113 
L 5691 0 
L 5113 0 
L 5113 2094 
Q 5113 2597 4934 2840 
Q 4756 3084 4391 3084 
Q 3944 3084 3684 2787 
Q 3425 2491 3425 1978 
L 3425 0 
L 2847 0 
L 2847 2094 
Q 2847 2600 2669 2842 
Q 2491 3084 2119 3084 
Q 1678 3084 1418 2786 
Q 1159 2488 1159 1978 
L 1159 0 
L 581 0 
L 581 3500 
L 1159 3500 
L 1159 2956 
Q 1356 3278 1631 3431 
Q 1906 3584 2284 3584 
Q 2666 3584 2933 3390 
Q 3200 3197 3328 2828 
z
" transform="scale(0.015625)"/>
       <path id="DejaVuSans-61" d="M 2194 1759 
Q 1497 1759 1228 1600 
Q 959 1441 959 1056 
Q 959 750 1161 570 
Q 1363 391 1709 391 
Q 2188 391 2477 730 
Q 2766 1069 2766 1631 
L 2766 1759 
L 2194 1759 
z
M 3341 1997 
L 3341 0 
L 2766 0 
L 2766 531 
Q 2569 213 2275 61 
Q 1981 -91 1556 -91 
Q 1019 -91 701 211 
Q 384 513 384 1019 
Q 384 1609 779 1909 
Q 1175 2209 1959 2209 
L 2766 2209 
L 2766 2266 
Q 2766 2663 2505 2880 
Q 2244 3097 1772 3097 
Q 1472 3097 1187 3025 
Q 903 2953 641 2809 
L 641 3341 
Q 956 3463 1253 3523 
Q 1550 3584 1831 3584 
Q 2591 3584 2966 3190 
Q 3341 2797 3341 1997 
z
" transform="scale(0.015625)"/>
       <path id="DejaVuSans-78" d="M 3513 3500 
L 2247 1797 
L 3578 0 
L 2900 0 
L 1881 1375 
L 863 0 
L 184 0 
L 1544 1831 
L 300 3500 
L 978 3500 
L 1906 2253 
L 2834 3500 
L 3513 3500 
z
" transform="scale(0.015625)"/>
       <path id="DejaVuSans-Oblique-3bd" d="M 959 0 
L 572 3500 
L 1191 3500 
L 1522 563 
Q 1972 950 2391 1488 
Q 2706 1891 2788 2241 
Q 2825 2406 2809 2719 
Q 2794 3091 2544 3500 
L 3125 3500 
L 3125 3500 
Q 3288 3222 3353 2834 
Q 3416 2478 3369 2234 
Q 3250 1622 2719 1075 
Q 2025 363 1572 0 
L 959 0 
z
" transform="scale(0.015625)"/>
      </defs>
      <use xlink:href="#DejaVuSans-Oblique-52" transform="translate(0 0.09375)"/>
      <use xlink:href="#DejaVuSans-Oblique-65" transform="translate(69.482422 0.09375)"/>
      <use xlink:href="#DejaVuSans-63" transform="translate(131.005859 -16.3125) scale(0.7)"/>
      <use xlink:href="#DejaVuSans-72" transform="translate(169.492188 -16.3125) scale(0.7)"/>
      <use xlink:href="#DejaVuSans-69" transform="translate(198.271484 -16.3125) scale(0.7)"/>
      <use xlink:href="#DejaVuSans-74" transform="translate(217.719727 -16.3125) scale(0.7)"/>
      <use xlink:href="#DejaVuSans-3d" transform="translate(267.382812 0.09375)"/>
      <use xlink:href="#DejaVuSans-Oblique-55" transform="translate(370.654297 0.09375)"/>
      <use xlink:href="#DejaVuSans-6d" transform="translate(443.847656 -16.3125) scale(0.7)"/>
      <use xlink:href="#DejaVuSans-61" transform="translate(512.036133 -16.3125) scale(0.7)"/>
      <use xlink:href="#DejaVuSans-78" transform="translate(554.931641 -16.3125) scale(0.7)"/>
      <use xlink:href="#DejaVuSans-Oblique-44" transform="translate(615.327473 0.09375)"/>
      <use xlink:href="#DejaVuSans-2f" transform="translate(692.329426 0.09375)"/>
      <use xlink:href="#DejaVuSans-Oblique-3bd" transform="translate(726.020833 0.09375)"/>
     </g>
    </g>
   </g>
   <g id="patch_3">
    <path d="M 48.90125 311.8 
L 48.90125 7.2 
" style="fill: none; stroke: #000000; stroke-width: 0.8; stroke-linejoin: miter; stroke-linecap: square"/>
   </g>
   <g id="patch_4">
    <path d="M 488.76125 311.8 
L 488.76125 7.2 
" style="fill: none; stroke: #000000; stroke-width: 0.8; stroke-linejoin: miter; stroke-linecap: square"/>
   </g>
   <g id="patch_5">
    <path d="M 48.90125 311.8 
L 488.76125 311.8 
" style="fill: none; stroke: #000000; stroke-width: 0.8; stroke-linejoin: miter; stroke-linecap: square"/>
   </g>
   <g id="patch_6">
    <path d="M 48.90125 7.2 
L 488.76125 7.2 
" style="fill: none; stroke: #000000; stroke-width: 0.8; stroke-linejoin: miter; stroke-linecap: square"/>
   </g>
   <g id="line2d_43">
    <path d="M -1 316.784192 
L 48.358799 281.947298 
L 49.613217 280.82041 
L 133.659227 193.012104 
L 176.309442 154.331984 
L 217.705238 126.088133 
L 220.214074 125.024073 
L 260.355452 109.808531 
L 289.207068 107.419421 
L 303.005667 106.360938 
L 344.401463 112.919788 
L 345.655881 113.271866 
L 388.306095 129.358704 
L 429.701891 141.896607 
L 472.352106 150.555343 
L 496.96125 150.601983 
L 496.96125 150.601983 
" clip-path="url(#pb45cca3eed)" style="fill: none; stroke: #000000; stroke-width: 1.6; stroke-linecap: square"/>
   </g>
   <g id="text_14">
    <g id="patch_7">
     <path d="M 304.950925 301.716 
L 479.96405 301.716 
Q 482.06405 301.716 482.06405 299.616 
L 482.06405 277.164375 
Q 482.06405 275.064375 479.96405 275.064375 
L 304.950925 275.064375 
Q 302.850925 275.064375 302.850925 277.164375 
L 302.850925 299.616 
Q 302.850925 301.716 304.950925 301.716 
z
" style="fill: #ffffff; opacity: 0.8; stroke: #000000; stroke-linejoin: miter"/>
    </g>
    <!-- Filled markers: lowest periodic Re observed (DNS) -->
    <g transform="translate(304.950925 282.483281) scale(0.07 -0.07)">
     <defs>
      <path id="DejaVuSans-46" d="M 628 4666 
L 3309 4666 
L 3309 4134 
L 1259 4134 
L 1259 2759 
L 3109 2759 
L 3109 2228 
L 1259 2228 
L 1259 0 
L 628 0 
L 628 4666 
z
" transform="scale(0.015625)"/>
      <path id="DejaVuSans-6c" d="M 603 4863 
L 1178 4863 
L 1178 0 
L 603 0 
L 603 4863 
z
" transform="scale(0.015625)"/>
      <path id="DejaVuSans-65" d="M 3597 1894 
L 3597 1613 
L 953 1613 
Q 991 1019 1311 708 
Q 1631 397 2203 397 
Q 2534 397 2845 478 
Q 3156 559 3463 722 
L 3463 178 
Q 3153 47 2828 -22 
Q 2503 -91 2169 -91 
Q 1331 -91 842 396 
Q 353 884 353 1716 
Q 353 2575 817 3079 
Q 1281 3584 2069 3584 
Q 2775 3584 3186 3129 
Q 3597 2675 3597 1894 
z
M 3022 2063 
Q 3016 2534 2758 2815 
Q 2500 3097 2075 3097 
Q 1594 3097 1305 2825 
Q 1016 2553 972 2059 
L 3022 2063 
z
" transform="scale(0.015625)"/>
      <path id="DejaVuSans-64" d="M 2906 2969 
L 2906 4863 
L 3481 4863 
L 3481 0 
L 2906 0 
L 2906 525 
Q 2725 213 2448 61 
Q 2172 -91 1784 -91 
Q 1150 -91 751 415 
Q 353 922 353 1747 
Q 353 2572 751 3078 
Q 1150 3584 1784 3584 
Q 2172 3584 2448 3432 
Q 2725 3281 2906 2969 
z
M 947 1747 
Q 947 1113 1208 752 
Q 1469 391 1925 391 
Q 2381 391 2643 752 
Q 2906 1113 2906 1747 
Q 2906 2381 2643 2742 
Q 2381 3103 1925 3103 
Q 1469 3103 1208 2742 
Q 947 2381 947 1747 
z
" transform="scale(0.015625)"/>
      <path id="DejaVuSans-20" transform="scale(0.015625)"/>
      <path id="DejaVuSans-6b" d="M 581 4863 
L 1159 4863 
L 1159 1991 
L 2875 3500 
L 3609 3500 
L 1753 1863 
L 3688 0 
L 2938 0 
L 1159 1709 
L 1159 0 
L 581 0 
L 581 4863 
z
" transform="scale(0.015625)"/>
      <path id="DejaVuSans-73" d="M 2834 3397 
L 2834 2853 
Q 2591 2978 2328 3040 
Q 2066 3103 1784 3103 
Q 1356 3103 1142 2972 
Q 928 2841 928 2578 
Q 928 2378 1081 2264 
Q 1234 2150 1697 2047 
L 1894 2003 
Q 2506 1872 2764 1633 
Q 3022 1394 3022 966 
Q 3022 478 2636 193 
Q 2250 -91 1575 -91 
Q 1294 -91 989 -36 
Q 684 19 347 128 
L 347 722 
Q 666 556 975 473 
Q 1284 391 1588 391 
Q 1994 391 2212 530 
Q 2431 669 2431 922 
Q 2431 1156 2273 1281 
Q 2116 1406 1581 1522 
L 1381 1569 
Q 847 1681 609 1914 
Q 372 2147 372 2553 
Q 372 3047 722 3315 
Q 1072 3584 1716 3584 
Q 2034 3584 2315 3537 
Q 2597 3491 2834 3397 
z
" transform="scale(0.015625)"/>
      <path id="DejaVuSans-3a" d="M 750 794 
L 1409 794 
L 1409 0 
L 750 0 
L 750 794 
z
M 750 3309 
L 1409 3309 
L 1409 2516 
L 750 2516 
L 750 3309 
z
" transform="scale(0.015625)"/>
      <path id="DejaVuSans-6f" d="M 1959 3097 
Q 1497 3097 1228 2736 
Q 959 2375 959 1747 
Q 959 1119 1226 758 
Q 1494 397 1959 397 
Q 2419 397 2687 759 
Q 2956 1122 2956 1747 
Q 2956 2369 2687 2733 
Q 2419 3097 1959 3097 
z
M 1959 3584 
Q 2709 3584 3137 3096 
Q 3566 2609 3566 1747 
Q 3566 888 3137 398 
Q 2709 -91 1959 -91 
Q 1206 -91 779 398 
Q 353 888 353 1747 
Q 353 2609 779 3096 
Q 1206 3584 1959 3584 
z
" transform="scale(0.015625)"/>
      <path id="DejaVuSans-77" d="M 269 3500 
L 844 3500 
L 1563 769 
L 2278 3500 
L 2956 3500 
L 3675 769 
L 4391 3500 
L 4966 3500 
L 4050 0 
L 3372 0 
L 2619 2869 
L 1863 0 
L 1184 0 
L 269 3500 
z
" transform="scale(0.015625)"/>
      <path id="DejaVuSans-70" d="M 1159 525 
L 1159 -1331 
L 581 -1331 
L 581 3500 
L 1159 3500 
L 1159 2969 
Q 1341 3281 1617 3432 
Q 1894 3584 2278 3584 
Q 2916 3584 3314 3078 
Q 3713 2572 3713 1747 
Q 3713 922 3314 415 
Q 2916 -91 2278 -91 
Q 1894 -91 1617 61 
Q 1341 213 1159 525 
z
M 3116 1747 
Q 3116 2381 2855 2742 
Q 2594 3103 2138 3103 
Q 1681 3103 1420 2742 
Q 1159 2381 1159 1747 
Q 1159 1113 1420 752 
Q 1681 391 2138 391 
Q 2594 391 2855 752 
Q 3116 1113 3116 1747 
z
" transform="scale(0.015625)"/>
      <path id="DejaVuSans-52" d="M 2841 2188 
Q 3044 2119 3236 1894 
Q 3428 1669 3622 1275 
L 4263 0 
L 3584 0 
L 2988 1197 
Q 2756 1666 2539 1819 
Q 2322 1972 1947 1972 
L 1259 1972 
L 1259 0 
L 628 0 
L 628 4666 
L 2053 4666 
Q 2853 4666 3247 4331 
Q 3641 3997 3641 3322 
Q 3641 2881 3436 2590 
Q 3231 2300 2841 2188 
z
M 1259 4147 
L 1259 2491 
L 2053 2491 
Q 2509 2491 2742 2702 
Q 2975 2913 2975 3322 
Q 2975 3731 2742 3939 
Q 2509 4147 2053 4147 
L 1259 4147 
z
" transform="scale(0.015625)"/>
      <path id="DejaVuSans-62" d="M 3116 1747 
Q 3116 2381 2855 2742 
Q 2594 3103 2138 3103 
Q 1681 3103 1420 2742 
Q 1159 2381 1159 1747 
Q 1159 1113 1420 752 
Q 1681 391 2138 391 
Q 2594 391 2855 752 
Q 3116 1113 3116 1747 
z
M 1159 2969 
Q 1341 3281 1617 3432 
Q 1894 3584 2278 3584 
Q 2916 3584 3314 3078 
Q 3713 2572 3713 1747 
Q 3713 922 3314 415 
Q 2916 -91 2278 -91 
Q 1894 -91 1617 61 
Q 1341 213 1159 525 
L 1159 0 
L 581 0 
L 581 4863 
L 1159 4863 
L 1159 2969 
z
" transform="scale(0.015625)"/>
      <path id="DejaVuSans-76" d="M 191 3500 
L 800 3500 
L 1894 563 
L 2988 3500 
L 3597 3500 
L 2284 0 
L 1503 0 
L 191 3500 
z
" transform="scale(0.015625)"/>
      <path id="DejaVuSans-28" d="M 1984 4856 
Q 1566 4138 1362 3434 
Q 1159 2731 1159 2009 
Q 1159 1288 1364 580 
Q 1569 -128 1984 -844 
L 1484 -844 
Q 1016 -109 783 600 
Q 550 1309 550 2009 
Q 550 2706 781 3412 
Q 1013 4119 1484 4856 
L 1984 4856 
z
" transform="scale(0.015625)"/>
      <path id="DejaVuSans-44" d="M 1259 4147 
L 1259 519 
L 2022 519 
Q 2988 519 3436 956 
Q 3884 1394 3884 2338 
Q 3884 3275 3436 3711 
Q 2988 4147 2022 4147 
L 1259 4147 
z
M 628 4666 
L 1925 4666 
Q 3281 4666 3915 4102 
Q 4550 3538 4550 2338 
Q 4550 1131 3912 565 
Q 3275 0 1925 0 
L 628 0 
L 628 4666 
z
" transform="scale(0.015625)"/>
      <path id="DejaVuSans-4e" d="M 628 4666 
L 1478 4666 
L 3547 763 
L 3547 4666 
L 4159 4666 
L 4159 0 
L 3309 0 
L 1241 3903 
L 1241 0 
L 628 0 
L 628 4666 
z
" transform="scale(0.015625)"/>
      <path id="DejaVuSans-53" d="M 3425 4513 
L 3425 3897 
Q 3066 4069 2747 4153 
Q 2428 4238 2131 4238 
Q 1616 4238 1336 4038 
Q 1056 3838 1056 3469 
Q 1056 3159 1242 3001 
Q 1428 2844 1947 2747 
L 2328 2669 
Q 3034 2534 3370 2195 
Q 3706 1856 3706 1288 
Q 3706 609 3251 259 
Q 2797 -91 1919 -91 
Q 1588 -91 1214 -16 
Q 841 59 441 206 
L 441 856 
Q 825 641 1194 531 
Q 1563 422 1919 422 
Q 2459 422 2753 634 
Q 3047 847 3047 1241 
Q 3047 1584 2836 1778 
Q 2625 1972 2144 2069 
L 1759 2144 
Q 1053 2284 737 2584 
Q 422 2884 422 3419 
Q 422 4038 858 4394 
Q 1294 4750 2059 4750 
Q 2388 4750 2728 4690 
Q 3069 4631 3425 4513 
z
" transform="scale(0.015625)"/>
      <path id="DejaVuSans-29" d="M 513 4856 
L 1013 4856 
Q 1481 4119 1714 3412 
Q 1947 2706 1947 2009 
Q 1947 1309 1714 600 
Q 1481 -109 1013 -844 
L 513 -844 
Q 928 -128 1133 580 
Q 1338 1288 1338 2009 
Q 1338 2731 1133 3434 
Q 928 4138 513 4856 
z
" transform="scale(0.015625)"/>
     </defs>
     <use xlink:href="#DejaVuSans-46"/>
     <use xlink:href="#DejaVuSans-69" transform="translate(50.269531 0)"/>
     <use xlink:href="#DejaVuSans-6c" transform="translate(78.052734 0)"/>
     <use xlink:href="#DejaVuSans-6c" transform="translate(105.835938 0)"/>
     <use xlink:href="#DejaVuSans-65" transform="translate(133.619141 0)"/>
     <use xlink:href="#DejaVuSans-64" transform="translate(195.142578 0)"/>
     <use xlink:href="#DejaVuSans-20" transform="translate(258.619141 0)"/>
     <use xlink:href="#DejaVuSans-6d" transform="translate(290.40625 0)"/>
     <use xlink:href="#DejaVuSans-61" transform="translate(387.818359 0)"/>
     <use xlink:href="#DejaVuSans-72" transform="translate(449.097656 0)"/>
     <use xlink:href="#DejaVuSans-6b" transform="translate(490.210938 0)"/>
     <use xlink:href="#DejaVuSans-65" transform="translate(544.496094 0)"/>
     <use xlink:href="#DejaVuSans-72" transform="translate(606.019531 0)"/>
     <use xlink:href="#DejaVuSans-73" transform="translate(647.132812 0)"/>
     <use xlink:href="#DejaVuSans-3a" transform="translate(699.232422 0)"/>
     <use xlink:href="#DejaVuSans-20" transform="translate(732.923828 0)"/>
     <use xlink:href="#DejaVuSans-6c" transform="translate(764.710938 0)"/>
     <use xlink:href="#DejaVuSans-6f" transform="translate(792.494141 0)"/>
     <use xlink:href="#DejaVuSans-77" transform="translate(853.675781 0)"/>
     <use xlink:href="#DejaVuSans-65" transform="translate(935.462891 0)"/>
     <use xlink:href="#DejaVuSans-73" transform="translate(996.986328 0)"/>
     <use xlink:href="#DejaVuSans-74" transform="translate(1049.085938 0)"/>
     <use xlink:href="#DejaVuSans-20" transform="translate(1088.294922 0)"/>
     <use xlink:href="#DejaVuSans-70" transform="translate(1120.082031 0)"/>
     <use xlink:href="#DejaVuSans-65" transform="translate(1183.558594 0)"/>
     <use xlink:href="#DejaVuSans-72" transform="translate(1245.082031 0)"/>
     <use xlink:href="#DejaVuSans-69" transform="translate(1286.195312 0)"/>
     <use xlink:href="#DejaVuSans-6f" transform="translate(1313.978516 0)"/>
     <use xlink:href="#DejaVuSans-64" transform="translate(1375.160156 0)"/>
     <use xlink:href="#DejaVuSans-69" transform="translate(1438.636719 0)"/>
     <use xlink:href="#DejaVuSans-63" transform="translate(1466.419922 0)"/>
     <use xlink:href="#DejaVuSans-20" transform="translate(1521.400391 0)"/>
     <use xlink:href="#DejaVuSans-52" transform="translate(1553.1875 0)"/>
     <use xlink:href="#DejaVuSans-65" transform="translate(1618.169922 0)"/>
     <use xlink:href="#DejaVuSans-20" transform="translate(1679.693359 0)"/>
     <use xlink:href="#DejaVuSans-6f" transform="translate(1711.480469 0)"/>
     <use xlink:href="#DejaVuSans-62" transform="translate(1772.662109 0)"/>
     <use xlink:href="#DejaVuSans-73" transform="translate(1836.138672 0)"/>
     <use xlink:href="#DejaVuSans-65" transform="translate(1888.238281 0)"/>
     <use xlink:href="#DejaVuSans-72" transform="translate(1949.761719 0)"/>
     <use xlink:href="#DejaVuSans-76" transform="translate(1990.875 0)"/>
     <use xlink:href="#DejaVuSans-65" transform="translate(2050.054688 0)"/>
     <use xlink:href="#DejaVuSans-64" transform="translate(2111.578125 0)"/>
     <use xlink:href="#DejaVuSans-20" transform="translate(2175.054688 0)"/>
     <use xlink:href="#DejaVuSans-28" transform="translate(2206.841797 0)"/>
     <use xlink:href="#DejaVuSans-44" transform="translate(2245.855469 0)"/>
     <use xlink:href="#DejaVuSans-4e" transform="translate(2322.857422 0)"/>
     <use xlink:href="#DejaVuSans-53" transform="translate(2397.662109 0)"/>
     <use xlink:href="#DejaVuSans-29" transform="translate(2461.138672 0)"/>
    </g>
    <!-- Open markers: highest steady Re observed (DNS) -->
    <g transform="translate(305.5678 290.32175) scale(0.07 -0.07)">
     <defs>
      <path id="DejaVuSans-4f" d="M 2522 4238 
Q 1834 4238 1429 3725 
Q 1025 3213 1025 2328 
Q 1025 1447 1429 934 
Q 1834 422 2522 422 
Q 3209 422 3611 934 
Q 4013 1447 4013 2328 
Q 4013 3213 3611 3725 
Q 3209 4238 2522 4238 
z
M 2522 4750 
Q 3503 4750 4090 4092 
Q 4678 3434 4678 2328 
Q 4678 1225 4090 567 
Q 3503 -91 2522 -91 
Q 1538 -91 948 565 
Q 359 1222 359 2328 
Q 359 3434 948 4092 
Q 1538 4750 2522 4750 
z
" transform="scale(0.015625)"/>
      <path id="DejaVuSans-6e" d="M 3513 2113 
L 3513 0 
L 2938 0 
L 2938 2094 
Q 2938 2591 2744 2837 
Q 2550 3084 2163 3084 
Q 1697 3084 1428 2787 
Q 1159 2491 1159 1978 
L 1159 0 
L 581 0 
L 581 3500 
L 1159 3500 
L 1159 2956 
Q 1366 3272 1645 3428 
Q 1925 3584 2291 3584 
Q 2894 3584 3203 3211 
Q 3513 2838 3513 2113 
z
" transform="scale(0.015625)"/>
      <path id="DejaVuSans-68" d="M 3513 2113 
L 3513 0 
L 2938 0 
L 2938 2094 
Q 2938 2591 2744 2837 
Q 2550 3084 2163 3084 
Q 1697 3084 1428 2787 
Q 1159 2491 1159 1978 
L 1159 0 
L 581 0 
L 581 4863 
L 1159 4863 
L 1159 2956 
Q 1366 3272 1645 3428 
Q 1925 3584 2291 3584 
Q 2894 3584 3203 3211 
Q 3513 2838 3513 2113 
z
" transform="scale(0.015625)"/>
      <path id="DejaVuSans-67" d="M 2906 1791 
Q 2906 2416 2648 2759 
Q 2391 3103 1925 3103 
Q 1463 3103 1205 2759 
Q 947 2416 947 1791 
Q 947 1169 1205 825 
Q 1463 481 1925 481 
Q 2391 481 2648 825 
Q 2906 1169 2906 1791 
z
M 3481 434 
Q 3481 -459 3084 -895 
Q 2688 -1331 1869 -1331 
Q 1566 -1331 1297 -1286 
Q 1028 -1241 775 -1147 
L 775 -588 
Q 1028 -725 1275 -790 
Q 1522 -856 1778 -856 
Q 2344 -856 2625 -561 
Q 2906 -266 2906 331 
L 2906 616 
Q 2728 306 2450 153 
Q 2172 0 1784 0 
Q 1141 0 747 490 
Q 353 981 353 1791 
Q 353 2603 747 3093 
Q 1141 3584 1784 3584 
Q 2172 3584 2450 3431 
Q 2728 3278 2906 2969 
L 2906 3500 
L 3481 3500 
L 3481 434 
z
" transform="scale(0.015625)"/>
      <path id="DejaVuSans-79" d="M 2059 -325 
Q 1816 -950 1584 -1140 
Q 1353 -1331 966 -1331 
L 506 -1331 
L 506 -850 
L 844 -850 
Q 1081 -850 1212 -737 
Q 1344 -625 1503 -206 
L 1606 56 
L 191 3500 
L 800 3500 
L 1894 763 
L 2988 3500 
L 3597 3500 
L 2059 -325 
z
" transform="scale(0.015625)"/>
     </defs>
     <use xlink:href="#DejaVuSans-4f"/>
     <use xlink:href="#DejaVuSans-70" transform="translate(78.710938 0)"/>
     <use xlink:href="#DejaVuSans-65" transform="translate(142.1875 0)"/>
     <use xlink:href="#DejaVuSans-6e" transform="translate(203.710938 0)"/>
     <use xlink:href="#DejaVuSans-20" transform="translate(267.089844 0)"/>
     <use xlink:href="#DejaVuSans-6d" transform="translate(298.876953 0)"/>
     <use xlink:href="#DejaVuSans-61" transform="translate(396.289062 0)"/>
     <use xlink:href="#DejaVuSans-72" transform="translate(457.568359 0)"/>
     <use xlink:href="#DejaVuSans-6b" transform="translate(498.681641 0)"/>
     <use xlink:href="#DejaVuSans-65" transform="translate(552.966797 0)"/>
     <use xlink:href="#DejaVuSans-72" transform="translate(614.490234 0)"/>
     <use xlink:href="#DejaVuSans-73" transform="translate(655.603516 0)"/>
     <use xlink:href="#DejaVuSans-3a" transform="translate(707.703125 0)"/>
     <use xlink:href="#DejaVuSans-20" transform="translate(741.394531 0)"/>
     <use xlink:href="#DejaVuSans-68" transform="translate(773.181641 0)"/>
     <use xlink:href="#DejaVuSans-69" transform="translate(836.560547 0)"/>
     <use xlink:href="#DejaVuSans-67" transform="translate(864.34375 0)"/>
     <use xlink:href="#DejaVuSans-68" transform="translate(927.820312 0)"/>
     <use xlink:href="#DejaVuSans-65" transform="translate(991.199219 0)"/>
     <use xlink:href="#DejaVuSans-73" transform="translate(1052.722656 0)"/>
     <use xlink:href="#DejaVuSans-74" transform="translate(1104.822266 0)"/>
     <use xlink:href="#DejaVuSans-20" transform="translate(1144.03125 0)"/>
     <use xlink:href="#DejaVuSans-73" transform="translate(1175.818359 0)"/>
     <use xlink:href="#DejaVuSans-74" transform="translate(1227.917969 0)"/>
     <use xlink:href="#DejaVuSans-65" transform="translate(1267.126953 0)"/>
     <use xlink:href="#DejaVuSans-61" transform="translate(1328.650391 0)"/>
     <use xlink:href="#DejaVuSans-64" transform="translate(1389.929688 0)"/>
     <use xlink:href="#DejaVuSans-79" transform="translate(1453.40625 0)"/>
     <use xlink:href="#DejaVuSans-20" transform="translate(1512.585938 0)"/>
     <use xlink:href="#DejaVuSans-52" transform="translate(1544.373047 0)"/>
     <use xlink:href="#DejaVuSans-65" transform="translate(1609.355469 0)"/>
     <use xlink:href="#DejaVuSans-20" transform="translate(1670.878906 0)"/>
     <use xlink:href="#DejaVuSans-6f" transform="translate(1702.666016 0)"/>
     <use xlink:href="#DejaVuSans-62" transform="translate(1763.847656 0)"/>
     <use xlink:href="#DejaVuSans-73" transform="translate(1827.324219 0)"/>
     <use xlink:href="#DejaVuSans-65" transform="translate(1879.423828 0)"/>
     <use xlink:href="#DejaVuSans-72" transform="translate(1940.947266 0)"/>
     <use xlink:href="#DejaVuSans-76" transform="translate(1982.060547 0)"/>
     <use xlink:href="#DejaVuSans-65" transform="translate(2041.240234 0)"/>
     <use xlink:href="#DejaVuSans-64" transform="translate(2102.763672 0)"/>
     <use xlink:href="#DejaVuSans-20" transform="translate(2166.240234 0)"/>
     <use xlink:href="#DejaVuSans-28" transform="translate(2198.027344 0)"/>
     <use xlink:href="#DejaVuSans-44" transform="translate(2237.041016 0)"/>
     <use xlink:href="#DejaVuSans-4e" transform="translate(2314.042969 0)"/>
     <use xlink:href="#DejaVuSans-53" transform="translate(2388.847656 0)"/>
     <use xlink:href="#DejaVuSans-29" transform="translate(2452.324219 0)"/>
    </g>
    <!-- Arrows: confirmed onset brackets -->
    <g transform="translate(362.336706 298.160219) scale(0.07 -0.07)">
     <defs>
      <path id="DejaVuSans-41" d="M 2188 4044 
L 1331 1722 
L 3047 1722 
L 2188 4044 
z
M 1831 4666 
L 2547 4666 
L 4325 0 
L 3669 0 
L 3244 1197 
L 1141 1197 
L 716 0 
L 50 0 
L 1831 4666 
z
" transform="scale(0.015625)"/>
      <path id="DejaVuSans-66" d="M 2375 4863 
L 2375 4384 
L 1825 4384 
Q 1516 4384 1395 4259 
Q 1275 4134 1275 3809 
L 1275 3500 
L 2222 3500 
L 2222 3053 
L 1275 3053 
L 1275 0 
L 697 0 
L 697 3053 
L 147 3053 
L 147 3500 
L 697 3500 
L 697 3744 
Q 697 4328 969 4595 
Q 1241 4863 1831 4863 
L 2375 4863 
z
" transform="scale(0.015625)"/>
     </defs>
     <use xlink:href="#DejaVuSans-41"/>
     <use xlink:href="#DejaVuSans-72" transform="translate(68.408203 0)"/>
     <use xlink:href="#DejaVuSans-72" transform="translate(107.771484 0)"/>
     <use xlink:href="#DejaVuSans-6f" transform="translate(146.634766 0)"/>
     <use xlink:href="#DejaVuSans-77" transform="translate(207.816406 0)"/>
     <use xlink:href="#DejaVuSans-73" transform="translate(289.603516 0)"/>
     <use xlink:href="#DejaVuSans-3a" transform="translate(341.703125 0)"/>
     <use xlink:href="#DejaVuSans-20" transform="translate(375.394531 0)"/>
     <use xlink:href="#DejaVuSans-63" transform="translate(407.181641 0)"/>
     <use xlink:href="#DejaVuSans-6f" transform="translate(462.162109 0)"/>
     <use xlink:href="#DejaVuSans-6e" transform="translate(523.34375 0)"/>
     <use xlink:href="#DejaVuSans-66" transform="translate(586.722656 0)"/>
     <use xlink:href="#DejaVuSans-69" transform="translate(621.927734 0)"/>
     <use xlink:href="#DejaVuSans-72" transform="translate(649.710938 0)"/>
     <use xlink:href="#DejaVuSans-6d" transform="translate(689.074219 0)"/>
     <use xlink:href="#DejaVuSans-65" transform="translate(786.486328 0)"/>
     <use xlink:href="#DejaVuSans-64" transform="translate(848.009766 0)"/>
     <use xlink:href="#DejaVuSans-20" transform="translate(911.486328 0)"/>
     <use xlink:href="#DejaVuSans-6f" transform="translate(943.273438 0)"/>
     <use xlink:href="#DejaVuSans-6e" transform="translate(1004.455078 0)"/>
     <use xlink:href="#DejaVuSans-73" transform="translate(1067.833984 0)"/>
     <use xlink:href="#DejaVuSans-65" transform="translate(1119.933594 0)"/>
     <use xlink:href="#DejaVuSans-74" transform="translate(1181.457031 0)"/>
     <use xlink:href="#DejaVuSans-20" transform="translate(1220.666016 0)"/>
     <use xlink:href="#DejaVuSans-62" transform="translate(1252.453125 0)"/>
     <use xlink:href="#DejaVuSans-72" transform="translate(1315.929688 0)"/>
     <use xlink:href="#DejaVuSans-61" transform="translate(1357.042969 0)"/>
     <use xlink:href="#DejaVuSans-63" transform="translate(1418.322266 0)"/>
     <use xlink:href="#DejaVuSans-6b" transform="translate(1473.302734 0)"/>
     <use xlink:href="#DejaVuSans-65" transform="translate(1527.587891 0)"/>
     <use xlink:href="#DejaVuSans-74" transform="translate(1589.111328 0)"/>
     <use xlink:href="#DejaVuSans-73" transform="translate(1628.320312 0)"/>
    </g>
   </g>
   <g id="patch_8">
    <path d="M 133.489712 276.395168 
Q 133.489712 247.67283 133.489712 218.950492 
" style="fill: none; stroke: #0b5ed7; stroke-width: 1.2; stroke-linecap: round"/>
    <path d="M 135.489712 272.395168 
L 133.489712 276.395168 
L 131.489712 272.395168 
" style="fill: none; stroke: #0b5ed7; stroke-width: 1.2; stroke-linecap: round"/>
    <path d="M 131.489712 222.950492 
L 133.489712 218.950492 
L 135.489712 222.950492 
" style="fill: none; stroke: #0b5ed7; stroke-width: 1.2; stroke-linecap: round"/>
   </g>
   <g id="patch_9">
    <path d="M 196.931058 228.300431 
Q 196.931058 199.578093 196.931058 170.855755 
" style="fill: none; stroke: #6c757d; stroke-width: 1.2; stroke-linecap: round"/>
    <path d="M 198.931058 224.300431 
L 196.931058 228.300431 
L 194.931058 224.300431 
" style="fill: none; stroke: #6c757d; stroke-width: 1.2; stroke-linecap: round"/>
    <path d="M 194.931058 174.855755 
L 196.931058 170.855755 
L 198.931058 174.855755 
" style="fill: none; stroke: #6c757d; stroke-width: 1.2; stroke-linecap: round"/>
   </g>
   <g id="patch_10">
    <path d="M 302.666635 84.016221 
Q 302.666635 79.340671 302.666635 74.665122 
" style="fill: none; stroke: #dc3545; stroke-width: 1.2; stroke-linecap: round"/>
    <path d="M 304.666635 80.016221 
L 302.666635 84.016221 
L 300.666635 80.016221 
" style="fill: none; stroke: #dc3545; stroke-width: 1.2; stroke-linecap: round"/>
    <path d="M 300.666635 78.665122 
L 302.666635 74.665122 
L 304.666635 78.665122 
" style="fill: none; stroke: #dc3545; stroke-width: 1.2; stroke-linecap: round"/>
   </g>
   <g id="patch_11">
    <path d="M 387.255096 100.047799 
Q 387.255096 71.325461 387.255096 42.603123 
" style="fill: none; stroke: #198754; stroke-width: 1.2; stroke-linecap: round"/>
    <path d="M 389.255096 96.047799 
L 387.255096 100.047799 
L 385.255096 96.047799 
" style="fill: none; stroke: #198754; stroke-width: 1.2; stroke-linecap: round"/>
    <path d="M 385.255096 46.603123 
L 387.255096 42.603123 
L 389.255096 46.603123 
" style="fill: none; stroke: #198754; stroke-width: 1.2; stroke-linecap: round"/>
   </g>
   <g id="legend_1">
    <g id="patch_12">
     <path d="M 54.50125 84.445 
L 187.615 84.445 
Q 189.215 84.445 189.215 82.845 
L 189.215 12.8 
Q 189.215 11.2 187.615 11.2 
L 54.50125 11.2 
Q 52.90125 11.2 52.90125 12.8 
L 52.90125 82.845 
Q 52.90125 84.445 54.50125 84.445 
z
" style="fill: #ffffff; opacity: 0.9; stroke: #cccccc; stroke-linejoin: miter"/>
    </g>
    <g id="line2d_44">
     <path d="M 56.10125 17.67875 
L 64.10125 17.67875 
L 72.10125 17.67875 
" style="fill: none; stroke: #000000; stroke-width: 1.6; stroke-linecap: square"/>
    </g>
    <g id="text_15">
     <!-- Sahin &amp; Owens (2004) LSA -->
     <g transform="translate(78.50125 20.47875) scale(0.08 -0.08)">
      <defs>
       <path id="DejaVuSans-26" d="M 1556 2509 
Q 1272 2256 1139 2004 
Q 1006 1753 1006 1478 
Q 1006 1022 1337 719 
Q 1669 416 2169 416 
Q 2466 416 2725 514 
Q 2984 613 3213 813 
L 1556 2509 
z
M 1997 2859 
L 3584 1234 
Q 3769 1513 3872 1830 
Q 3975 2147 3994 2503 
L 4575 2503 
Q 4538 2091 4375 1687 
Q 4213 1284 3922 891 
L 4794 0 
L 4006 0 
L 3559 459 
Q 3234 181 2878 45 
Q 2522 -91 2113 -91 
Q 1359 -91 881 339 
Q 403 769 403 1441 
Q 403 1841 612 2192 
Q 822 2544 1241 2853 
Q 1091 3050 1012 3245 
Q 934 3441 934 3628 
Q 934 4134 1281 4442 
Q 1628 4750 2203 4750 
Q 2463 4750 2720 4694 
Q 2978 4638 3244 4525 
L 3244 3956 
Q 2972 4103 2725 4179 
Q 2478 4256 2266 4256 
Q 1938 4256 1733 4082 
Q 1528 3909 1528 3634 
Q 1528 3475 1620 3314 
Q 1713 3153 1997 2859 
z
" transform="scale(0.015625)"/>
       <path id="DejaVuSans-4c" d="M 628 4666 
L 1259 4666 
L 1259 531 
L 3531 531 
L 3531 0 
L 628 0 
L 628 4666 
z
" transform="scale(0.015625)"/>
      </defs>
      <use xlink:href="#DejaVuSans-53"/>
      <use xlink:href="#DejaVuSans-61" transform="translate(63.476562 0)"/>
      <use xlink:href="#DejaVuSans-68" transform="translate(124.755859 0)"/>
      <use xlink:href="#DejaVuSans-69" transform="translate(188.134766 0)"/>
      <use xlink:href="#DejaVuSans-6e" transform="translate(215.917969 0)"/>
      <use xlink:href="#DejaVuSans-20" transform="translate(279.296875 0)"/>
      <use xlink:href="#DejaVuSans-26" transform="translate(311.083984 0)"/>
      <use xlink:href="#DejaVuSans-20" transform="translate(389.0625 0)"/>
      <use xlink:href="#DejaVuSans-4f" transform="translate(420.849609 0)"/>
      <use xlink:href="#DejaVuSans-77" transform="translate(499.560547 0)"/>
      <use xlink:href="#DejaVuSans-65" transform="translate(581.347656 0)"/>
      <use xlink:href="#DejaVuSans-6e" transform="translate(642.871094 0)"/>
      <use xlink:href="#DejaVuSans-73" transform="translate(706.25 0)"/>
      <use xlink:href="#DejaVuSans-20" transform="translate(758.349609 0)"/>
      <use xlink:href="#DejaVuSans-28" transform="translate(790.136719 0)"/>
      <use xlink:href="#DejaVuSans-32" transform="translate(829.150391 0)"/>
      <use xlink:href="#DejaVuSans-30" transform="translate(892.773438 0)"/>
      <use xlink:href="#DejaVuSans-30" transform="translate(956.396484 0)"/>
      <use xlink:href="#DejaVuSans-34" transform="translate(1020.019531 0)"/>
      <use xlink:href="#DejaVuSans-29" transform="translate(1083.642578 0)"/>
      <use xlink:href="#DejaVuSans-20" transform="translate(1122.65625 0)"/>
      <use xlink:href="#DejaVuSans-4c" transform="translate(1154.443359 0)"/>
      <use xlink:href="#DejaVuSans-53" transform="translate(1210.15625 0)"/>
      <use xlink:href="#DejaVuSans-41" transform="translate(1275.507812 0)"/>
     </g>
    </g>
    <g id="patch_13">
     <path d="M 56.10125 32.22125 
L 72.10125 32.22125 
L 72.10125 26.62125 
L 56.10125 26.62125 
z
" style="fill: #c0c0c0; opacity: 0.6"/>
    </g>
    <g id="text_16">
     <!-- $\pm5\%$ band -->
     <g transform="translate(78.50125 32.22125) scale(0.08 -0.08)">
      <defs>
       <path id="DejaVuSans-b1" d="M 2944 4013 
L 2944 2803 
L 4684 2803 
L 4684 2272 
L 2944 2272 
L 2944 1063 
L 2419 1063 
L 2419 2272 
L 678 2272 
L 678 2803 
L 2419 2803 
L 2419 4013 
L 2944 4013 
z
M 678 531 
L 4684 531 
L 4684 0 
L 678 0 
L 678 531 
z
" transform="scale(0.015625)"/>
       <path id="DejaVuSans-25" d="M 4653 2053 
Q 4381 2053 4226 1822 
Q 4072 1591 4072 1178 
Q 4072 772 4226 539 
Q 4381 306 4653 306 
Q 4919 306 5073 539 
Q 5228 772 5228 1178 
Q 5228 1588 5073 1820 
Q 4919 2053 4653 2053 
z
M 4653 2450 
Q 5147 2450 5437 2106 
Q 5728 1763 5728 1178 
Q 5728 594 5436 251 
Q 5144 -91 4653 -91 
Q 4153 -91 3862 251 
Q 3572 594 3572 1178 
Q 3572 1766 3864 2108 
Q 4156 2450 4653 2450 
z
M 1428 4353 
Q 1159 4353 1004 4120 
Q 850 3888 850 3481 
Q 850 3069 1003 2837 
Q 1156 2606 1428 2606 
Q 1700 2606 1854 2837 
Q 2009 3069 2009 3481 
Q 2009 3884 1853 4118 
Q 1697 4353 1428 4353 
z
M 4250 4750 
L 4750 4750 
L 1831 -91 
L 1331 -91 
L 4250 4750 
z
M 1428 4750 
Q 1922 4750 2215 4408 
Q 2509 4066 2509 3481 
Q 2509 2891 2217 2550 
Q 1925 2209 1428 2209 
Q 931 2209 642 2551 
Q 353 2894 353 3481 
Q 353 4063 643 4406 
Q 934 4750 1428 4750 
z
" transform="scale(0.015625)"/>
      </defs>
      <use xlink:href="#DejaVuSans-b1" transform="translate(0 0.015625)"/>
      <use xlink:href="#DejaVuSans-35" transform="translate(83.789062 0.015625)"/>
      <use xlink:href="#DejaVuSans-25" transform="translate(147.412109 0.015625)"/>
      <use xlink:href="#DejaVuSans-20" transform="translate(242.431641 0.015625)"/>
      <use xlink:href="#DejaVuSans-62" transform="translate(274.21875 0.015625)"/>
      <use xlink:href="#DejaVuSans-61" transform="translate(337.695312 0.015625)"/>
      <use xlink:href="#DejaVuSans-6e" transform="translate(398.974609 0.015625)"/>
      <use xlink:href="#DejaVuSans-64" transform="translate(462.353516 0.015625)"/>
     </g>
    </g>
    <g id="line2d_45">
     <path d="M 56.10125 41.245 
L 64.10125 41.245 
L 72.10125 41.245 
" style="fill: none"/>
     <defs>
      <path id="m4c0884d00e" d="M 0 3.5 
C 0.928211 3.5 1.81853 3.131218 2.474874 2.474874 
C 3.131218 1.81853 3.5 0.928211 3.5 0 
C 3.5 -0.928211 3.131218 -1.81853 2.474874 -2.474874 
C 1.81853 -3.131218 0.928211 -3.5 0 -3.5 
C -0.928211 -3.5 -1.81853 -3.131218 -2.474874 -2.474874 
C -3.131218 -1.81853 -3.5 -0.928211 -3.5 0 
C -3.5 0.928211 -3.131218 1.81853 -2.474874 2.474874 
C -1.81853 3.131218 -0.928211 3.5 0 3.5 
z
" style="stroke: #ffffff; stroke-width: 0.5"/>
     </defs>
     <g>
      <use xlink:href="#m4c0884d00e" x="64.10125" y="41.245" style="fill: #0b5ed7; stroke: #ffffff; stroke-width: 0.5"/>
     </g>
    </g>
    <g id="text_17">
     <!-- $\beta=0.30$ -->
     <g transform="translate(78.50125 44.045) scale(0.08 -0.08)">
      <use xlink:href="#DejaVuSans-Oblique-3b2" transform="translate(0 0.390625)"/>
      <use xlink:href="#DejaVuSans-3d" transform="translate(83.300781 0.390625)"/>
      <use xlink:href="#DejaVuSans-30" transform="translate(186.572266 0.390625)"/>
      <use xlink:href="#DejaVuSans-2e" transform="translate(250.195312 0.390625)"/>
      <use xlink:href="#DejaVuSans-33" transform="translate(281.982422 0.390625)"/>
      <use xlink:href="#DejaVuSans-30" transform="translate(345.605469 0.390625)"/>
     </g>
    </g>
    <g id="line2d_46">
     <path d="M 56.10125 53.085 
L 64.10125 53.085 
L 72.10125 53.085 
" style="fill: none"/>
     <defs>
      <path id="m7779df74a7" d="M -3.5 3.5 
L 3.5 3.5 
L 3.5 -3.5 
L -3.5 -3.5 
z
" style="stroke: #ffffff; stroke-width: 0.5; stroke-linejoin: miter"/>
     </defs>
     <g>
      <use xlink:href="#m7779df74a7" x="64.10125" y="53.085" style="fill: #6c757d; stroke: #ffffff; stroke-width: 0.5; stroke-linejoin: miter"/>
     </g>
    </g>
    <g id="text_18">
     <!-- $\beta=0.375$ -->
     <g transform="translate(78.50125 55.885) scale(0.08 -0.08)">
      <use xlink:href="#DejaVuSans-Oblique-3b2" transform="translate(0 0.390625)"/>
      <use xlink:href="#DejaVuSans-3d" transform="translate(83.300781 0.390625)"/>
      <use xlink:href="#DejaVuSans-30" transform="translate(186.572266 0.390625)"/>
      <use xlink:href="#DejaVuSans-2e" transform="translate(250.195312 0.390625)"/>
      <use xlink:href="#DejaVuSans-33" transform="translate(281.982422 0.390625)"/>
      <use xlink:href="#DejaVuSans-37" transform="translate(345.605469 0.390625)"/>
      <use xlink:href="#DejaVuSans-35" transform="translate(409.228516 0.390625)"/>
     </g>
    </g>
    <g id="line2d_47">
     <path d="M 56.10125 64.925 
L 64.10125 64.925 
L 72.10125 64.925 
" style="fill: none"/>
     <defs>
      <path id="mde8cb3aaf7" d="M 0 -3.5 
L -3.5 3.5 
L 3.5 3.5 
z
" style="stroke: #ffffff; stroke-width: 0.5; stroke-linejoin: miter"/>
     </defs>
     <g>
      <use xlink:href="#mde8cb3aaf7" x="64.10125" y="64.925" style="fill: #dc3545; stroke: #ffffff; stroke-width: 0.5; stroke-linejoin: miter"/>
     </g>
    </g>
    <g id="text_19">
     <!-- $\beta=0.50$ -->
     <g transform="translate(78.50125 67.725) scale(0.08 -0.08)">
      <use xlink:href="#DejaVuSans-Oblique-3b2" transform="translate(0 0.390625)"/>
      <use xlink:href="#DejaVuSans-3d" transform="translate(83.300781 0.390625)"/>
      <use xlink:href="#DejaVuSans-30" transform="translate(186.572266 0.390625)"/>
      <use xlink:href="#DejaVuSans-2e" transform="translate(250.195312 0.390625)"/>
      <use xlink:href="#DejaVuSans-35" transform="translate(281.982422 0.390625)"/>
      <use xlink:href="#DejaVuSans-30" transform="translate(345.605469 0.390625)"/>
     </g>
    </g>
    <g id="line2d_48">
     <path d="M 56.10125 76.765 
L 64.10125 76.765 
L 72.10125 76.765 
" style="fill: none"/>
     <defs>
      <path id="mf289516c2e" d="M 0 4.949747 
L 4.949747 0 
L 0 -4.949747 
L -4.949747 0 
z
" style="stroke: #ffffff; stroke-width: 0.5; stroke-linejoin: miter"/>
     </defs>
     <g>
      <use xlink:href="#mf289516c2e" x="64.10125" y="76.765" style="fill: #198754; stroke: #ffffff; stroke-width: 0.5; stroke-linejoin: miter"/>
     </g>
    </g>
    <g id="text_20">
     <!-- $\beta=0.60$ -->
     <g transform="translate(78.50125 79.565) scale(0.08 -0.08)">
      <use xlink:href="#DejaVuSans-Oblique-3b2" transform="translate(0 0.390625)"/>
      <use xlink:href="#DejaVuSans-3d" transform="translate(83.300781 0.390625)"/>
      <use xlink:href="#DejaVuSans-30" transform="translate(186.572266 0.390625)"/>
      <use xlink:href="#DejaVuSans-2e" transform="translate(250.195312 0.390625)"/>
      <use xlink:href="#DejaVuSans-36" transform="translate(281.982422 0.390625)"/>
      <use xlink:href="#DejaVuSans-30" transform="translate(345.605469 0.390625)"/>
     </g>
    </g>
   </g>
   <g id="line2d_49">
    <defs>
     <path id="m3e82b276c2" d="M 0 4 
C 1.060812 4 2.078319 3.578535 2.828427 2.828427 
C 3.578535 2.078319 4 1.060812 4 0 
C 4 -1.060812 3.578535 -2.078319 2.828427 -2.828427 
C 2.078319 -3.578535 1.060812 -4 0 -4 
C -1.060812 -4 -2.078319 -3.578535 -2.828427 -2.828427 
C -3.578535 -2.078319 -4 -1.060812 -4 0 
C -4 1.060812 -3.578535 2.078319 -2.828427 2.828427 
C -2.078319 3.578535 -1.060812 4 0 4 
z
" style="stroke: #ffffff; stroke-width: 0.5"/>
    </defs>
    <g clip-path="url(#pb45cca3eed)">
     <use xlink:href="#m3e82b276c2" x="133.489712" y="215.610526" style="fill: #0b5ed7; stroke: #ffffff; stroke-width: 0.5"/>
    </g>
   </g>
   <g id="line2d_50">
    <defs>
     <path id="m6406a808af" d="M -4 4 
L 4 4 
L 4 -4 
L -4 -4 
z
" style="stroke: #ffffff; stroke-width: 0.5; stroke-linejoin: miter"/>
    </defs>
    <g clip-path="url(#pb45cca3eed)">
     <use xlink:href="#m6406a808af" x="196.931058" y="167.515789" style="fill: #6c757d; stroke: #ffffff; stroke-width: 0.5; stroke-linejoin: miter"/>
    </g>
   </g>
   <g id="line2d_51">
    <defs>
     <path id="m9ba95ed015" d="M 0 -4 
L -4 4 
L 4 4 
z
" style="stroke: #ffffff; stroke-width: 0.5; stroke-linejoin: miter"/>
    </defs>
    <g clip-path="url(#pb45cca3eed)">
     <use xlink:href="#m9ba95ed015" x="302.666635" y="71.326316" style="fill: #dc3545; stroke: #ffffff; stroke-width: 0.5; stroke-linejoin: miter"/>
    </g>
   </g>
   <g id="line2d_52">
    <defs>
     <path id="m65d1b418e9" d="M 0 -4 
L -4 4 
L 4 4 
z
" style="stroke: #dc3545; stroke-width: 1.5; stroke-linejoin: miter"/>
    </defs>
    <g clip-path="url(#pb45cca3eed)">
     <use xlink:href="#m65d1b418e9" x="302.666635" y="87.357895" style="fill: #ffffff; stroke: #dc3545; stroke-width: 1.5; stroke-linejoin: miter"/>
    </g>
   </g>
   <g id="line2d_53">
    <defs>
     <path id="mce8f0b102b" d="M 0 5.656854 
L 5.656854 0 
L 0 -5.656854 
L -5.656854 0 
z
" style="stroke: #198754; stroke-width: 1.5; stroke-linejoin: miter"/>
    </defs>
    <g clip-path="url(#pb45cca3eed)">
     <use xlink:href="#mce8f0b102b" x="387.255096" y="103.389474" style="fill: #ffffff; stroke: #198754; stroke-width: 1.5; stroke-linejoin: miter"/>
    </g>
   </g>
  </g>
 </g>
 <defs>
  <clipPath id="pb45cca3eed">
   <rect x="48.90125" y="7.2" width="439.86" height="304.6"/>
  </clipPath>
 </defs>
</svg>
