<?xml version="1.0" encoding="utf-8" standalone="no"?>
<!DOCTYPE svg PUBLIC "-//W3C//DTD SVG 1.1//EN"
  "http://www.w3.org/Graphics/SVG/1.1/DTD/svg11.dtd">
<svg xmlns:xlink="http://www.w3.org/1999/xlink" width="531.539375pt" height="352.051875pt" viewBox="0 0 531.539375 352.051875" xmlns="http://www.w3.org/2000/svg" version="1.1">
 <metadata>
  <rdf:RDF xmlns:dc="http://purl.org/dc/elements/1.1/" xmlns:cc="http://creativecommons.org/ns#" xmlns:rdf="http://www.w3.org/1999/02/22-rdf-syntax-ns#">
   <cc:Work>
    <dc:type rdf:resource="http://purl.org/dc/dcmitype/StillImage"/>
    <dc:date>2026-04-07T17:25:25.677980</dc:date>
    <dc:format>image/svg+xml</dc:format>
    <dc:creator>
     <cc:Agent>
      <dc:title>Matplotlib v3.10.7, https://matplotlib.org/</dc:title>
     </cc:Agent>
    </dc:creator>
   </cc:Work>
  </rdf:RDF>
 </metadata>
 <defs>
  <style type="text/css">*{stroke-linejoin: round; stroke-linecap: butt}</style>
 </defs>
 <g id="figure_1">
  <g id="patch_1">
   <path d="M 0 352.051875 
L 531.539375 352.051875 
L 531.539375 0 
L 0 0 
z
" style="fill: #ffffff"/>
  </g>
  <g id="axes_1">
   <g id="patch_2">
    <path d="M 52.079375 312.56 
L 524.339375 312.56 
L 524.339375 7.2 
L 52.079375 7.2 
z
" style="fill: #ffffff"/>
   </g>
   <g id="matplotlib.axis_1">
    <g id="xtick_1">
     <g id="line2d_1">
      <path d="M 73.545739 312.56 
L 73.545739 7.2 
" clip-path="url(#p80f5cdbd37)" style="fill: none; stroke-dasharray: 1.85,0.8; stroke-dashoffset: 0; stroke: #b0b0b0; stroke-opacity: 0.5; stroke-width: 0.5"/>
     </g>
     <g id="line2d_2">
      <defs>
       <path id="md0aab44e0b" d="M 0 0 
L 0 3.5 
" style="stroke: #000000; stroke-width: 0.8"/>
      </defs>
      <g>
       <use xlink:href="#md0aab44e0b" x="73.545739" y="312.56" style="stroke: #000000; stroke-width: 0.8"/>
      </g>
     </g>
     <g id="text_1">
      <!-- 90 -->
      <g transform="translate(67.183239 327.158437) scale(0.1 -0.1)">
       <defs>
        <path id="DejaVuSans-39" d="M 703 97 
L 703 672 
Q 941 559 1184 500 
Q 1428 441 1663 441 
Q 2288 441 2617 861 
Q 2947 1281 2994 2138 
Q 2813 1869 2534 1725 
Q 2256 1581 1919 1581 
Q 1219 1581 811 2004 
Q 403 2428 403 3163 
Q 403 3881 828 4315 
Q 1253 4750 1959 4750 
Q 2769 4750 3195 4129 
Q 3622 3509 3622 2328 
Q 3622 1225 3098 567 
Q 2575 -91 1691 -91 
Q 1453 -91 1209 -44 
Q 966 3 703 97 
z
M 1959 2075 
Q 2384 2075 2632 2365 
Q 2881 2656 2881 3163 
Q 2881 3666 2632 3958 
Q 2384 4250 1959 4250 
Q 1534 4250 1286 3958 
Q 1038 3666 1038 3163 
Q 1038 2656 1286 2365 
Q 1534 2075 1959 2075 
z
" transform="scale(0.015625)"/>
        <path id="DejaVuSans-30" d="M 2034 4250 
Q 1547 4250 1301 3770 
Q 1056 3291 1056 2328 
Q 1056 1369 1301 889 
Q 1547 409 2034 409 
Q 2525 409 2770 889 
Q 3016 1369 3016 2328 
Q 3016 3291 2770 3770 
Q 2525 4250 2034 4250 
z
M 2034 4750 
Q 2819 4750 3233 4129 
Q 3647 3509 3647 2328 
Q 3647 1150 3233 529 
Q 2819 -91 2034 -91 
Q 1250 -91 836 529 
Q 422 1150 422 2328 
Q 422 3509 836 4129 
Q 1250 4750 2034 4750 
z
" transform="scale(0.015625)"/>
       </defs>
       <use xlink:href="#DejaVuSans-39"/>
       <use xlink:href="#DejaVuSans-30" transform="translate(63.623047 0)"/>
      </g>
     </g>
    </g>
    <g id="xtick_2">
     <g id="line2d_3">
      <path d="M 159.411193 312.56 
L 159.411193 7.2 
" clip-path="url(#p80f5cdbd37)" style="fill: none; stroke-dasharray: 1.85,0.8; stroke-dashoffset: 0; stroke: #b0b0b0; stroke-opacity: 0.5; stroke-width: 0.5"/>
     </g>
     <g id="line2d_4">
      <g>
       <use xlink:href="#md0aab44e0b" x="159.411193" y="312.56" style="stroke: #000000; stroke-width: 0.8"/>
      </g>
     </g>
     <g id="text_2">
      <!-- 100 -->
      <g transform="translate(149.867443 327.158437) scale(0.1 -0.1)">
       <defs>
        <path id="DejaVuSans-31" d="M 794 531 
L 1825 531 
L 1825 4091 
L 703 3866 
L 703 4441 
L 1819 4666 
L 2450 4666 
L 2450 531 
L 3481 531 
L 3481 0 
L 794 0 
L 794 531 
z
" transform="scale(0.015625)"/>
       </defs>
       <use xlink:href="#DejaVuSans-31"/>
       <use xlink:href="#DejaVuSans-30" transform="translate(63.623047 0)"/>
       <use xlink:href="#DejaVuSans-30" transform="translate(127.246094 0)"/>
      </g>
     </g>
    </g>
    <g id="xtick_3">
     <g id="line2d_5">
      <path d="M 245.276648 312.56 
L 245.276648 7.2 
" clip-path="url(#p80f5cdbd37)" style="fill: none; stroke-dasharray: 1.85,0.8; stroke-dashoffset: 0; stroke: #b0b0b0; stroke-opacity: 0.5; stroke-width: 0.5"/>
     </g>
     <g id="line2d_6">
      <g>
       <use xlink:href="#md0aab44e0b" x="245.276648" y="312.56" style="stroke: #000000; stroke-width: 0.8"/>
      </g>
     </g>
     <g id="text_3">
      <!-- 110 -->
      <g transform="translate(235.732898 327.158437) scale(0.1 -0.1)">
       <use xlink:href="#DejaVuSans-31"/>
       <use xlink:href="#DejaVuSans-31" transform="translate(63.623047 0)"/>
       <use xlink:href="#DejaVuSans-30" transform="translate(127.246094 0)"/>
      </g>
     </g>
    </g>
    <g id="xtick_4">
     <g id="line2d_7">
      <path d="M 331.142102 312.56 
L 331.142102 7.2 
" clip-path="url(#p80f5cdbd37)" style="fill: none; stroke-dasharray: 1.85,0.8; stroke-dashoffset: 0; stroke: #b0b0b0; stroke-opacity: 0.5; stroke-width: 0.5"/>
     </g>
     <g id="line2d_8">
      <g>
       <use xlink:href="#md0aab44e0b" x="331.142102" y="312.56" style="stroke: #000000; stroke-width: 0.8"/>
      </g>
     </g>
     <g id="text_4">
      <!-- 120 -->
      <g transform="translate(321.598352 327.158437) scale(0.1 -0.1)">
       <defs>
        <path id="DejaVuSans-32" d="M 1228 531 
L 3431 531 
L 3431 0 
L 469 0 
L 469 531 
Q 828 903 1448 1529 
Q 2069 2156 2228 2338 
Q 2531 2678 2651 2914 
Q 2772 3150 2772 3378 
Q 2772 3750 2511 3984 
Q 2250 4219 1831 4219 
Q 1534 4219 1204 4116 
Q 875 4013 500 3803 
L 500 4441 
Q 881 4594 1212 4672 
Q 1544 4750 1819 4750 
Q 2544 4750 2975 4387 
Q 3406 4025 3406 3419 
Q 3406 3131 3298 2873 
Q 3191 2616 2906 2266 
Q 2828 2175 2409 1742 
Q 1991 1309 1228 531 
z
" transform="scale(0.015625)"/>
       </defs>
       <use xlink:href="#DejaVuSans-31"/>
       <use xlink:href="#DejaVuSans-32" transform="translate(63.623047 0)"/>
       <use xlink:href="#DejaVuSans-30" transform="translate(127.246094 0)"/>
      </g>
     </g>
    </g>
    <g id="xtick_5">
     <g id="line2d_9">
      <path d="M 417.007557 312.56 
L 417.007557 7.2 
" clip-path="url(#p80f5cdbd37)" style="fill: none; stroke-dasharray: 1.85,0.8; stroke-dashoffset: 0; stroke: #b0b0b0; stroke-opacity: 0.5; stroke-width: 0.5"/>
     </g>
     <g id="line2d_10">
      <g>
       <use xlink:href="#md0aab44e0b" x="417.007557" y="312.56" style="stroke: #000000; stroke-width: 0.8"/>
      </g>
     </g>
     <g id="text_5">
      <!-- 130 -->
      <g transform="translate(407.463807 327.158437) scale(0.1 -0.1)">
       <defs>
        <path id="DejaVuSans-33" d="M 2597 2516 
Q 3050 2419 3304 2112 
Q 3559 1806 3559 1356 
Q 3559 666 3084 287 
Q 2609 -91 1734 -91 
Q 1441 -91 1130 -33 
Q 819 25 488 141 
L 488 750 
Q 750 597 1062 519 
Q 1375 441 1716 441 
Q 2309 441 2620 675 
Q 2931 909 2931 1356 
Q 2931 1769 2642 2001 
Q 2353 2234 1838 2234 
L 1294 2234 
L 1294 2753 
L 1863 2753 
Q 2328 2753 2575 2939 
Q 2822 3125 2822 3475 
Q 2822 3834 2567 4026 
Q 2313 4219 1838 4219 
Q 1578 4219 1281 4162 
Q 984 4106 628 3988 
L 628 4550 
Q 988 4650 1302 4700 
Q 1616 4750 1894 4750 
Q 2613 4750 3031 4423 
Q 3450 4097 3450 3541 
Q 3450 3153 3228 2886 
Q 3006 2619 2597 2516 
z
" transform="scale(0.015625)"/>
       </defs>
       <use xlink:href="#DejaVuSans-31"/>
       <use xlink:href="#DejaVuSans-33" transform="translate(63.623047 0)"/>
       <use xlink:href="#DejaVuSans-30" transform="translate(127.246094 0)"/>
      </g>
     </g>
    </g>
    <g id="xtick_6">
     <g id="line2d_11">
      <path d="M 502.873011 312.56 
L 502.873011 7.2 
" clip-path="url(#p80f5cdbd37)" style="fill: none; stroke-dasharray: 1.85,0.8; stroke-dashoffset: 0; stroke: #b0b0b0; stroke-opacity: 0.5; stroke-width: 0.5"/>
     </g>
     <g id="line2d_12">
      <g>
       <use xlink:href="#md0aab44e0b" x="502.873011" y="312.56" style="stroke: #000000; stroke-width: 0.8"/>
      </g>
     </g>
     <g id="text_6">
      <!-- 140 -->
      <g transform="translate(493.329261 327.158437) scale(0.1 -0.1)">
       <defs>
        <path id="DejaVuSans-34" d="M 2419 4116 
L 825 1625 
L 2419 1625 
L 2419 4116 
z
M 2253 4666 
L 3047 4666 
L 3047 1625 
L 3713 1625 
L 3713 1100 
L 3047 1100 
L 3047 0 
L 2419 0 
L 2419 1100 
L 313 1100 
L 313 1709 
L 2253 4666 
z
" transform="scale(0.015625)"/>
       </defs>
       <use xlink:href="#DejaVuSans-31"/>
       <use xlink:href="#DejaVuSans-34" transform="translate(63.623047 0)"/>
       <use xlink:href="#DejaVuSans-30" transform="translate(127.246094 0)"/>
      </g>
     </g>
    </g>
    <g id="xtick_7">
     <g id="line2d_13">
      <path d="M 116.478466 312.56 
L 116.478466 7.2 
" clip-path="url(#p80f5cdbd37)" style="fill: none; stroke-dasharray: 0.3,0.495; stroke-dashoffset: 0; stroke: #b0b0b0; stroke-opacity: 0.3; stroke-width: 0.3"/>
     </g>
     <g id="line2d_14">
      <defs>
       <path id="mff4b89f86b" d="M 0 0 
L 0 2 
" style="stroke: #000000; stroke-width: 0.6"/>
      </defs>
      <g>
       <use xlink:href="#mff4b89f86b" x="116.478466" y="312.56" style="stroke: #000000; stroke-width: 0.6"/>
      </g>
     </g>
    </g>
    <g id="xtick_8">
     <g id="line2d_15">
      <path d="M 202.34392 312.56 
L 202.34392 7.2 
" clip-path="url(#p80f5cdbd37)" style="fill: none; stroke-dasharray: 0.3,0.495; stroke-dashoffset: 0; stroke: #b0b0b0; stroke-opacity: 0.3; stroke-width: 0.3"/>
     </g>
     <g id="line2d_16">
      <g>
       <use xlink:href="#mff4b89f86b" x="202.34392" y="312.56" style="stroke: #000000; stroke-width: 0.6"/>
      </g>
     </g>
    </g>
    <g id="xtick_9">
     <g id="line2d_17">
      <path d="M 288.209375 312.56 
L 288.209375 7.2 
" clip-path="url(#p80f5cdbd37)" style="fill: none; stroke-dasharray: 0.3,0.495; stroke-dashoffset: 0; stroke: #b0b0b0; stroke-opacity: 0.3; stroke-width: 0.3"/>
     </g>
     <g id="line2d_18">
      <g>
       <use xlink:href="#mff4b89f86b" x="288.209375" y="312.56" style="stroke: #000000; stroke-width: 0.6"/>
      </g>
     </g>
    </g>
    <g id="xtick_10">
     <g id="line2d_19">
      <path d="M 374.07483 312.56 
L 374.07483 7.2 
" clip-path="url(#p80f5cdbd37)" style="fill: none; stroke-dasharray: 0.3,0.495; stroke-dashoffset: 0; stroke: #b0b0b0; stroke-opacity: 0.3; stroke-width: 0.3"/>
     </g>
     <g id="line2d_20">
      <g>
       <use xlink:href="#mff4b89f86b" x="374.07483" y="312.56" style="stroke: #000000; stroke-width: 0.6"/>
      </g>
     </g>
    </g>
    <g id="xtick_11">
     <g id="line2d_21">
      <path d="M 459.940284 312.56 
L 459.940284 7.2 
" clip-path="url(#p80f5cdbd37)" style="fill: none; stroke-dasharray: 0.3,0.495; stroke-dashoffset: 0; stroke: #b0b0b0; stroke-opacity: 0.3; stroke-width: 0.3"/>
     </g>
     <g id="line2d_22">
      <g>
       <use xlink:href="#mff4b89f86b" x="459.940284" y="312.56" style="stroke: #000000; stroke-width: 0.6"/>
      </g>
     </g>
    </g>
    <g id="text_7">
     <!-- $Re = U_\mathrm{max}\,D/\nu$ -->
     <g transform="translate(248.309375 342.35625) scale(0.12 -0.12)">
      <defs>
       <path id="DejaVuSans-Oblique-52" d="M 1613 4147 
L 1294 2491 
L 2106 2491 
Q 2584 2491 2879 2755 
Q 3175 3019 3175 3444 
Q 3175 3784 2976 3965 
Q 2778 4147 2406 4147 
L 1613 4147 
z
M 2772 2241 
Q 2972 2194 3105 2009 
Q 3238 1825 3413 1275 
L 3809 0 
L 3144 0 
L 2778 1197 
Q 2638 1659 2453 1815 
Q 2269 1972 1888 1972 
L 1191 1972 
L 806 0 
L 172 0 
L 1081 4666 
L 2503 4666 
Q 3150 4666 3495 4373 
Q 3841 4081 3841 3531 
Q 3841 3044 3547 2687 
Q 3253 2331 2772 2241 
z
" transform="scale(0.015625)"/>
       <path id="DejaVuSans-Oblique-65" d="M 3078 2063 
Q 3088 2113 3092 2166 
Q 3097 2219 3097 2272 
Q 3097 2653 2873 2875 
Q 2650 3097 2266 3097 
Q 1838 3097 1509 2826 
Q 1181 2556 1013 2059 
L 3078 2063 
z
M 3578 1613 
L 903 1613 
Q 884 1494 878 1425 
Q 872 1356 872 1306 
Q 872 872 1139 634 
Q 1406 397 1894 397 
Q 2269 397 2603 481 
Q 2938 566 3225 728 
L 3116 159 
Q 2806 34 2476 -28 
Q 2147 -91 1806 -91 
Q 1078 -91 686 257 
Q 294 606 294 1247 
Q 294 1794 489 2264 
Q 684 2734 1063 3103 
Q 1306 3334 1642 3459 
Q 1978 3584 2356 3584 
Q 2950 3584 3301 3228 
Q 3653 2872 3653 2272 
Q 3653 2128 3634 1964 
Q 3616 1800 3578 1613 
z
" transform="scale(0.015625)"/>
       <path id="DejaVuSans-3d" d="M 678 2906 
L 4684 2906 
L 4684 2381 
L 678 2381 
L 678 2906 
z
M 678 1631 
L 4684 1631 
L 4684 1100 
L 678 1100 
L 678 1631 
z
" transform="scale(0.015625)"/>
       <path id="DejaVuSans-Oblique-55" d="M 991 4666 
L 1625 4666 
L 1075 1831 
Q 1041 1641 1027 1517 
Q 1013 1394 1013 1300 
Q 1013 869 1253 645 
Q 1494 422 1959 422 
Q 2563 422 2898 753 
Q 3234 1084 3378 1831 
L 3928 4666 
L 4563 4666 
L 4000 1753 
Q 3816 809 3300 359 
Q 2784 -91 1888 -91 
Q 1188 -91 780 261 
Q 372 613 372 1216 
Q 372 1325 387 1461 
Q 403 1597 434 1753 
L 991 4666 
z
" transform="scale(0.015625)"/>
       <path id="DejaVuSans-6d" d="M 3328 2828 
Q 3544 3216 3844 3400 
Q 4144 3584 4550 3584 
Q 5097 3584 5394 3201 
Q 5691 2819 5691 2113 
L 5691 0 
L 5113 0 
L 5113 2094 
Q 5113 2597 4934 2840 
Q 4756 3084 4391 3084 
Q 3944 3084 3684 2787 
Q 3425 2491 3425 1978 
L 3425 0 
L 2847 0 
L 2847 2094 
Q 2847 2600 2669 2842 
Q 2491 3084 2119 3084 
Q 1678 3084 1418 2786 
Q 1159 2488 1159 1978 
L 1159 0 
L 581 0 
L 581 3500 
L 1159 3500 
L 1159 2956 
Q 1356 3278 1631 3431 
Q 1906 3584 2284 3584 
Q 2666 3584 2933 3390 
Q 3200 3197 3328 2828 
z
" transform="scale(0.015625)"/>
       <path id="DejaVuSans-61" d="M 2194 1759 
Q 1497 1759 1228 1600 
Q 959 1441 959 1056 
Q 959 750 1161 570 
Q 1363 391 1709 391 
Q 2188 391 2477 730 
Q 2766 1069 2766 1631 
L 2766 1759 
L 2194 1759 
z
M 3341 1997 
L 3341 0 
L 2766 0 
L 2766 531 
Q 2569 213 2275 61 
Q 1981 -91 1556 -91 
Q 1019 -91 701 211 
Q 384 513 384 1019 
Q 384 1609 779 1909 
Q 1175 2209 1959 2209 
L 2766 2209 
L 2766 2266 
Q 2766 2663 2505 2880 
Q 2244 3097 1772 3097 
Q 1472 3097 1187 3025 
Q 903 2953 641 2809 
L 641 3341 
Q 956 3463 1253 3523 
Q 1550 3584 1831 3584 
Q 2591 3584 2966 3190 
Q 3341 2797 3341 1997 
z
" transform="scale(0.015625)"/>
       <path id="DejaVuSans-78" d="M 3513 3500 
L 2247 1797 
L 3578 0 
L 2900 0 
L 1881 1375 
L 863 0 
L 184 0 
L 1544 1831 
L 300 3500 
L 978 3500 
L 1906 2253 
L 2834 3500 
L 3513 3500 
z
" transform="scale(0.015625)"/>
       <path id="DejaVuSans-Oblique-44" d="M 1081 4666 
L 2438 4666 
Q 3519 4666 4070 4208 
Q 4622 3750 4622 2847 
Q 4622 2250 4412 1698 
Q 4203 1147 3834 769 
Q 3463 381 2891 190 
Q 2319 0 1538 0 
L 172 0 
L 1081 4666 
z
M 1613 4147 
L 909 519 
L 1734 519 
Q 2794 519 3375 1128 
Q 3956 1738 3956 2847 
Q 3956 3519 3581 3833 
Q 3206 4147 2406 4147 
L 1613 4147 
z
" transform="scale(0.015625)"/>
       <path id="DejaVuSans-2f" d="M 1625 4666 
L 2156 4666 
L 531 -594 
L 0 -594 
L 1625 4666 
z
" transform="scale(0.015625)"/>
       <path id="DejaVuSans-Oblique-3bd" d="M 959 0 
L 572 3500 
L 1191 3500 
L 1522 563 
Q 1972 950 2391 1488 
Q 2706 1891 2788 2241 
Q 2825 2406 2809 2719 
Q 2794 3091 2544 3500 
L 3125 3500 
L 3125 3500 
Q 3288 3222 3353 2834 
Q 3416 2478 3369 2234 
Q 3250 1622 2719 1075 
Q 2025 363 1572 0 
L 959 0 
z
" transform="scale(0.015625)"/>
      </defs>
      <use xlink:href="#DejaVuSans-Oblique-52" transform="translate(0 0.09375)"/>
      <use xlink:href="#DejaVuSans-Oblique-65" transform="translate(69.482422 0.09375)"/>
      <use xlink:href="#DejaVuSans-3d" transform="translate(150.488281 0.09375)"/>
      <use xlink:href="#DejaVuSans-Oblique-55" transform="translate(253.759766 0.09375)"/>
      <use xlink:href="#DejaVuSans-6d" transform="translate(326.953125 -16.3125) scale(0.7)"/>
      <use xlink:href="#DejaVuSans-61" transform="translate(395.141602 -16.3125) scale(0.7)"/>
      <use xlink:href="#DejaVuSans-78" transform="translate(438.037109 -16.3125) scale(0.7)"/>
      <use xlink:href="#DejaVuSans-Oblique-44" transform="translate(498.432942 0.09375)"/>
      <use xlink:href="#DejaVuSans-2f" transform="translate(575.434895 0.09375)"/>
      <use xlink:href="#DejaVuSans-Oblique-3bd" transform="translate(609.126301 0.09375)"/>
     </g>
    </g>
   </g>
   <g id="matplotlib.axis_2">
    <g id="ytick_1">
     <g id="line2d_23">
      <path d="M 52.079375 303.031944 
L 524.339375 303.031944 
" clip-path="url(#p80f5cdbd37)" style="fill: none; stroke-dasharray: 1.85,0.8; stroke-dashoffset: 0; stroke: #b0b0b0; stroke-opacity: 0.5; stroke-width: 0.5"/>
     </g>
     <g id="line2d_24">
      <defs>
       <path id="me075f4e623" d="M 0 0 
L -3.5 0 
" style="stroke: #000000; stroke-width: 0.8"/>
      </defs>
      <g>
       <use xlink:href="#me075f4e623" x="52.079375" y="303.031944" style="stroke: #000000; stroke-width: 0.8"/>
      </g>
     </g>
     <g id="text_8">
      <!-- 0.20 -->
      <g transform="translate(22.81375 306.831163) scale(0.1 -0.1)">
       <defs>
        <path id="DejaVuSans-2e" d="M 684 794 
L 1344 794 
L 1344 0 
L 684 0 
L 684 794 
z
" transform="scale(0.015625)"/>
       </defs>
       <use xlink:href="#DejaVuSans-30"/>
       <use xlink:href="#DejaVuSans-2e" transform="translate(63.623047 0)"/>
       <use xlink:href="#DejaVuSans-32" transform="translate(95.410156 0)"/>
       <use xlink:href="#DejaVuSans-30" transform="translate(159.033203 0)"/>
      </g>
     </g>
    </g>
    <g id="ytick_2">
     <g id="line2d_25">
      <path d="M 52.079375 235.838815 
L 524.339375 235.838815 
" clip-path="url(#p80f5cdbd37)" style="fill: none; stroke-dasharray: 1.85,0.8; stroke-dashoffset: 0; stroke: #b0b0b0; stroke-opacity: 0.5; stroke-width: 0.5"/>
     </g>
     <g id="line2d_26">
      <g>
       <use xlink:href="#me075f4e623" x="52.079375" y="235.838815" style="stroke: #000000; stroke-width: 0.8"/>
      </g>
     </g>
     <g id="text_9">
      <!-- 0.25 -->
      <g transform="translate(22.81375 239.638034) scale(0.1 -0.1)">
       <defs>
        <path id="DejaVuSans-35" d="M 691 4666 
L 3169 4666 
L 3169 4134 
L 1269 4134 
L 1269 2991 
Q 1406 3038 1543 3061 
Q 1681 3084 1819 3084 
Q 2600 3084 3056 2656 
Q 3513 2228 3513 1497 
Q 3513 744 3044 326 
Q 2575 -91 1722 -91 
Q 1428 -91 1123 -41 
Q 819 9 494 109 
L 494 744 
Q 775 591 1075 516 
Q 1375 441 1709 441 
Q 2250 441 2565 725 
Q 2881 1009 2881 1497 
Q 2881 1984 2565 2268 
Q 2250 2553 1709 2553 
Q 1456 2553 1204 2497 
Q 953 2441 691 2322 
L 691 4666 
z
" transform="scale(0.015625)"/>
       </defs>
       <use xlink:href="#DejaVuSans-30"/>
       <use xlink:href="#DejaVuSans-2e" transform="translate(63.623047 0)"/>
       <use xlink:href="#DejaVuSans-32" transform="translate(95.410156 0)"/>
       <use xlink:href="#DejaVuSans-35" transform="translate(159.033203 0)"/>
      </g>
     </g>
    </g>
    <g id="ytick_3">
     <g id="line2d_27">
      <path d="M 52.079375 168.645686 
L 524.339375 168.645686 
" clip-path="url(#p80f5cdbd37)" style="fill: none; stroke-dasharray: 1.85,0.8; stroke-dashoffset: 0; stroke: #b0b0b0; stroke-opacity: 0.5; stroke-width: 0.5"/>
     </g>
     <g id="line2d_28">
      <g>
       <use xlink:href="#me075f4e623" x="52.079375" y="168.645686" style="stroke: #000000; stroke-width: 0.8"/>
      </g>
     </g>
     <g id="text_10">
      <!-- 0.30 -->
      <g transform="translate(22.81375 172.444904) scale(0.1 -0.1)">
       <use xlink:href="#DejaVuSans-30"/>
       <use xlink:href="#DejaVuSans-2e" transform="translate(63.623047 0)"/>
       <use xlink:href="#DejaVuSans-33" transform="translate(95.410156 0)"/>
       <use xlink:href="#DejaVuSans-30" transform="translate(159.033203 0)"/>
      </g>
     </g>
    </g>
    <g id="ytick_4">
     <g id="line2d_29">
      <path d="M 52.079375 101.452556 
L 524.339375 101.452556 
" clip-path="url(#p80f5cdbd37)" style="fill: none; stroke-dasharray: 1.85,0.8; stroke-dashoffset: 0; stroke: #b0b0b0; stroke-opacity: 0.5; stroke-width: 0.5"/>
     </g>
     <g id="line2d_30">
      <g>
       <use xlink:href="#me075f4e623" x="52.079375" y="101.452556" style="stroke: #000000; stroke-width: 0.8"/>
      </g>
     </g>
     <g id="text_11">
      <!-- 0.35 -->
      <g transform="translate(22.81375 105.251775) scale(0.1 -0.1)">
       <use xlink:href="#DejaVuSans-30"/>
       <use xlink:href="#DejaVuSans-2e" transform="translate(63.623047 0)"/>
       <use xlink:href="#DejaVuSans-33" transform="translate(95.410156 0)"/>
       <use xlink:href="#DejaVuSans-35" transform="translate(159.033203 0)"/>
      </g>
     </g>
    </g>
    <g id="ytick_5">
     <g id="line2d_31">
      <path d="M 52.079375 34.259427 
L 524.339375 34.259427 
" clip-path="url(#p80f5cdbd37)" style="fill: none; stroke-dasharray: 1.85,0.8; stroke-dashoffset: 0; stroke: #b0b0b0; stroke-opacity: 0.5; stroke-width: 0.5"/>
     </g>
     <g id="line2d_32">
      <g>
       <use xlink:href="#me075f4e623" x="52.079375" y="34.259427" style="stroke: #000000; stroke-width: 0.8"/>
      </g>
     </g>
     <g id="text_12">
      <!-- 0.40 -->
      <g transform="translate(22.81375 38.058646) scale(0.1 -0.1)">
       <use xlink:href="#DejaVuSans-30"/>
       <use xlink:href="#DejaVuSans-2e" transform="translate(63.623047 0)"/>
       <use xlink:href="#DejaVuSans-34" transform="translate(95.410156 0)"/>
       <use xlink:href="#DejaVuSans-30" transform="translate(159.033203 0)"/>
      </g>
     </g>
    </g>
    <g id="ytick_6">
     <g id="line2d_33">
      <path d="M 52.079375 269.43538 
L 524.339375 269.43538 
" clip-path="url(#p80f5cdbd37)" style="fill: none; stroke-dasharray: 0.3,0.495; stroke-dashoffset: 0; stroke: #b0b0b0; stroke-opacity: 0.3; stroke-width: 0.3"/>
     </g>
     <g id="line2d_34">
      <defs>
       <path id="m4439332b1c" d="M 0 0 
L -2 0 
" style="stroke: #000000; stroke-width: 0.6"/>
      </defs>
      <g>
       <use xlink:href="#m4439332b1c" x="52.079375" y="269.43538" style="stroke: #000000; stroke-width: 0.6"/>
      </g>
     </g>
    </g>
    <g id="ytick_7">
     <g id="line2d_35">
      <path d="M 52.079375 202.24225 
L 524.339375 202.24225 
" clip-path="url(#p80f5cdbd37)" style="fill: none; stroke-dasharray: 0.3,0.495; stroke-dashoffset: 0; stroke: #b0b0b0; stroke-opacity: 0.3; stroke-width: 0.3"/>
     </g>
     <g id="line2d_36">
      <g>
       <use xlink:href="#m4439332b1c" x="52.079375" y="202.24225" style="stroke: #000000; stroke-width: 0.6"/>
      </g>
     </g>
    </g>
    <g id="ytick_8">
     <g id="line2d_37">
      <path d="M 52.079375 135.049121 
L 524.339375 135.049121 
" clip-path="url(#p80f5cdbd37)" style="fill: none; stroke-dasharray: 0.3,0.495; stroke-dashoffset: 0; stroke: #b0b0b0; stroke-opacity: 0.3; stroke-width: 0.3"/>
     </g>
     <g id="line2d_38">
      <g>
       <use xlink:href="#m4439332b1c" x="52.079375" y="135.049121" style="stroke: #000000; stroke-width: 0.6"/>
      </g>
     </g>
    </g>
    <g id="ytick_9">
     <g id="line2d_39">
      <path d="M 52.079375 67.855992 
L 524.339375 67.855992 
" clip-path="url(#p80f5cdbd37)" style="fill: none; stroke-dasharray: 0.3,0.495; stroke-dashoffset: 0; stroke: #b0b0b0; stroke-opacity: 0.3; stroke-width: 0.3"/>
     </g>
     <g id="line2d_40">
      <g>
       <use xlink:href="#m4439332b1c" x="52.079375" y="67.855992" style="stroke: #000000; stroke-width: 0.6"/>
      </g>
     </g>
    </g>
    <g id="text_13">
     <!-- $St = f\,D/U_\mathrm{max}$ -->
     <g transform="translate(16.318125 196.9) rotate(-90) scale(0.12 -0.12)">
      <defs>
       <path id="DejaVuSans-Oblique-53" d="M 3859 4513 
L 3738 3897 
Q 3422 4066 3111 4152 
Q 2800 4238 2509 4238 
Q 1944 4238 1609 3991 
Q 1275 3744 1275 3334 
Q 1275 3109 1398 2989 
Q 1522 2869 2034 2731 
L 2413 2638 
Q 3053 2472 3303 2217 
Q 3553 1963 3553 1503 
Q 3553 797 2998 353 
Q 2444 -91 1538 -91 
Q 1166 -91 791 -17 
Q 416 56 38 206 
L 166 856 
Q 513 641 861 531 
Q 1209 422 1556 422 
Q 2147 422 2503 684 
Q 2859 947 2859 1369 
Q 2859 1650 2717 1795 
Q 2575 1941 2106 2059 
L 1728 2156 
Q 1081 2325 845 2545 
Q 609 2766 609 3163 
Q 609 3859 1145 4304 
Q 1681 4750 2541 4750 
Q 2875 4750 3203 4690 
Q 3531 4631 3859 4513 
z
" transform="scale(0.015625)"/>
       <path id="DejaVuSans-Oblique-74" d="M 2706 3500 
L 2619 3053 
L 1472 3053 
L 1100 1153 
Q 1081 1047 1072 975 
Q 1063 903 1063 863 
Q 1063 663 1183 572 
Q 1303 481 1569 481 
L 2150 481 
L 2053 0 
L 1503 0 
Q 991 0 739 200 
Q 488 400 488 806 
Q 488 878 497 964 
Q 506 1050 525 1153 
L 897 3053 
L 409 3053 
L 500 3500 
L 978 3500 
L 1172 4494 
L 1747 4494 
L 1556 3500 
L 2706 3500 
z
" transform="scale(0.015625)"/>
       <path id="DejaVuSans-Oblique-66" d="M 3059 4863 
L 2969 4384 
L 2419 4384 
Q 2106 4384 1964 4261 
Q 1822 4138 1753 3809 
L 1691 3500 
L 2638 3500 
L 2553 3053 
L 1606 3053 
L 1013 0 
L 434 0 
L 1031 3053 
L 481 3053 
L 563 3500 
L 1113 3500 
L 1159 3744 
Q 1278 4363 1576 4613 
Q 1875 4863 2516 4863 
L 3059 4863 
z
" transform="scale(0.015625)"/>
      </defs>
      <use xlink:href="#DejaVuSans-Oblique-53" transform="translate(0 0.015625)"/>
      <use xlink:href="#DejaVuSans-Oblique-74" transform="translate(63.476562 0.015625)"/>
      <use xlink:href="#DejaVuSans-3d" transform="translate(122.167969 0.015625)"/>
      <use xlink:href="#DejaVuSans-Oblique-66" transform="translate(225.439453 0.015625)"/>
      <use xlink:href="#DejaVuSans-Oblique-44" transform="translate(276.880208 0.015625)"/>
      <use xlink:href="#DejaVuSans-2f" transform="translate(353.882161 0.015625)"/>
      <use xlink:href="#DejaVuSans-Oblique-55" transform="translate(387.573567 0.015625)"/>
      <use xlink:href="#DejaVuSans-6d" transform="translate(460.766926 -16.390625) scale(0.7)"/>
      <use xlink:href="#DejaVuSans-61" transform="translate(528.955403 -16.390625) scale(0.7)"/>
      <use xlink:href="#DejaVuSans-78" transform="translate(571.850911 -16.390625) scale(0.7)"/>
     </g>
    </g>
   </g>
   <g id="patch_3">
    <path d="M 52.079375 312.56 
L 52.079375 7.2 
" style="fill: none; stroke: #000000; stroke-width: 0.8; stroke-linejoin: miter; stroke-linecap: square"/>
   </g>
   <g id="patch_4">
    <path d="M 524.339375 312.56 
L 524.339375 7.2 
" style="fill: none; stroke: #000000; stroke-width: 0.8; stroke-linejoin: miter; stroke-linecap: square"/>
   </g>
   <g id="patch_5">
    <path d="M 52.079375 312.56 
L 524.339375 312.56 
" style="fill: none; stroke: #000000; stroke-width: 0.8; stroke-linejoin: miter; stroke-linecap: square"/>
   </g>
   <g id="patch_6">
    <path d="M 52.079375 7.2 
L 524.339375 7.2 
" style="fill: none; stroke: #000000; stroke-width: 0.8; stroke-linejoin: miter; stroke-linecap: square"/>
   </g>
   <g id="text_14">
    <g id="patch_7">
     <path d="M 364.771519 302.4456 
L 514.894175 302.4456 
Q 516.994175 302.4456 516.994175 300.3456 
L 516.994175 277.419287 
Q 516.994175 275.319287 514.894175 275.319287 
L 364.771519 275.319287 
Q 362.671519 275.319287 362.671519 277.419287 
L 362.671519 300.3456 
Q 362.671519 302.4456 364.771519 302.4456 
z
" style="fill: #ffffff; opacity: 0.8; stroke: #000000; stroke-linejoin: miter"/>
    </g>
    <!-- x markers: S&amp;O LSA onset (Re_crit, St_crit) -->
    <g transform="translate(364.771519 282.918662) scale(0.07 -0.07)">
     <defs>
      <path id="DejaVuSans-20" transform="scale(0.015625)"/>
      <path id="DejaVuSans-72" d="M 2631 2963 
Q 2534 3019 2420 3045 
Q 2306 3072 2169 3072 
Q 1681 3072 1420 2755 
Q 1159 2438 1159 1844 
L 1159 0 
L 581 0 
L 581 3500 
L 1159 3500 
L 1159 2956 
Q 1341 3275 1631 3429 
Q 1922 3584 2338 3584 
Q 2397 3584 2469 3576 
Q 2541 3569 2628 3553 
L 2631 2963 
z
" transform="scale(0.015625)"/>
      <path id="DejaVuSans-6b" d="M 581 4863 
L 1159 4863 
L 1159 1991 
L 2875 3500 
L 3609 3500 
L 1753 1863 
L 3688 0 
L 2938 0 
L 1159 1709 
L 1159 0 
L 581 0 
L 581 4863 
z
" transform="scale(0.015625)"/>
      <path id="DejaVuSans-65" d="M 3597 1894 
L 3597 1613 
L 953 1613 
Q 991 1019 1311 708 
Q 1631 397 2203 397 
Q 2534 397 2845 478 
Q 3156 559 3463 722 
L 3463 178 
Q 3153 47 2828 -22 
Q 2503 -91 2169 -91 
Q 1331 -91 842 396 
Q 353 884 353 1716 
Q 353 2575 817 3079 
Q 1281 3584 2069 3584 
Q 2775 3584 3186 3129 
Q 3597 2675 3597 1894 
z
M 3022 2063 
Q 3016 2534 2758 2815 
Q 2500 3097 2075 3097 
Q 1594 3097 1305 2825 
Q 1016 2553 972 2059 
L 3022 2063 
z
" transform="scale(0.015625)"/>
      <path id="DejaVuSans-73" d="M 2834 3397 
L 2834 2853 
Q 2591 2978 2328 3040 
Q 2066 3103 1784 3103 
Q 1356 3103 1142 2972 
Q 928 2841 928 2578 
Q 928 2378 1081 2264 
Q 1234 2150 1697 2047 
L 1894 2003 
Q 2506 1872 2764 1633 
Q 3022 1394 3022 966 
Q 3022 478 2636 193 
Q 2250 -91 1575 -91 
Q 1294 -91 989 -36 
Q 684 19 347 128 
L 347 722 
Q 666 556 975 473 
Q 1284 391 1588 391 
Q 1994 391 2212 530 
Q 2431 669 2431 922 
Q 2431 1156 2273 1281 
Q 2116 1406 1581 1522 
L 1381 1569 
Q 847 1681 609 1914 
Q 372 2147 372 2553 
Q 372 3047 722 3315 
Q 1072 3584 1716 3584 
Q 2034 3584 2315 3537 
Q 2597 3491 2834 3397 
z
" transform="scale(0.015625)"/>
      <path id="DejaVuSans-3a" d="M 750 794 
L 1409 794 
L 1409 0 
L 750 0 
L 750 794 
z
M 750 3309 
L 1409 3309 
L 1409 2516 
L 750 2516 
L 750 3309 
z
" transform="scale(0.015625)"/>
      <path id="DejaVuSans-53" d="M 3425 4513 
L 3425 3897 
Q 3066 4069 2747 4153 
Q 2428 4238 2131 4238 
Q 1616 4238 1336 4038 
Q 1056 3838 1056 3469 
Q 1056 3159 1242 3001 
Q 1428 2844 1947 2747 
L 2328 2669 
Q 3034 2534 3370 2195 
Q 3706 1856 3706 1288 
Q 3706 609 3251 259 
Q 2797 -91 1919 -91 
Q 1588 -91 1214 -16 
Q 841 59 441 206 
L 441 856 
Q 825 641 1194 531 
Q 1563 422 1919 422 
Q 2459 422 2753 634 
Q 3047 847 3047 1241 
Q 3047 1584 2836 1778 
Q 2625 1972 2144 2069 
L 1759 2144 
Q 1053 2284 737 2584 
Q 422 2884 422 3419 
Q 422 4038 858 4394 
Q 1294 4750 2059 4750 
Q 2388 4750 2728 4690 
Q 3069 4631 3425 4513 
z
" transform="scale(0.015625)"/>
      <path id="DejaVuSans-26" d="M 1556 2509 
Q 1272 2256 1139 2004 
Q 1006 1753 1006 1478 
Q 1006 1022 1337 719 
Q 1669 416 2169 416 
Q 2466 416 2725 514 
Q 2984 613 3213 813 
L 1556 2509 
z
M 1997 2859 
L 3584 1234 
Q 3769 1513 3872 1830 
Q 3975 2147 3994 2503 
L 4575 2503 
Q 4538 2091 4375 1687 
Q 4213 1284 3922 891 
L 4794 0 
L 4006 0 
L 3559 459 
Q 3234 181 2878 45 
Q 2522 -91 2113 -91 
Q 1359 -91 881 339 
Q 403 769 403 1441 
Q 403 1841 612 2192 
Q 822 2544 1241 2853 
Q 1091 3050 1012 3245 
Q 934 3441 934 3628 
Q 934 4134 1281 4442 
Q 1628 4750 2203 4750 
Q 2463 4750 2720 4694 
Q 2978 4638 3244 4525 
L 3244 3956 
Q 2972 4103 2725 4179 
Q 2478 4256 2266 4256 
Q 1938 4256 1733 4082 
Q 1528 3909 1528 3634 
Q 1528 3475 1620 3314 
Q 1713 3153 1997 2859 
z
" transform="scale(0.015625)"/>
      <path id="DejaVuSans-4f" d="M 2522 4238 
Q 1834 4238 1429 3725 
Q 1025 3213 1025 2328 
Q 1025 1447 1429 934 
Q 1834 422 2522 422 
Q 3209 422 3611 934 
Q 4013 1447 4013 2328 
Q 4013 3213 3611 3725 
Q 3209 4238 2522 4238 
z
M 2522 4750 
Q 3503 4750 4090 4092 
Q 4678 3434 4678 2328 
Q 4678 1225 4090 567 
Q 3503 -91 2522 -91 
Q 1538 -91 948 565 
Q 359 1222 359 2328 
Q 359 3434 948 4092 
Q 1538 4750 2522 4750 
z
" transform="scale(0.015625)"/>
      <path id="DejaVuSans-4c" d="M 628 4666 
L 1259 4666 
L 1259 531 
L 3531 531 
L 3531 0 
L 628 0 
L 628 4666 
z
" transform="scale(0.015625)"/>
      <path id="DejaVuSans-41" d="M 2188 4044 
L 1331 1722 
L 3047 1722 
L 2188 4044 
z
M 1831 4666 
L 2547 4666 
L 4325 0 
L 3669 0 
L 3244 1197 
L 1141 1197 
L 716 0 
L 50 0 
L 1831 4666 
z
" transform="scale(0.015625)"/>
      <path id="DejaVuSans-6f" d="M 1959 3097 
Q 1497 3097 1228 2736 
Q 959 2375 959 1747 
Q 959 1119 1226 758 
Q 1494 397 1959 397 
Q 2419 397 2687 759 
Q 2956 1122 2956 1747 
Q 2956 2369 2687 2733 
Q 2419 3097 1959 3097 
z
M 1959 3584 
Q 2709 3584 3137 3096 
Q 3566 2609 3566 1747 
Q 3566 888 3137 398 
Q 2709 -91 1959 -91 
Q 1206 -91 779 398 
Q 353 888 353 1747 
Q 353 2609 779 3096 
Q 1206 3584 1959 3584 
z
" transform="scale(0.015625)"/>
      <path id="DejaVuSans-6e" d="M 3513 2113 
L 3513 0 
L 2938 0 
L 2938 2094 
Q 2938 2591 2744 2837 
Q 2550 3084 2163 3084 
Q 1697 3084 1428 2787 
Q 1159 2491 1159 1978 
L 1159 0 
L 581 0 
L 581 3500 
L 1159 3500 
L 1159 2956 
Q 1366 3272 1645 3428 
Q 1925 3584 2291 3584 
Q 2894 3584 3203 3211 
Q 3513 2838 3513 2113 
z
" transform="scale(0.015625)"/>
      <path id="DejaVuSans-74" d="M 1172 4494 
L 1172 3500 
L 2356 3500 
L 2356 3053 
L 1172 3053 
L 1172 1153 
Q 1172 725 1289 603 
Q 1406 481 1766 481 
L 2356 481 
L 2356 0 
L 1766 0 
Q 1100 0 847 248 
Q 594 497 594 1153 
L 594 3053 
L 172 3053 
L 172 3500 
L 594 3500 
L 594 4494 
L 1172 4494 
z
" transform="scale(0.015625)"/>
      <path id="DejaVuSans-28" d="M 1984 4856 
Q 1566 4138 1362 3434 
Q 1159 2731 1159 2009 
Q 1159 1288 1364 580 
Q 1569 -128 1984 -844 
L 1484 -844 
Q 1016 -109 783 600 
Q 550 1309 550 2009 
Q 550 2706 781 3412 
Q 1013 4119 1484 4856 
L 1984 4856 
z
" transform="scale(0.015625)"/>
      <path id="DejaVuSans-52" d="M 2841 2188 
Q 3044 2119 3236 1894 
Q 3428 1669 3622 1275 
L 4263 0 
L 3584 0 
L 2988 1197 
Q 2756 1666 2539 1819 
Q 2322 1972 1947 1972 
L 1259 1972 
L 1259 0 
L 628 0 
L 628 4666 
L 2053 4666 
Q 2853 4666 3247 4331 
Q 3641 3997 3641 3322 
Q 3641 2881 3436 2590 
Q 3231 2300 2841 2188 
z
M 1259 4147 
L 1259 2491 
L 2053 2491 
Q 2509 2491 2742 2702 
Q 2975 2913 2975 3322 
Q 2975 3731 2742 3939 
Q 2509 4147 2053 4147 
L 1259 4147 
z
" transform="scale(0.015625)"/>
      <path id="DejaVuSans-5f" d="M 3263 -1063 
L 3263 -1509 
L -63 -1509 
L -63 -1063 
L 3263 -1063 
z
" transform="scale(0.015625)"/>
      <path id="DejaVuSans-63" d="M 3122 3366 
L 3122 2828 
Q 2878 2963 2633 3030 
Q 2388 3097 2138 3097 
Q 1578 3097 1268 2742 
Q 959 2388 959 1747 
Q 959 1106 1268 751 
Q 1578 397 2138 397 
Q 2388 397 2633 464 
Q 2878 531 3122 666 
L 3122 134 
Q 2881 22 2623 -34 
Q 2366 -91 2075 -91 
Q 1284 -91 818 406 
Q 353 903 353 1747 
Q 353 2603 823 3093 
Q 1294 3584 2113 3584 
Q 2378 3584 2631 3529 
Q 2884 3475 3122 3366 
z
" transform="scale(0.015625)"/>
      <path id="DejaVuSans-69" d="M 603 3500 
L 1178 3500 
L 1178 0 
L 603 0 
L 603 3500 
z
M 603 4863 
L 1178 4863 
L 1178 4134 
L 603 4134 
L 603 4863 
z
" transform="scale(0.015625)"/>
      <path id="DejaVuSans-2c" d="M 750 794 
L 1409 794 
L 1409 256 
L 897 -744 
L 494 -744 
L 750 256 
L 750 794 
z
" transform="scale(0.015625)"/>
      <path id="DejaVuSans-29" d="M 513 4856 
L 1013 4856 
Q 1481 4119 1714 3412 
Q 1947 2706 1947 2009 
Q 1947 1309 1714 600 
Q 1481 -109 1013 -844 
L 513 -844 
Q 928 -128 1133 580 
Q 1338 1288 1338 2009 
Q 1338 2731 1133 3434 
Q 928 4138 513 4856 
z
" transform="scale(0.015625)"/>
     </defs>
     <use xlink:href="#DejaVuSans-78"/>
     <use xlink:href="#DejaVuSans-20" transform="translate(59.179688 0)"/>
     <use xlink:href="#DejaVuSans-6d" transform="translate(90.966797 0)"/>
     <use xlink:href="#DejaVuSans-61" transform="translate(188.378906 0)"/>
     <use xlink:href="#DejaVuSans-72" transform="translate(249.658203 0)"/>
     <use xlink:href="#DejaVuSans-6b" transform="translate(290.771484 0)"/>
     <use xlink:href="#DejaVuSans-65" transform="translate(345.056641 0)"/>
     <use xlink:href="#DejaVuSans-72" transform="translate(406.580078 0)"/>
     <use xlink:href="#DejaVuSans-73" transform="translate(447.693359 0)"/>
     <use xlink:href="#DejaVuSans-3a" transform="translate(499.792969 0)"/>
     <use xlink:href="#DejaVuSans-20" transform="translate(533.484375 0)"/>
     <use xlink:href="#DejaVuSans-53" transform="translate(565.271484 0)"/>
     <use xlink:href="#DejaVuSans-26" transform="translate(628.748047 0)"/>
     <use xlink:href="#DejaVuSans-4f" transform="translate(706.726562 0)"/>
     <use xlink:href="#DejaVuSans-20" transform="translate(785.4375 0)"/>
     <use xlink:href="#DejaVuSans-4c" transform="translate(817.224609 0)"/>
     <use xlink:href="#DejaVuSans-53" transform="translate(872.9375 0)"/>
     <use xlink:href="#DejaVuSans-41" transform="translate(938.289062 0)"/>
     <use xlink:href="#DejaVuSans-20" transform="translate(1006.697266 0)"/>
     <use xlink:href="#DejaVuSans-6f" transform="translate(1038.484375 0)"/>
     <use xlink:href="#DejaVuSans-6e" transform="translate(1099.666016 0)"/>
     <use xlink:href="#DejaVuSans-73" transform="translate(1163.044922 0)"/>
     <use xlink:href="#DejaVuSans-65" transform="translate(1215.144531 0)"/>
     <use xlink:href="#DejaVuSans-74" transform="translate(1276.667969 0)"/>
     <use xlink:href="#DejaVuSans-20" transform="translate(1315.876953 0)"/>
     <use xlink:href="#DejaVuSans-28" transform="translate(1347.664062 0)"/>
     <use xlink:href="#DejaVuSans-52" transform="translate(1386.677734 0)"/>
     <use xlink:href="#DejaVuSans-65" transform="translate(1451.660156 0)"/>
     <use xlink:href="#DejaVuSans-5f" transform="translate(1513.183594 0)"/>
     <use xlink:href="#DejaVuSans-63" transform="translate(1563.183594 0)"/>
     <use xlink:href="#DejaVuSans-72" transform="translate(1618.164062 0)"/>
     <use xlink:href="#DejaVuSans-69" transform="translate(1659.277344 0)"/>
     <use xlink:href="#DejaVuSans-74" transform="translate(1687.060547 0)"/>
     <use xlink:href="#DejaVuSans-2c" transform="translate(1726.269531 0)"/>
     <use xlink:href="#DejaVuSans-20" transform="translate(1758.056641 0)"/>
     <use xlink:href="#DejaVuSans-53" transform="translate(1789.84375 0)"/>
     <use xlink:href="#DejaVuSans-74" transform="translate(1853.320312 0)"/>
     <use xlink:href="#DejaVuSans-5f" transform="translate(1892.529297 0)"/>
     <use xlink:href="#DejaVuSans-63" transform="translate(1942.529297 0)"/>
     <use xlink:href="#DejaVuSans-72" transform="translate(1997.509766 0)"/>
     <use xlink:href="#DejaVuSans-69" transform="translate(2038.623047 0)"/>
     <use xlink:href="#DejaVuSans-74" transform="translate(2066.40625 0)"/>
     <use xlink:href="#DejaVuSans-29" transform="translate(2105.615234 0)"/>
    </g>
    <!-- * marker: S&amp;O DNS at Re=100 (Sec. IV B) -->
    <g transform="translate(368.846831 290.951819) scale(0.07 -0.07)">
     <defs>
      <path id="DejaVuSans-2a" d="M 3009 3897 
L 1888 3291 
L 3009 2681 
L 2828 2375 
L 1778 3009 
L 1778 1831 
L 1422 1831 
L 1422 3009 
L 372 2375 
L 191 2681 
L 1313 3291 
L 191 3897 
L 372 4206 
L 1422 3572 
L 1422 4750 
L 1778 4750 
L 1778 3572 
L 2828 4206 
L 3009 3897 
z
" transform="scale(0.015625)"/>
      <path id="DejaVuSans-44" d="M 1259 4147 
L 1259 519 
L 2022 519 
Q 2988 519 3436 956 
Q 3884 1394 3884 2338 
Q 3884 3275 3436 3711 
Q 2988 4147 2022 4147 
L 1259 4147 
z
M 628 4666 
L 1925 4666 
Q 3281 4666 3915 4102 
Q 4550 3538 4550 2338 
Q 4550 1131 3912 565 
Q 3275 0 1925 0 
L 628 0 
L 628 4666 
z
" transform="scale(0.015625)"/>
      <path id="DejaVuSans-4e" d="M 628 4666 
L 1478 4666 
L 3547 763 
L 3547 4666 
L 4159 4666 
L 4159 0 
L 3309 0 
L 1241 3903 
L 1241 0 
L 628 0 
L 628 4666 
z
" transform="scale(0.015625)"/>
      <path id="DejaVuSans-49" d="M 628 4666 
L 1259 4666 
L 1259 0 
L 628 0 
L 628 4666 
z
" transform="scale(0.015625)"/>
      <path id="DejaVuSans-56" d="M 1831 0 
L 50 4666 
L 709 4666 
L 2188 738 
L 3669 4666 
L 4325 4666 
L 2547 0 
L 1831 0 
z
" transform="scale(0.015625)"/>
      <path id="DejaVuSans-42" d="M 1259 2228 
L 1259 519 
L 2272 519 
Q 2781 519 3026 730 
Q 3272 941 3272 1375 
Q 3272 1813 3026 2020 
Q 2781 2228 2272 2228 
L 1259 2228 
z
M 1259 4147 
L 1259 2741 
L 2194 2741 
Q 2656 2741 2882 2914 
Q 3109 3088 3109 3444 
Q 3109 3797 2882 3972 
Q 2656 4147 2194 4147 
L 1259 4147 
z
M 628 4666 
L 2241 4666 
Q 2963 4666 3353 4366 
Q 3744 4066 3744 3513 
Q 3744 3084 3544 2831 
Q 3344 2578 2956 2516 
Q 3422 2416 3680 2098 
Q 3938 1781 3938 1306 
Q 3938 681 3513 340 
Q 3088 0 2303 0 
L 628 0 
L 628 4666 
z
" transform="scale(0.015625)"/>
     </defs>
     <use xlink:href="#DejaVuSans-2a"/>
     <use xlink:href="#DejaVuSans-20" transform="translate(50 0)"/>
     <use xlink:href="#DejaVuSans-6d" transform="translate(81.787109 0)"/>
     <use xlink:href="#DejaVuSans-61" transform="translate(179.199219 0)"/>
     <use xlink:href="#DejaVuSans-72" transform="translate(240.478516 0)"/>
     <use xlink:href="#DejaVuSans-6b" transform="translate(281.591797 0)"/>
     <use xlink:href="#DejaVuSans-65" transform="translate(335.876953 0)"/>
     <use xlink:href="#DejaVuSans-72" transform="translate(397.400391 0)"/>
     <use xlink:href="#DejaVuSans-3a" transform="translate(436.763672 0)"/>
     <use xlink:href="#DejaVuSans-20" transform="translate(470.455078 0)"/>
     <use xlink:href="#DejaVuSans-53" transform="translate(502.242188 0)"/>
     <use xlink:href="#DejaVuSans-26" transform="translate(565.71875 0)"/>
     <use xlink:href="#DejaVuSans-4f" transform="translate(643.697266 0)"/>
     <use xlink:href="#DejaVuSans-20" transform="translate(722.408203 0)"/>
     <use xlink:href="#DejaVuSans-44" transform="translate(754.195312 0)"/>
     <use xlink:href="#DejaVuSans-4e" transform="translate(831.197266 0)"/>
     <use xlink:href="#DejaVuSans-53" transform="translate(906.001953 0)"/>
     <use xlink:href="#DejaVuSans-20" transform="translate(969.478516 0)"/>
     <use xlink:href="#DejaVuSans-61" transform="translate(1001.265625 0)"/>
     <use xlink:href="#DejaVuSans-74" transform="translate(1062.544922 0)"/>
     <use xlink:href="#DejaVuSans-20" transform="translate(1101.753906 0)"/>
     <use xlink:href="#DejaVuSans-52" transform="translate(1133.541016 0)"/>
     <use xlink:href="#DejaVuSans-65" transform="translate(1198.523438 0)"/>
     <use xlink:href="#DejaVuSans-3d" transform="translate(1260.046875 0)"/>
     <use xlink:href="#DejaVuSans-31" transform="translate(1343.835938 0)"/>
     <use xlink:href="#DejaVuSans-30" transform="translate(1407.458984 0)"/>
     <use xlink:href="#DejaVuSans-30" transform="translate(1471.082031 0)"/>
     <use xlink:href="#DejaVuSans-20" transform="translate(1534.705078 0)"/>
     <use xlink:href="#DejaVuSans-28" transform="translate(1566.492188 0)"/>
     <use xlink:href="#DejaVuSans-53" transform="translate(1605.505859 0)"/>
     <use xlink:href="#DejaVuSans-65" transform="translate(1668.982422 0)"/>
     <use xlink:href="#DejaVuSans-63" transform="translate(1730.505859 0)"/>
     <use xlink:href="#DejaVuSans-2e" transform="translate(1785.486328 0)"/>
     <use xlink:href="#DejaVuSans-20" transform="translate(1817.273438 0)"/>
     <use xlink:href="#DejaVuSans-49" transform="translate(1849.060547 0)"/>
     <use xlink:href="#DejaVuSans-56" transform="translate(1878.552734 0)"/>
     <use xlink:href="#DejaVuSans-20" transform="translate(1946.960938 0)"/>
     <use xlink:href="#DejaVuSans-42" transform="translate(1978.748047 0)"/>
     <use xlink:href="#DejaVuSans-29" transform="translate(2047.351562 0)"/>
    </g>
    <!-- $\beta=0.375$ S&amp;O onset interpolated -->
    <g transform="translate(397.504175 298.8756) scale(0.07 -0.07)">
     <defs>
      <path id="DejaVuSans-Oblique-3b2" d="M 872 216 
L 572 -1331 
L -6 -1331 
L 928 3478 
Q 1206 4903 2538 4903 
Q 3888 4903 3659 3700 
Q 3503 2844 2894 2531 
Q 3713 2250 3553 1416 
Q 3272 -69 1759 -66 
Q 1097 -63 872 216 
z
M 1019 966 
Q 1259 422 1875 425 
Q 2775 425 2966 1406 
Q 3138 2288 1675 2219 
L 1778 2750 
Q 2909 2731 3106 3750 
Q 3241 4438 2509 4434 
Q 1691 4434 1503 3459 
L 1019 966 
z
" transform="scale(0.015625)"/>
      <path id="DejaVuSans-37" d="M 525 4666 
L 3525 4666 
L 3525 4397 
L 1831 0 
L 1172 0 
L 2766 4134 
L 525 4134 
L 525 4666 
z
" transform="scale(0.015625)"/>
      <path id="DejaVuSans-70" d="M 1159 525 
L 1159 -1331 
L 581 -1331 
L 581 3500 
L 1159 3500 
L 1159 2969 
Q 1341 3281 1617 3432 
Q 1894 3584 2278 3584 
Q 2916 3584 3314 3078 
Q 3713 2572 3713 1747 
Q 3713 922 3314 415 
Q 2916 -91 2278 -91 
Q 1894 -91 1617 61 
Q 1341 213 1159 525 
z
M 3116 1747 
Q 3116 2381 2855 2742 
Q 2594 3103 2138 3103 
Q 1681 3103 1420 2742 
Q 1159 2381 1159 1747 
Q 1159 1113 1420 752 
Q 1681 391 2138 391 
Q 2594 391 2855 752 
Q 3116 1113 3116 1747 
z
" transform="scale(0.015625)"/>
      <path id="DejaVuSans-6c" d="M 603 4863 
L 1178 4863 
L 1178 0 
L 603 0 
L 603 4863 
z
" transform="scale(0.015625)"/>
      <path id="DejaVuSans-64" d="M 2906 2969 
L 2906 4863 
L 3481 4863 
L 3481 0 
L 2906 0 
L 2906 525 
Q 2725 213 2448 61 
Q 2172 -91 1784 -91 
Q 1150 -91 751 415 
Q 353 922 353 1747 
Q 353 2572 751 3078 
Q 1150 3584 1784 3584 
Q 2172 3584 2448 3432 
Q 2725 3281 2906 2969 
z
M 947 1747 
Q 947 1113 1208 752 
Q 1469 391 1925 391 
Q 2381 391 2643 752 
Q 2906 1113 2906 1747 
Q 2906 2381 2643 2742 
Q 2381 3103 1925 3103 
Q 1469 3103 1208 2742 
Q 947 2381 947 1747 
z
" transform="scale(0.015625)"/>
     </defs>
     <use xlink:href="#DejaVuSans-Oblique-3b2" transform="translate(0 0.390625)"/>
     <use xlink:href="#DejaVuSans-3d" transform="translate(83.300781 0.390625)"/>
     <use xlink:href="#DejaVuSans-30" transform="translate(186.572266 0.390625)"/>
     <use xlink:href="#DejaVuSans-2e" transform="translate(250.195312 0.390625)"/>
     <use xlink:href="#DejaVuSans-33" transform="translate(281.982422 0.390625)"/>
     <use xlink:href="#DejaVuSans-37" transform="translate(345.605469 0.390625)"/>
     <use xlink:href="#DejaVuSans-35" transform="translate(409.228516 0.390625)"/>
     <use xlink:href="#DejaVuSans-20" transform="translate(472.851562 0.390625)"/>
     <use xlink:href="#DejaVuSans-53" transform="translate(504.638672 0.390625)"/>
     <use xlink:href="#DejaVuSans-26" transform="translate(568.115234 0.390625)"/>
     <use xlink:href="#DejaVuSans-4f" transform="translate(646.09375 0.390625)"/>
     <use xlink:href="#DejaVuSans-20" transform="translate(724.804688 0.390625)"/>
     <use xlink:href="#DejaVuSans-6f" transform="translate(756.591797 0.390625)"/>
     <use xlink:href="#DejaVuSans-6e" transform="translate(817.773438 0.390625)"/>
     <use xlink:href="#DejaVuSans-73" transform="translate(881.152344 0.390625)"/>
     <use xlink:href="#DejaVuSans-65" transform="translate(933.251953 0.390625)"/>
     <use xlink:href="#DejaVuSans-74" transform="translate(994.775391 0.390625)"/>
     <use xlink:href="#DejaVuSans-20" transform="translate(1033.984375 0.390625)"/>
     <use xlink:href="#DejaVuSans-69" transform="translate(1065.771484 0.390625)"/>
     <use xlink:href="#DejaVuSans-6e" transform="translate(1093.554688 0.390625)"/>
     <use xlink:href="#DejaVuSans-74" transform="translate(1156.933594 0.390625)"/>
     <use xlink:href="#DejaVuSans-65" transform="translate(1196.142578 0.390625)"/>
     <use xlink:href="#DejaVuSans-72" transform="translate(1257.666016 0.390625)"/>
     <use xlink:href="#DejaVuSans-70" transform="translate(1298.779297 0.390625)"/>
     <use xlink:href="#DejaVuSans-6f" transform="translate(1362.255859 0.390625)"/>
     <use xlink:href="#DejaVuSans-6c" transform="translate(1423.4375 0.390625)"/>
     <use xlink:href="#DejaVuSans-61" transform="translate(1451.220703 0.390625)"/>
     <use xlink:href="#DejaVuSans-74" transform="translate(1512.5 0.390625)"/>
     <use xlink:href="#DejaVuSans-65" transform="translate(1551.708984 0.390625)"/>
     <use xlink:href="#DejaVuSans-64" transform="translate(1613.232422 0.390625)"/>
    </g>
   </g>
   <g id="line2d_41">
    <path d="M 73.545739 292.776398 
L 116.478466 291.826796 
L 159.411193 298.68 
" clip-path="url(#p80f5cdbd37)" style="fill: none; stroke: #0b5ed7; stroke-width: 1.3; stroke-linecap: square"/>
    <defs>
     <path id="m0b91e1da95" d="M 0 3 
C 0.795609 3 1.55874 2.683901 2.12132 2.12132 
C 2.683901 1.55874 3 0.795609 3 0 
C 3 -0.795609 2.683901 -1.55874 2.12132 -2.12132 
C 1.55874 -2.683901 0.795609 -3 0 -3 
C -0.795609 -3 -1.55874 -2.683901 -2.12132 -2.12132 
C -2.683901 -1.55874 -3 -0.795609 -3 0 
C -3 0.795609 -2.683901 1.55874 -2.12132 2.12132 
C -1.55874 2.683901 -0.795609 3 0 3 
z
" style="stroke: #ffffff; stroke-width: 0.4"/>
    </defs>
    <g clip-path="url(#p80f5cdbd37)">
     <use xlink:href="#m0b91e1da95" x="73.545739" y="292.776398" style="fill: #0b5ed7; stroke: #ffffff; stroke-width: 0.4"/>
     <use xlink:href="#m0b91e1da95" x="116.478466" y="291.826796" style="fill: #0b5ed7; stroke: #ffffff; stroke-width: 0.4"/>
     <use xlink:href="#m0b91e1da95" x="159.411193" y="298.68" style="fill: #0b5ed7; stroke: #ffffff; stroke-width: 0.4"/>
    </g>
   </g>
   <g id="line2d_42">
    <path d="M 202.34392 231.149029 
L 245.276648 230.14565 
L 331.142102 228.272702 
" clip-path="url(#p80f5cdbd37)" style="fill: none; stroke: #6c757d; stroke-width: 1.3; stroke-linecap: square"/>
    <defs>
     <path id="m8571597610" d="M -3 3 
L 3 3 
L 3 -3 
L -3 -3 
z
" style="stroke: #ffffff; stroke-width: 0.4; stroke-linejoin: miter"/>
    </defs>
    <g clip-path="url(#p80f5cdbd37)">
     <use xlink:href="#m8571597610" x="202.34392" y="231.149029" style="fill: #6c757d; stroke: #ffffff; stroke-width: 0.4; stroke-linejoin: miter"/>
     <use xlink:href="#m8571597610" x="245.276648" y="230.14565" style="fill: #6c757d; stroke: #ffffff; stroke-width: 0.4; stroke-linejoin: miter"/>
     <use xlink:href="#m8571597610" x="331.142102" y="228.272702" style="fill: #6c757d; stroke: #ffffff; stroke-width: 0.4; stroke-linejoin: miter"/>
    </g>
   </g>
   <g id="line2d_43">
    <path d="M 459.940284 115.261255 
L 502.873011 114.656959 
" clip-path="url(#p80f5cdbd37)" style="fill: none; stroke: #dc3545; stroke-width: 1.3; stroke-linecap: square"/>
    <defs>
     <path id="m8f78d595e6" d="M 0 -3 
L -3 3 
L 3 3 
z
" style="stroke: #ffffff; stroke-width: 0.4; stroke-linejoin: miter"/>
    </defs>
    <g clip-path="url(#p80f5cdbd37)">
     <use xlink:href="#m8f78d595e6" x="459.940284" y="115.261255" style="fill: #dc3545; stroke: #ffffff; stroke-width: 0.4; stroke-linejoin: miter"/>
     <use xlink:href="#m8f78d595e6" x="502.873011" y="114.656959" style="fill: #dc3545; stroke: #ffffff; stroke-width: 0.4; stroke-linejoin: miter"/>
    </g>
   </g>
   <g id="line2d_44">
    <path d="M 459.940284 21.08 
" clip-path="url(#p80f5cdbd37)" style="fill: none; stroke: #198754; stroke-width: 1.3; stroke-linecap: square"/>
    <defs>
     <path id="maef2362c3c" d="M 0 4.242641 
L 4.242641 0 
L 0 -4.242641 
L -4.242641 0 
z
" style="stroke: #ffffff; stroke-width: 0.4; stroke-linejoin: miter"/>
    </defs>
    <g clip-path="url(#p80f5cdbd37)">
     <use xlink:href="#maef2362c3c" x="459.940284" y="21.08" style="fill: #198754; stroke: #ffffff; stroke-width: 0.4; stroke-linejoin: miter"/>
    </g>
   </g>
   <g id="legend_1">
    <g id="patch_8">
     <path d="M 57.679375 60.96 
L 358.799375 60.96 
Q 360.399375 60.96 360.399375 59.36 
L 360.399375 12.8 
Q 360.399375 11.2 358.799375 11.2 
L 57.679375 11.2 
Q 56.079375 11.2 56.079375 12.8 
L 56.079375 59.36 
Q 56.079375 60.96 57.679375 60.96 
z
" style="fill: #ffffff; opacity: 0.9; stroke: #cccccc; stroke-linejoin: miter"/>
    </g>
    <g id="line2d_45">
     <defs>
      <path id="m6ee0253ba5" d="M 0 -6 
L -1.347084 -1.854102 
L -5.706339 -1.854102 
L -2.179628 0.708204 
L -3.526712 4.854102 
L -0 2.291796 
L 3.526712 4.854102 
L 2.179628 0.708204 
L 5.706339 -1.854102 
L 1.347084 -1.854102 
z
" style="stroke: #ffffff; stroke-linejoin: bevel"/>
     </defs>
     <g>
      <use xlink:href="#m6ee0253ba5" x="67.279375" y="17.76" style="fill: #0b5ed7; stroke: #ffffff; stroke-linejoin: bevel"/>
     </g>
    </g>
    <g id="text_15">
     <!-- $\beta=0.30$ S\&amp;O DNS (Re=100) -->
     <g transform="translate(81.679375 20.56) scale(0.08 -0.08)">
      <defs>
       <path id="DejaVuSans-5c" d="M 531 4666 
L 2156 -594 
L 1625 -594 
L 0 4666 
L 531 4666 
z
" transform="scale(0.015625)"/>
      </defs>
      <use xlink:href="#DejaVuSans-Oblique-3b2" transform="translate(0 0.390625)"/>
      <use xlink:href="#DejaVuSans-3d" transform="translate(83.300781 0.390625)"/>
      <use xlink:href="#DejaVuSans-30" transform="translate(186.572266 0.390625)"/>
      <use xlink:href="#DejaVuSans-2e" transform="translate(250.195312 0.390625)"/>
      <use xlink:href="#DejaVuSans-33" transform="translate(281.982422 0.390625)"/>
      <use xlink:href="#DejaVuSans-30" transform="translate(345.605469 0.390625)"/>
      <use xlink:href="#DejaVuSans-20" transform="translate(409.228516 0.390625)"/>
      <use xlink:href="#DejaVuSans-53" transform="translate(441.015625 0.390625)"/>
      <use xlink:href="#DejaVuSans-5c" transform="translate(504.492188 0.390625)"/>
      <use xlink:href="#DejaVuSans-26" transform="translate(538.183594 0.390625)"/>
      <use xlink:href="#DejaVuSans-4f" transform="translate(616.162109 0.390625)"/>
      <use xlink:href="#DejaVuSans-20" transform="translate(694.873047 0.390625)"/>
      <use xlink:href="#DejaVuSans-44" transform="translate(726.660156 0.390625)"/>
      <use xlink:href="#DejaVuSans-4e" transform="translate(803.662109 0.390625)"/>
      <use xlink:href="#DejaVuSans-53" transform="translate(878.466797 0.390625)"/>
      <use xlink:href="#DejaVuSans-20" transform="translate(941.943359 0.390625)"/>
      <use xlink:href="#DejaVuSans-28" transform="translate(973.730469 0.390625)"/>
      <use xlink:href="#DejaVuSans-52" transform="translate(1012.744141 0.390625)"/>
      <use xlink:href="#DejaVuSans-65" transform="translate(1082.226562 0.390625)"/>
      <use xlink:href="#DejaVuSans-3d" transform="translate(1143.75 0.390625)"/>
      <use xlink:href="#DejaVuSans-31" transform="translate(1227.539062 0.390625)"/>
      <use xlink:href="#DejaVuSans-30" transform="translate(1291.162109 0.390625)"/>
      <use xlink:href="#DejaVuSans-30" transform="translate(1354.785156 0.390625)"/>
      <use xlink:href="#DejaVuSans-29" transform="translate(1418.408203 0.390625)"/>
     </g>
    </g>
    <g id="line2d_46">
     <path d="M 59.279375 29.6 
L 67.279375 29.6 
L 75.279375 29.6 
" style="fill: none; stroke: #0b5ed7; stroke-width: 1.3; stroke-linecap: square"/>
     <g>
      <use xlink:href="#m0b91e1da95" x="67.279375" y="29.6" style="fill: #0b5ed7; stroke: #ffffff; stroke-width: 0.4"/>
     </g>
    </g>
    <g id="text_16">
     <!-- $\beta=0.30$ (present work) -->
     <g transform="translate(81.679375 32.4) scale(0.08 -0.08)">
      <defs>
       <path id="DejaVuSans-77" d="M 269 3500 
L 844 3500 
L 1563 769 
L 2278 3500 
L 2956 3500 
L 3675 769 
L 4391 3500 
L 4966 3500 
L 4050 0 
L 3372 0 
L 2619 2869 
L 1863 0 
L 1184 0 
L 269 3500 
z
" transform="scale(0.015625)"/>
      </defs>
      <use xlink:href="#DejaVuSans-Oblique-3b2" transform="translate(0 0.390625)"/>
      <use xlink:href="#DejaVuSans-3d" transform="translate(83.300781 0.390625)"/>
      <use xlink:href="#DejaVuSans-30" transform="translate(186.572266 0.390625)"/>
      <use xlink:href="#DejaVuSans-2e" transform="translate(250.195312 0.390625)"/>
      <use xlink:href="#DejaVuSans-33" transform="translate(281.982422 0.390625)"/>
      <use xlink:href="#DejaVuSans-30" transform="translate(345.605469 0.390625)"/>
      <use xlink:href="#DejaVuSans-20" transform="translate(409.228516 0.390625)"/>
      <use xlink:href="#DejaVuSans-28" transform="translate(441.015625 0.390625)"/>
      <use xlink:href="#DejaVuSans-70" transform="translate(480.029297 0.390625)"/>
      <use xlink:href="#DejaVuSans-72" transform="translate(543.505859 0.390625)"/>
      <use xlink:href="#DejaVuSans-65" transform="translate(584.619141 0.390625)"/>
      <use xlink:href="#DejaVuSans-73" transform="translate(646.142578 0.390625)"/>
      <use xlink:href="#DejaVuSans-65" transform="translate(698.242188 0.390625)"/>
      <use xlink:href="#DejaVuSans-6e" transform="translate(759.765625 0.390625)"/>
      <use xlink:href="#DejaVuSans-74" transform="translate(823.144531 0.390625)"/>
      <use xlink:href="#DejaVuSans-20" transform="translate(862.353516 0.390625)"/>
      <use xlink:href="#DejaVuSans-77" transform="translate(894.140625 0.390625)"/>
      <use xlink:href="#DejaVuSans-6f" transform="translate(975.927734 0.390625)"/>
      <use xlink:href="#DejaVuSans-72" transform="translate(1037.109375 0.390625)"/>
      <use xlink:href="#DejaVuSans-6b" transform="translate(1078.222656 0.390625)"/>
      <use xlink:href="#DejaVuSans-29" transform="translate(1136.132812 0.390625)"/>
     </g>
    </g>
    <g id="line2d_47">
     <defs>
      <path id="mc44cee5e9d" d="M -4.5 4.5 
L 4.5 -4.5 
M -4.5 -4.5 
L 4.5 4.5 
" style="stroke: #0b5ed7; stroke-width: 2"/>
     </defs>
     <g>
      <use xlink:href="#mc44cee5e9d" x="67.279375" y="41.44" style="fill: #0b5ed7; stroke: #0b5ed7; stroke-width: 2"/>
     </g>
    </g>
    <g id="text_17">
     <!-- $\beta=0.30$ S\&amp;O onset (LSA) -->
     <g transform="translate(81.679375 44.24) scale(0.08 -0.08)">
      <use xlink:href="#DejaVuSans-Oblique-3b2" transform="translate(0 0.390625)"/>
      <use xlink:href="#DejaVuSans-3d" transform="translate(83.300781 0.390625)"/>
      <use xlink:href="#DejaVuSans-30" transform="translate(186.572266 0.390625)"/>
      <use xlink:href="#DejaVuSans-2e" transform="translate(250.195312 0.390625)"/>
      <use xlink:href="#DejaVuSans-33" transform="translate(281.982422 0.390625)"/>
      <use xlink:href="#DejaVuSans-30" transform="translate(345.605469 0.390625)"/>
      <use xlink:href="#DejaVuSans-20" transform="translate(409.228516 0.390625)"/>
      <use xlink:href="#DejaVuSans-53" transform="translate(441.015625 0.390625)"/>
      <use xlink:href="#DejaVuSans-5c" transform="translate(504.492188 0.390625)"/>
      <use xlink:href="#DejaVuSans-26" transform="translate(538.183594 0.390625)"/>
      <use xlink:href="#DejaVuSans-4f" transform="translate(616.162109 0.390625)"/>
      <use xlink:href="#DejaVuSans-20" transform="translate(694.873047 0.390625)"/>
      <use xlink:href="#DejaVuSans-6f" transform="translate(726.660156 0.390625)"/>
      <use xlink:href="#DejaVuSans-6e" transform="translate(787.841797 0.390625)"/>
      <use xlink:href="#DejaVuSans-73" transform="translate(851.220703 0.390625)"/>
      <use xlink:href="#DejaVuSans-65" transform="translate(903.320312 0.390625)"/>
      <use xlink:href="#DejaVuSans-74" transform="translate(964.84375 0.390625)"/>
      <use xlink:href="#DejaVuSans-20" transform="translate(1004.052734 0.390625)"/>
      <use xlink:href="#DejaVuSans-28" transform="translate(1035.839844 0.390625)"/>
      <use xlink:href="#DejaVuSans-4c" transform="translate(1074.853516 0.390625)"/>
      <use xlink:href="#DejaVuSans-53" transform="translate(1130.566406 0.390625)"/>
      <use xlink:href="#DejaVuSans-41" transform="translate(1194.042969 0.390625)"/>
      <use xlink:href="#DejaVuSans-29" transform="translate(1262.451172 0.390625)"/>
     </g>
    </g>
    <g id="line2d_48">
     <path d="M 59.279375 53.28 
L 67.279375 53.28 
L 75.279375 53.28 
" style="fill: none; stroke: #6c757d; stroke-width: 1.3; stroke-linecap: square"/>
     <g>
      <use xlink:href="#m8571597610" x="67.279375" y="53.28" style="fill: #6c757d; stroke: #ffffff; stroke-width: 0.4; stroke-linejoin: miter"/>
     </g>
    </g>
    <g id="text_18">
     <!-- $\beta=0.375$ (present work) -->
     <g transform="translate(81.679375 56.08) scale(0.08 -0.08)">
      <use xlink:href="#DejaVuSans-Oblique-3b2" transform="translate(0 0.390625)"/>
      <use xlink:href="#DejaVuSans-3d" transform="translate(83.300781 0.390625)"/>
      <use xlink:href="#DejaVuSans-30" transform="translate(186.572266 0.390625)"/>
      <use xlink:href="#DejaVuSans-2e" transform="translate(250.195312 0.390625)"/>
      <use xlink:href="#DejaVuSans-33" transform="translate(281.982422 0.390625)"/>
      <use xlink:href="#DejaVuSans-37" transform="translate(345.605469 0.390625)"/>
      <use xlink:href="#DejaVuSans-35" transform="translate(409.228516 0.390625)"/>
      <use xlink:href="#DejaVuSans-20" transform="translate(472.851562 0.390625)"/>
      <use xlink:href="#DejaVuSans-28" transform="translate(504.638672 0.390625)"/>
      <use xlink:href="#DejaVuSans-70" transform="translate(543.652344 0.390625)"/>
      <use xlink:href="#DejaVuSans-72" transform="translate(607.128906 0.390625)"/>
      <use xlink:href="#DejaVuSans-65" transform="translate(648.242188 0.390625)"/>
      <use xlink:href="#DejaVuSans-73" transform="translate(709.765625 0.390625)"/>
      <use xlink:href="#DejaVuSans-65" transform="translate(761.865234 0.390625)"/>
      <use xlink:href="#DejaVuSans-6e" transform="translate(823.388672 0.390625)"/>
      <use xlink:href="#DejaVuSans-74" transform="translate(886.767578 0.390625)"/>
      <use xlink:href="#DejaVuSans-20" transform="translate(925.976562 0.390625)"/>
      <use xlink:href="#DejaVuSans-77" transform="translate(957.763672 0.390625)"/>
      <use xlink:href="#DejaVuSans-6f" transform="translate(1039.550781 0.390625)"/>
      <use xlink:href="#DejaVuSans-72" transform="translate(1100.732422 0.390625)"/>
      <use xlink:href="#DejaVuSans-6b" transform="translate(1141.845703 0.390625)"/>
      <use xlink:href="#DejaVuSans-29" transform="translate(1199.755859 0.390625)"/>
     </g>
    </g>
    <g id="line2d_49">
     <defs>
      <path id="mf88b66668e" d="M -4.5 4.5 
L 4.5 -4.5 
M -4.5 -4.5 
L 4.5 4.5 
" style="stroke: #6c757d; stroke-width: 2"/>
     </defs>
     <g>
      <use xlink:href="#mf88b66668e" x="222.319375" y="17.76" style="fill: #6c757d; stroke: #6c757d; stroke-width: 2"/>
     </g>
    </g>
    <g id="text_19">
     <!-- $\beta=0.375$ S\&amp;O onset (interp.) -->
     <g transform="translate(236.719375 20.56) scale(0.08 -0.08)">
      <use xlink:href="#DejaVuSans-Oblique-3b2" transform="translate(0 0.390625)"/>
      <use xlink:href="#DejaVuSans-3d" transform="translate(83.300781 0.390625)"/>
      <use xlink:href="#DejaVuSans-30" transform="translate(186.572266 0.390625)"/>
      <use xlink:href="#DejaVuSans-2e" transform="translate(250.195312 0.390625)"/>
      <use xlink:href="#DejaVuSans-33" transform="translate(281.982422 0.390625)"/>
      <use xlink:href="#DejaVuSans-37" transform="translate(345.605469 0.390625)"/>
      <use xlink:href="#DejaVuSans-35" transform="translate(409.228516 0.390625)"/>
      <use xlink:href="#DejaVuSans-20" transform="translate(472.851562 0.390625)"/>
      <use xlink:href="#DejaVuSans-53" transform="translate(504.638672 0.390625)"/>
      <use xlink:href="#DejaVuSans-5c" transform="translate(568.115234 0.390625)"/>
      <use xlink:href="#DejaVuSans-26" transform="translate(601.806641 0.390625)"/>
      <use xlink:href="#DejaVuSans-4f" transform="translate(679.785156 0.390625)"/>
      <use xlink:href="#DejaVuSans-20" transform="translate(758.496094 0.390625)"/>
      <use xlink:href="#DejaVuSans-6f" transform="translate(790.283203 0.390625)"/>
      <use xlink:href="#DejaVuSans-6e" transform="translate(851.464844 0.390625)"/>
      <use xlink:href="#DejaVuSans-73" transform="translate(914.84375 0.390625)"/>
      <use xlink:href="#DejaVuSans-65" transform="translate(966.943359 0.390625)"/>
      <use xlink:href="#DejaVuSans-74" transform="translate(1028.466797 0.390625)"/>
      <use xlink:href="#DejaVuSans-20" transform="translate(1067.675781 0.390625)"/>
      <use xlink:href="#DejaVuSans-28" transform="translate(1099.462891 0.390625)"/>
      <use xlink:href="#DejaVuSans-69" transform="translate(1138.476562 0.390625)"/>
      <use xlink:href="#DejaVuSans-6e" transform="translate(1166.259766 0.390625)"/>
      <use xlink:href="#DejaVuSans-74" transform="translate(1229.638672 0.390625)"/>
      <use xlink:href="#DejaVuSans-65" transform="translate(1268.847656 0.390625)"/>
      <use xlink:href="#DejaVuSans-72" transform="translate(1330.371094 0.390625)"/>
      <use xlink:href="#DejaVuSans-70" transform="translate(1371.484375 0.390625)"/>
      <use xlink:href="#DejaVuSans-2e" transform="translate(1434.960938 0.390625)"/>
      <use xlink:href="#DejaVuSans-29" transform="translate(1466.748047 0.390625)"/>
     </g>
    </g>
    <g id="line2d_50">
     <path d="M 214.319375 29.6 
L 222.319375 29.6 
L 230.319375 29.6 
" style="fill: none; stroke: #dc3545; stroke-width: 1.3; stroke-linecap: square"/>
     <g>
      <use xlink:href="#m8f78d595e6" x="222.319375" y="29.6" style="fill: #dc3545; stroke: #ffffff; stroke-width: 0.4; stroke-linejoin: miter"/>
     </g>
    </g>
    <g id="text_20">
     <!-- $\beta=0.50$ (present work) -->
     <g transform="translate(236.719375 32.4) scale(0.08 -0.08)">
      <use xlink:href="#DejaVuSans-Oblique-3b2" transform="translate(0 0.390625)"/>
      <use xlink:href="#DejaVuSans-3d" transform="translate(83.300781 0.390625)"/>
      <use xlink:href="#DejaVuSans-30" transform="translate(186.572266 0.390625)"/>
      <use xlink:href="#DejaVuSans-2e" transform="translate(250.195312 0.390625)"/>
      <use xlink:href="#DejaVuSans-35" transform="translate(281.982422 0.390625)"/>
      <use xlink:href="#DejaVuSans-30" transform="translate(345.605469 0.390625)"/>
      <use xlink:href="#DejaVuSans-20" transform="translate(409.228516 0.390625)"/>
      <use xlink:href="#DejaVuSans-28" transform="translate(441.015625 0.390625)"/>
      <use xlink:href="#DejaVuSans-70" transform="translate(480.029297 0.390625)"/>
      <use xlink:href="#DejaVuSans-72" transform="translate(543.505859 0.390625)"/>
      <use xlink:href="#DejaVuSans-65" transform="translate(584.619141 0.390625)"/>
      <use xlink:href="#DejaVuSans-73" transform="translate(646.142578 0.390625)"/>
      <use xlink:href="#DejaVuSans-65" transform="translate(698.242188 0.390625)"/>
      <use xlink:href="#DejaVuSans-6e" transform="translate(759.765625 0.390625)"/>
      <use xlink:href="#DejaVuSans-74" transform="translate(823.144531 0.390625)"/>
      <use xlink:href="#DejaVuSans-20" transform="translate(862.353516 0.390625)"/>
      <use xlink:href="#DejaVuSans-77" transform="translate(894.140625 0.390625)"/>
      <use xlink:href="#DejaVuSans-6f" transform="translate(975.927734 0.390625)"/>
      <use xlink:href="#DejaVuSans-72" transform="translate(1037.109375 0.390625)"/>
      <use xlink:href="#DejaVuSans-6b" transform="translate(1078.222656 0.390625)"/>
      <use xlink:href="#DejaVuSans-29" transform="translate(1136.132812 0.390625)"/>
     </g>
    </g>
    <g id="line2d_51">
     <defs>
      <path id="mfa0b783ea8" d="M -4.5 4.5 
L 4.5 -4.5 
M -4.5 -4.5 
L 4.5 4.5 
" style="stroke: #dc3545; stroke-width: 2"/>
     </defs>
     <g>
      <use xlink:href="#mfa0b783ea8" x="222.319375" y="41.44" style="fill: #dc3545; stroke: #dc3545; stroke-width: 2"/>
     </g>
    </g>
    <g id="text_21">
     <!-- $\beta=0.50$ S\&amp;O onset (LSA) -->
     <g transform="translate(236.719375 44.24) scale(0.08 -0.08)">
      <use xlink:href="#DejaVuSans-Oblique-3b2" transform="translate(0 0.390625)"/>
      <use xlink:href="#DejaVuSans-3d" transform="translate(83.300781 0.390625)"/>
      <use xlink:href="#DejaVuSans-30" transform="translate(186.572266 0.390625)"/>
      <use xlink:href="#DejaVuSans-2e" transform="translate(250.195312 0.390625)"/>
      <use xlink:href="#DejaVuSans-35" transform="translate(281.982422 0.390625)"/>
      <use xlink:href="#DejaVuSans-30" transform="translate(345.605469 0.390625)"/>
      <use xlink:href="#DejaVuSans-20" transform="translate(409.228516 0.390625)"/>
      <use xlink:href="#DejaVuSans-53" transform="translate(441.015625 0.390625)"/>
      <use xlink:href="#DejaVuSans-5c" transform="translate(504.492188 0.390625)"/>
      <use xlink:href="#DejaVuSans-26" transform="translate(538.183594 0.390625)"/>
      <use xlink:href="#DejaVuSans-4f" transform="translate(616.162109 0.390625)"/>
      <use xlink:href="#DejaVuSans-20" transform="translate(694.873047 0.390625)"/>
      <use xlink:href="#DejaVuSans-6f" transform="translate(726.660156 0.390625)"/>
      <use xlink:href="#DejaVuSans-6e" transform="translate(787.841797 0.390625)"/>
      <use xlink:href="#DejaVuSans-73" transform="translate(851.220703 0.390625)"/>
      <use xlink:href="#DejaVuSans-65" transform="translate(903.320312 0.390625)"/>
      <use xlink:href="#DejaVuSans-74" transform="translate(964.84375 0.390625)"/>
      <use xlink:href="#DejaVuSans-20" transform="translate(1004.052734 0.390625)"/>
      <use xlink:href="#DejaVuSans-28" transform="translate(1035.839844 0.390625)"/>
      <use xlink:href="#DejaVuSans-4c" transform="translate(1074.853516 0.390625)"/>
      <use xlink:href="#DejaVuSans-53" transform="translate(1130.566406 0.390625)"/>
      <use xlink:href="#DejaVuSans-41" transform="translate(1194.042969 0.390625)"/>
      <use xlink:href="#DejaVuSans-29" transform="translate(1262.451172 0.390625)"/>
     </g>
    </g>
    <g id="line2d_52">
     <path d="M 214.319375 53.28 
L 222.319375 53.28 
L 230.319375 53.28 
" style="fill: none; stroke: #198754; stroke-width: 1.3; stroke-linecap: square"/>
     <g>
      <use xlink:href="#maef2362c3c" x="222.319375" y="53.28" style="fill: #198754; stroke: #ffffff; stroke-width: 0.4; stroke-linejoin: miter"/>
     </g>
    </g>
    <g id="text_22">
     <!-- $\beta=0.60$ (present work) -->
     <g transform="translate(236.719375 56.08) scale(0.08 -0.08)">
      <defs>
       <path id="DejaVuSans-36" d="M 2113 2584 
Q 1688 2584 1439 2293 
Q 1191 2003 1191 1497 
Q 1191 994 1439 701 
Q 1688 409 2113 409 
Q 2538 409 2786 701 
Q 3034 994 3034 1497 
Q 3034 2003 2786 2293 
Q 2538 2584 2113 2584 
z
M 3366 4563 
L 3366 3988 
Q 3128 4100 2886 4159 
Q 2644 4219 2406 4219 
Q 1781 4219 1451 3797 
Q 1122 3375 1075 2522 
Q 1259 2794 1537 2939 
Q 1816 3084 2150 3084 
Q 2853 3084 3261 2657 
Q 3669 2231 3669 1497 
Q 3669 778 3244 343 
Q 2819 -91 2113 -91 
Q 1303 -91 875 529 
Q 447 1150 447 2328 
Q 447 3434 972 4092 
Q 1497 4750 2381 4750 
Q 2619 4750 2861 4703 
Q 3103 4656 3366 4563 
z
" transform="scale(0.015625)"/>
      </defs>
      <use xlink:href="#DejaVuSans-Oblique-3b2" transform="translate(0 0.390625)"/>
      <use xlink:href="#DejaVuSans-3d" transform="translate(83.300781 0.390625)"/>
      <use xlink:href="#DejaVuSans-30" transform="translate(186.572266 0.390625)"/>
      <use xlink:href="#DejaVuSans-2e" transform="translate(250.195312 0.390625)"/>
      <use xlink:href="#DejaVuSans-36" transform="translate(281.982422 0.390625)"/>
      <use xlink:href="#DejaVuSans-30" transform="translate(345.605469 0.390625)"/>
      <use xlink:href="#DejaVuSans-20" transform="translate(409.228516 0.390625)"/>
      <use xlink:href="#DejaVuSans-28" transform="translate(441.015625 0.390625)"/>
      <use xlink:href="#DejaVuSans-70" transform="translate(480.029297 0.390625)"/>
      <use xlink:href="#DejaVuSans-72" transform="translate(543.505859 0.390625)"/>
      <use xlink:href="#DejaVuSans-65" transform="translate(584.619141 0.390625)"/>
      <use xlink:href="#DejaVuSans-73" transform="translate(646.142578 0.390625)"/>
      <use xlink:href="#DejaVuSans-65" transform="translate(698.242188 0.390625)"/>
      <use xlink:href="#DejaVuSans-6e" transform="translate(759.765625 0.390625)"/>
      <use xlink:href="#DejaVuSans-74" transform="translate(823.144531 0.390625)"/>
      <use xlink:href="#DejaVuSans-20" transform="translate(862.353516 0.390625)"/>
      <use xlink:href="#DejaVuSans-77" transform="translate(894.140625 0.390625)"/>
      <use xlink:href="#DejaVuSans-6f" transform="translate(975.927734 0.390625)"/>
      <use xlink:href="#DejaVuSans-72" transform="translate(1037.109375 0.390625)"/>
      <use xlink:href="#DejaVuSans-6b" transform="translate(1078.222656 0.390625)"/>
      <use xlink:href="#DejaVuSans-29" transform="translate(1136.132812 0.390625)"/>
     </g>
    </g>
   </g>
   <g id="line2d_53">
    <g clip-path="url(#p80f5cdbd37)">
     <use xlink:href="#mc44cee5e9d" x="112.700386" y="290.937181" style="fill: #0b5ed7; stroke: #0b5ed7; stroke-width: 2"/>
    </g>
   </g>
   <g id="line2d_54">
    <g clip-path="url(#p80f5cdbd37)">
     <use xlink:href="#mf88b66668e" x="207.785644" y="225.272695" style="fill: #6c757d; stroke: #6c757d; stroke-width: 2"/>
    </g>
   </g>
   <g id="line2d_55">
    <g clip-path="url(#p80f5cdbd37)">
     <use xlink:href="#mfa0b783ea8" x="366.261073" y="115.831886" style="fill: #dc3545; stroke: #dc3545; stroke-width: 2"/>
    </g>
   </g>
   <g id="line2d_56">
    <g clip-path="url(#p80f5cdbd37)">
     <use xlink:href="#m6ee0253ba5" x="159.411193" y="287.577524" style="fill: #0b5ed7; stroke: #ffffff; stroke-linejoin: bevel"/>
    </g>
   </g>
  </g>
 </g>
 <defs>
  <clipPath id="p80f5cdbd37">
   <rect x="52.079375" y="7.2" width="472.26" height="305.36"/>
  </clipPath>
 </defs>
</svg>
