<?xml version="1.0" encoding="utf-8" standalone="no"?>
<!DOCTYPE svg PUBLIC "-//W3C//DTD SVG 1.1//EN"
  "http://www.w3.org/Graphics/SVG/1.1/DTD/svg11.dtd">
<svg xmlns:xlink="http://www.w3.org/1999/xlink" width="555.59952pt" height="353.99952pt" viewBox="0 0 555.59952 353.99952" xmlns="http://www.w3.org/2000/svg" version="1.1">
 <metadata>
  <rdf:RDF xmlns:dc="http://purl.org/dc/elements/1.1/" xmlns:cc="http://creativecommons.org/ns#" xmlns:rdf="http://www.w3.org/1999/02/22-rdf-syntax-ns#">
   <cc:Work>
    <dc:type rdf:resource="http://purl.org/dc/dcmitype/StillImage"/>
    <dc:date>2026-04-04T11:05:08.368768</dc:date>
    <dc:format>image/svg+xml</dc:format>
    <dc:creator>
     <cc:Agent>
      <dc:title>Matplotlib v3.10.7, https://matplotlib.org/</dc:title>
     </cc:Agent>
    </dc:creator>
   </cc:Work>
  </rdf:RDF>
 </metadata>
 <defs>
  <style type="text/css">*{stroke-linejoin: round; stroke-linecap: butt}</style>
 </defs>
 <g id="figure_1">
  <g id="patch_1">
   <path d="M 0 353.99952 
L 555.59952 353.99952 
L 555.59952 0 
L 0 0 
z
" style="fill: #ffffff"/>
  </g>
  <g id="axes_1">
   <g id="patch_2">
    <path d="M 65.85375 315.475457 
L 548.39952 315.475457 
L 548.39952 22.318125 
L 65.85375 22.318125 
z
" style="fill: #ffffff"/>
   </g>
   <g id="matplotlib.axis_1">
    <g id="xtick_1">
     <g id="line2d_1">
      <path d="M 87.787649 315.475457 
L 87.787649 22.318125 
" clip-path="url(#p7da9e310a1)" style="fill: none; stroke: #b0b0b0; stroke-opacity: 0.25; stroke-width: 0.8; stroke-linecap: square"/>
     </g>
     <g id="line2d_2">
      <defs>
       <path id="m4397e47ec9" d="M 0 0 
L 0 3.5 
" style="stroke: #000000; stroke-width: 0.8"/>
      </defs>
      <g>
       <use xlink:href="#m4397e47ec9" x="87.787649" y="315.475457" style="stroke: #000000; stroke-width: 0.8"/>
      </g>
     </g>
     <g id="text_1">
      <!-- 0.0 -->
      <g transform="translate(79.836086 330.073895) scale(0.1 -0.1)">
       <defs>
        <path id="DejaVuSerif-30" d="M 2034 219 
Q 2513 219 2750 744 
Q 2988 1269 2988 2328 
Q 2988 3391 2750 3916 
Q 2513 4441 2034 4441 
Q 1556 4441 1318 3916 
Q 1081 3391 1081 2328 
Q 1081 1269 1318 744 
Q 1556 219 2034 219 
z
M 2034 -91 
Q 1275 -91 848 546 
Q 422 1184 422 2328 
Q 422 3475 848 4112 
Q 1275 4750 2034 4750 
Q 2797 4750 3222 4112 
Q 3647 3475 3647 2328 
Q 3647 1184 3222 546 
Q 2797 -91 2034 -91 
z
" transform="scale(0.015625)"/>
        <path id="DejaVuSerif-2e" d="M 603 325 
Q 603 500 722 622 
Q 841 744 1019 744 
Q 1191 744 1312 622 
Q 1434 500 1434 325 
Q 1434 153 1312 31 
Q 1191 -91 1019 -91 
Q 841 -91 722 29 
Q 603 150 603 325 
z
" transform="scale(0.015625)"/>
       </defs>
       <use xlink:href="#DejaVuSerif-30"/>
       <use xlink:href="#DejaVuSerif-2e" transform="translate(63.623047 0)"/>
       <use xlink:href="#DejaVuSerif-30" transform="translate(95.410156 0)"/>
      </g>
     </g>
    </g>
    <g id="xtick_2">
     <g id="line2d_3">
      <path d="M 175.548301 315.475457 
L 175.548301 22.318125 
" clip-path="url(#p7da9e310a1)" style="fill: none; stroke: #b0b0b0; stroke-opacity: 0.25; stroke-width: 0.8; stroke-linecap: square"/>
     </g>
     <g id="line2d_4">
      <g>
       <use xlink:href="#m4397e47ec9" x="175.548301" y="315.475457" style="stroke: #000000; stroke-width: 0.8"/>
      </g>
     </g>
     <g id="text_2">
      <!-- 0.2 -->
      <g transform="translate(167.596739 330.073895) scale(0.1 -0.1)">
       <defs>
        <path id="DejaVuSerif-32" d="M 819 3553 
L 469 3553 
L 469 4384 
Q 803 4563 1142 4656 
Q 1481 4750 1806 4750 
Q 2534 4750 2956 4397 
Q 3378 4044 3378 3438 
Q 3378 2753 2422 1800 
Q 2347 1728 2309 1691 
L 1131 513 
L 3078 513 
L 3078 1088 
L 3444 1088 
L 3444 0 
L 434 0 
L 434 341 
L 1850 1753 
Q 2319 2222 2519 2614 
Q 2719 3006 2719 3438 
Q 2719 3909 2473 4175 
Q 2228 4441 1797 4441 
Q 1350 4441 1106 4219 
Q 863 3997 819 3553 
z
" transform="scale(0.015625)"/>
       </defs>
       <use xlink:href="#DejaVuSerif-30"/>
       <use xlink:href="#DejaVuSerif-2e" transform="translate(63.623047 0)"/>
       <use xlink:href="#DejaVuSerif-32" transform="translate(95.410156 0)"/>
      </g>
     </g>
    </g>
    <g id="xtick_3">
     <g id="line2d_5">
      <path d="M 263.308954 315.475457 
L 263.308954 22.318125 
" clip-path="url(#p7da9e310a1)" style="fill: none; stroke: #b0b0b0; stroke-opacity: 0.25; stroke-width: 0.8; stroke-linecap: square"/>
     </g>
     <g id="line2d_6">
      <g>
       <use xlink:href="#m4397e47ec9" x="263.308954" y="315.475457" style="stroke: #000000; stroke-width: 0.8"/>
      </g>
     </g>
     <g id="text_3">
      <!-- 0.4 -->
      <g transform="translate(255.357391 330.073895) scale(0.1 -0.1)">
       <defs>
        <path id="DejaVuSerif-34" d="M 2234 1581 
L 2234 4063 
L 641 1581 
L 2234 1581 
z
M 3609 0 
L 1484 0 
L 1484 331 
L 2234 331 
L 2234 1247 
L 197 1247 
L 197 1588 
L 2241 4750 
L 2859 4750 
L 2859 1581 
L 3750 1581 
L 3750 1247 
L 2859 1247 
L 2859 331 
L 3609 331 
L 3609 0 
z
" transform="scale(0.015625)"/>
       </defs>
       <use xlink:href="#DejaVuSerif-30"/>
       <use xlink:href="#DejaVuSerif-2e" transform="translate(63.623047 0)"/>
       <use xlink:href="#DejaVuSerif-34" transform="translate(95.410156 0)"/>
      </g>
     </g>
    </g>
    <g id="xtick_4">
     <g id="line2d_7">
      <path d="M 351.069607 315.475457 
L 351.069607 22.318125 
" clip-path="url(#p7da9e310a1)" style="fill: none; stroke: #b0b0b0; stroke-opacity: 0.25; stroke-width: 0.8; stroke-linecap: square"/>
     </g>
     <g id="line2d_8">
      <g>
       <use xlink:href="#m4397e47ec9" x="351.069607" y="315.475457" style="stroke: #000000; stroke-width: 0.8"/>
      </g>
     </g>
     <g id="text_4">
      <!-- 0.6 -->
      <g transform="translate(343.118044 330.073895) scale(0.1 -0.1)">
       <defs>
        <path id="DejaVuSerif-36" d="M 2094 219 
Q 2534 219 2771 542 
Q 3009 866 3009 1472 
Q 3009 2078 2771 2401 
Q 2534 2725 2094 2725 
Q 1647 2725 1412 2412 
Q 1178 2100 1178 1509 
Q 1178 888 1415 553 
Q 1653 219 2094 219 
z
M 1075 2569 
Q 1288 2803 1556 2918 
Q 1825 3034 2163 3034 
Q 2859 3034 3264 2615 
Q 3669 2197 3669 1472 
Q 3669 763 3233 336 
Q 2797 -91 2069 -91 
Q 1278 -91 853 498 
Q 428 1088 428 2181 
Q 428 3406 931 4078 
Q 1434 4750 2350 4750 
Q 2597 4750 2869 4703 
Q 3141 4656 3425 4563 
L 3425 3794 
L 3072 3794 
Q 3034 4109 2831 4275 
Q 2628 4441 2284 4441 
Q 1678 4441 1381 3981 
Q 1084 3522 1075 2569 
z
" transform="scale(0.015625)"/>
       </defs>
       <use xlink:href="#DejaVuSerif-30"/>
       <use xlink:href="#DejaVuSerif-2e" transform="translate(63.623047 0)"/>
       <use xlink:href="#DejaVuSerif-36" transform="translate(95.410156 0)"/>
      </g>
     </g>
    </g>
    <g id="xtick_5">
     <g id="line2d_9">
      <path d="M 438.830259 315.475457 
L 438.830259 22.318125 
" clip-path="url(#p7da9e310a1)" style="fill: none; stroke: #b0b0b0; stroke-opacity: 0.25; stroke-width: 0.8; stroke-linecap: square"/>
     </g>
     <g id="line2d_10">
      <g>
       <use xlink:href="#m4397e47ec9" x="438.830259" y="315.475457" style="stroke: #000000; stroke-width: 0.8"/>
      </g>
     </g>
     <g id="text_5">
      <!-- 0.8 -->
      <g transform="translate(430.878697 330.073895) scale(0.1 -0.1)">
       <defs>
        <path id="DejaVuSerif-38" d="M 2981 1275 
Q 2981 1775 2732 2051 
Q 2484 2328 2034 2328 
Q 1584 2328 1336 2051 
Q 1088 1775 1088 1275 
Q 1088 772 1336 495 
Q 1584 219 2034 219 
Q 2484 219 2732 495 
Q 2981 772 2981 1275 
z
M 2853 3541 
Q 2853 3966 2637 4203 
Q 2422 4441 2034 4441 
Q 1650 4441 1433 4203 
Q 1216 3966 1216 3541 
Q 1216 3113 1433 2875 
Q 1650 2638 2034 2638 
Q 2422 2638 2637 2875 
Q 2853 3113 2853 3541 
z
M 2516 2484 
Q 3047 2413 3344 2092 
Q 3641 1772 3641 1275 
Q 3641 619 3225 264 
Q 2809 -91 2034 -91 
Q 1263 -91 845 264 
Q 428 619 428 1275 
Q 428 1772 725 2092 
Q 1022 2413 1556 2484 
Q 1084 2569 832 2842 
Q 581 3116 581 3541 
Q 581 4103 968 4426 
Q 1356 4750 2034 4750 
Q 2713 4750 3100 4426 
Q 3488 4103 3488 3541 
Q 3488 3116 3236 2842 
Q 2984 2569 2516 2484 
z
" transform="scale(0.015625)"/>
       </defs>
       <use xlink:href="#DejaVuSerif-30"/>
       <use xlink:href="#DejaVuSerif-2e" transform="translate(63.623047 0)"/>
       <use xlink:href="#DejaVuSerif-38" transform="translate(95.410156 0)"/>
      </g>
     </g>
    </g>
    <g id="xtick_6">
     <g id="line2d_11">
      <path d="M 526.590912 315.475457 
L 526.590912 22.318125 
" clip-path="url(#p7da9e310a1)" style="fill: none; stroke: #b0b0b0; stroke-opacity: 0.25; stroke-width: 0.8; stroke-linecap: square"/>
     </g>
     <g id="line2d_12">
      <g>
       <use xlink:href="#m4397e47ec9" x="526.590912" y="315.475457" style="stroke: #000000; stroke-width: 0.8"/>
      </g>
     </g>
     <g id="text_6">
      <!-- 1.0 -->
      <g transform="translate(518.639349 330.073895) scale(0.1 -0.1)">
       <defs>
        <path id="DejaVuSerif-31" d="M 909 0 
L 909 331 
L 1722 331 
L 1722 4213 
L 781 3603 
L 781 4013 
L 1919 4750 
L 2350 4750 
L 2350 331 
L 3163 331 
L 3163 0 
L 909 0 
z
" transform="scale(0.015625)"/>
       </defs>
       <use xlink:href="#DejaVuSerif-31"/>
       <use xlink:href="#DejaVuSerif-2e" transform="translate(63.623047 0)"/>
       <use xlink:href="#DejaVuSerif-30" transform="translate(95.410156 0)"/>
      </g>
     </g>
    </g>
    <g id="text_7">
     <!-- Late-time window [s] -->
     <g transform="translate(248.271479 344.511864) scale(0.11 -0.11)">
      <defs>
       <path id="DejaVuSerif-4c" d="M 353 0 
L 353 331 
L 947 331 
L 947 4331 
L 353 4331 
L 353 4666 
L 2175 4666 
L 2175 4331 
L 1581 4331 
L 1581 384 
L 3713 384 
L 3713 1166 
L 4097 1166 
L 4097 0 
L 353 0 
z
" transform="scale(0.015625)"/>
       <path id="DejaVuSerif-61" d="M 2547 1044 
L 2547 1747 
L 1806 1747 
Q 1378 1747 1168 1562 
Q 959 1378 959 997 
Q 959 650 1171 447 
Q 1384 244 1747 244 
Q 2106 244 2326 466 
Q 2547 688 2547 1044 
z
M 3122 2075 
L 3122 331 
L 3634 331 
L 3634 0 
L 2547 0 
L 2547 359 
Q 2356 128 2106 18 
Q 1856 -91 1522 -91 
Q 969 -91 644 203 
Q 319 497 319 997 
Q 319 1513 691 1797 
Q 1063 2081 1741 2081 
L 2547 2081 
L 2547 2309 
Q 2547 2688 2317 2895 
Q 2088 3103 1672 3103 
Q 1328 3103 1125 2947 
Q 922 2791 872 2484 
L 575 2484 
L 575 3156 
Q 875 3284 1158 3348 
Q 1441 3413 1709 3413 
Q 2400 3413 2761 3070 
Q 3122 2728 3122 2075 
z
" transform="scale(0.015625)"/>
       <path id="DejaVuSerif-74" d="M 691 2988 
L 184 2988 
L 184 3322 
L 691 3322 
L 691 4353 
L 1269 4353 
L 1269 3322 
L 2350 3322 
L 2350 2988 
L 1269 2988 
L 1269 878 
Q 1269 456 1350 337 
Q 1431 219 1650 219 
Q 1875 219 1978 351 
Q 2081 484 2088 781 
L 2522 781 
Q 2497 328 2275 118 
Q 2053 -91 1600 -91 
Q 1103 -91 897 129 
Q 691 350 691 878 
L 691 2988 
z
" transform="scale(0.015625)"/>
       <path id="DejaVuSerif-65" d="M 3469 1600 
L 991 1600 
L 991 1575 
Q 991 903 1244 561 
Q 1497 219 1991 219 
Q 2369 219 2611 417 
Q 2853 616 2950 1006 
L 3413 1006 
Q 3275 459 2904 184 
Q 2534 -91 1931 -91 
Q 1203 -91 761 389 
Q 319 869 319 1663 
Q 319 2450 753 2931 
Q 1188 3413 1894 3413 
Q 2647 3413 3050 2948 
Q 3453 2484 3469 1600 
z
M 2791 1931 
Q 2772 2513 2545 2808 
Q 2319 3103 1894 3103 
Q 1497 3103 1269 2806 
Q 1041 2509 991 1931 
L 2791 1931 
z
" transform="scale(0.015625)"/>
       <path id="DejaVuSerif-2d" d="M 281 1959 
L 1881 1959 
L 1881 1472 
L 281 1472 
L 281 1959 
z
" transform="scale(0.015625)"/>
       <path id="DejaVuSerif-69" d="M 622 4353 
Q 622 4497 726 4603 
Q 831 4709 978 4709 
Q 1122 4709 1226 4603 
Q 1331 4497 1331 4353 
Q 1331 4206 1228 4103 
Q 1125 4000 978 4000 
Q 831 4000 726 4103 
Q 622 4206 622 4353 
z
M 1356 331 
L 1900 331 
L 1900 0 
L 231 0 
L 231 331 
L 781 331 
L 781 2988 
L 231 2988 
L 231 3322 
L 1356 3322 
L 1356 331 
z
" transform="scale(0.015625)"/>
       <path id="DejaVuSerif-6d" d="M 3316 2675 
Q 3481 3041 3739 3227 
Q 3997 3413 4341 3413 
Q 4863 3413 5119 3089 
Q 5375 2766 5375 2113 
L 5375 331 
L 5894 331 
L 5894 0 
L 4300 0 
L 4300 331 
L 4800 331 
L 4800 2047 
Q 4800 2556 4650 2772 
Q 4500 2988 4153 2988 
Q 3769 2988 3567 2697 
Q 3366 2406 3366 1850 
L 3366 331 
L 3866 331 
L 3866 0 
L 2291 0 
L 2291 331 
L 2791 331 
L 2791 2069 
Q 2791 2566 2641 2777 
Q 2491 2988 2144 2988 
Q 1759 2988 1557 2697 
Q 1356 2406 1356 1850 
L 1356 331 
L 1856 331 
L 1856 0 
L 263 0 
L 263 331 
L 781 331 
L 781 2994 
L 231 2994 
L 231 3322 
L 1356 3322 
L 1356 2731 
Q 1516 3063 1762 3238 
Q 2009 3413 2322 3413 
Q 2709 3413 2968 3220 
Q 3228 3028 3316 2675 
z
" transform="scale(0.015625)"/>
       <path id="DejaVuSerif-20" transform="scale(0.015625)"/>
       <path id="DejaVuSerif-77" d="M 3072 3322 
L 3922 728 
L 4672 2988 
L 4191 2988 
L 4191 3322 
L 5394 3322 
L 5394 2988 
L 5025 2988 
L 4038 0 
L 3559 0 
L 2741 2484 
L 1919 0 
L 1459 0 
L 475 2988 
L 103 2988 
L 103 3322 
L 1606 3322 
L 1606 2988 
L 1069 2988 
L 1813 728 
L 2669 3322 
L 3072 3322 
z
" transform="scale(0.015625)"/>
       <path id="DejaVuSerif-6e" d="M 263 0 
L 263 331 
L 781 331 
L 781 2988 
L 231 2988 
L 231 3322 
L 1356 3322 
L 1356 2731 
Q 1516 3069 1770 3241 
Q 2025 3413 2363 3413 
Q 2913 3413 3172 3097 
Q 3431 2781 3431 2113 
L 3431 331 
L 3944 331 
L 3944 0 
L 2356 0 
L 2356 331 
L 2853 331 
L 2853 1931 
Q 2853 2541 2703 2767 
Q 2553 2994 2175 2994 
Q 1775 2994 1565 2701 
Q 1356 2409 1356 1850 
L 1356 331 
L 1856 331 
L 1856 0 
L 263 0 
z
" transform="scale(0.015625)"/>
       <path id="DejaVuSerif-64" d="M 3359 331 
L 3909 331 
L 3909 0 
L 2784 0 
L 2784 519 
Q 2616 206 2355 57 
Q 2094 -91 1709 -91 
Q 1097 -91 708 395 
Q 319 881 319 1663 
Q 319 2444 706 2928 
Q 1094 3413 1709 3413 
Q 2094 3413 2355 3264 
Q 2616 3116 2784 2803 
L 2784 4531 
L 2241 4531 
L 2241 4863 
L 3359 4863 
L 3359 331 
z
M 2784 1497 
L 2784 1825 
Q 2784 2422 2554 2737 
Q 2325 3053 1888 3053 
Q 1444 3053 1217 2703 
Q 991 2353 991 1663 
Q 991 975 1217 622 
Q 1444 269 1888 269 
Q 2325 269 2554 583 
Q 2784 897 2784 1497 
z
" transform="scale(0.015625)"/>
       <path id="DejaVuSerif-6f" d="M 1925 219 
Q 2388 219 2623 584 
Q 2859 950 2859 1663 
Q 2859 2375 2623 2739 
Q 2388 3103 1925 3103 
Q 1463 3103 1227 2739 
Q 991 2375 991 1663 
Q 991 950 1228 584 
Q 1466 219 1925 219 
z
M 1925 -91 
Q 1200 -91 759 389 
Q 319 869 319 1663 
Q 319 2456 758 2934 
Q 1197 3413 1925 3413 
Q 2653 3413 3092 2934 
Q 3531 2456 3531 1663 
Q 3531 869 3092 389 
Q 2653 -91 1925 -91 
z
" transform="scale(0.015625)"/>
       <path id="DejaVuSerif-5b" d="M 550 4863 
L 2003 4863 
L 2003 4531 
L 1147 4531 
L 1147 -513 
L 2003 -513 
L 2003 -844 
L 550 -844 
L 550 4863 
z
" transform="scale(0.015625)"/>
       <path id="DejaVuSerif-73" d="M 359 184 
L 359 959 
L 691 959 
Q 703 588 923 403 
Q 1144 219 1575 219 
Q 1963 219 2166 364 
Q 2369 509 2369 788 
Q 2369 1006 2220 1140 
Q 2072 1275 1594 1428 
L 1178 1569 
Q 750 1706 558 1912 
Q 366 2119 366 2438 
Q 366 2894 700 3153 
Q 1034 3413 1625 3413 
Q 1888 3413 2178 3344 
Q 2469 3275 2778 3144 
L 2778 2419 
L 2447 2419 
Q 2434 2741 2221 2922 
Q 2009 3103 1644 3103 
Q 1281 3103 1095 2975 
Q 909 2847 909 2591 
Q 909 2381 1050 2254 
Q 1191 2128 1613 1997 
L 2069 1856 
Q 2541 1709 2748 1489 
Q 2956 1269 2956 922 
Q 2956 450 2595 179 
Q 2234 -91 1600 -91 
Q 1278 -91 972 -22 
Q 666 47 359 184 
z
" transform="scale(0.015625)"/>
       <path id="DejaVuSerif-5d" d="M 1947 4863 
L 1947 -844 
L 494 -844 
L 494 -513 
L 1350 -513 
L 1350 4531 
L 494 4531 
L 494 4863 
L 1947 4863 
z
" transform="scale(0.015625)"/>
      </defs>
      <use xlink:href="#DejaVuSerif-4c"/>
      <use xlink:href="#DejaVuSerif-61" transform="translate(66.40625 0)"/>
      <use xlink:href="#DejaVuSerif-74" transform="translate(126.025391 0)"/>
      <use xlink:href="#DejaVuSerif-65" transform="translate(166.210938 0)"/>
      <use xlink:href="#DejaVuSerif-2d" transform="translate(225.390625 0)"/>
      <use xlink:href="#DejaVuSerif-74" transform="translate(259.179688 0)"/>
      <use xlink:href="#DejaVuSerif-69" transform="translate(299.365234 0)"/>
      <use xlink:href="#DejaVuSerif-6d" transform="translate(331.347656 0)"/>
      <use xlink:href="#DejaVuSerif-65" transform="translate(426.171875 0)"/>
      <use xlink:href="#DejaVuSerif-20" transform="translate(485.351562 0)"/>
      <use xlink:href="#DejaVuSerif-77" transform="translate(517.138672 0)"/>
      <use xlink:href="#DejaVuSerif-69" transform="translate(602.734375 0)"/>
      <use xlink:href="#DejaVuSerif-6e" transform="translate(634.716797 0)"/>
      <use xlink:href="#DejaVuSerif-64" transform="translate(699.121094 0)"/>
      <use xlink:href="#DejaVuSerif-6f" transform="translate(763.134766 0)"/>
      <use xlink:href="#DejaVuSerif-77" transform="translate(823.339844 0)"/>
      <use xlink:href="#DejaVuSerif-20" transform="translate(908.935547 0)"/>
      <use xlink:href="#DejaVuSerif-5b" transform="translate(940.722656 0)"/>
      <use xlink:href="#DejaVuSerif-73" transform="translate(979.736328 0)"/>
      <use xlink:href="#DejaVuSerif-5d" transform="translate(1031.054688 0)"/>
     </g>
    </g>
   </g>
   <g id="matplotlib.axis_2">
    <g id="ytick_1">
     <g id="line2d_13">
      <path d="M 65.85375 298.383557 
L 548.39952 298.383557 
" clip-path="url(#p7da9e310a1)" style="fill: none; stroke: #b0b0b0; stroke-opacity: 0.25; stroke-width: 0.8; stroke-linecap: square"/>
     </g>
     <g id="line2d_14">
      <defs>
       <path id="m9df7e56650" d="M 0 0 
L -3.5 0 
" style="stroke: #000000; stroke-width: 0.8"/>
      </defs>
      <g>
       <use xlink:href="#m9df7e56650" x="65.85375" y="298.383557" style="stroke: #000000; stroke-width: 0.8"/>
      </g>
     </g>
     <g id="text_8">
      <!-- −0.015 -->
      <g transform="translate(21.845938 302.182776) scale(0.1 -0.1)">
       <defs>
        <path id="DejaVuSerif-2212" d="M 678 2259 
L 4684 2259 
L 4684 1753 
L 678 1753 
L 678 2259 
z
" transform="scale(0.015625)"/>
        <path id="DejaVuSerif-35" d="M 3219 4666 
L 3219 4153 
L 1081 4153 
L 1081 2816 
Q 1244 2928 1461 2984 
Q 1678 3041 1947 3041 
Q 2703 3041 3140 2622 
Q 3578 2203 3578 1478 
Q 3578 738 3136 323 
Q 2694 -91 1894 -91 
Q 1572 -91 1234 -12 
Q 897 66 544 225 
L 544 1131 
L 897 1131 
Q 925 688 1179 453 
Q 1434 219 1894 219 
Q 2388 219 2653 544 
Q 2919 869 2919 1478 
Q 2919 2084 2655 2407 
Q 2391 2731 1894 2731 
Q 1613 2731 1398 2631 
Q 1184 2531 1019 2322 
L 750 2322 
L 750 4666 
L 3219 4666 
z
" transform="scale(0.015625)"/>
       </defs>
       <use xlink:href="#DejaVuSerif-2212"/>
       <use xlink:href="#DejaVuSerif-30" transform="translate(83.789062 0)"/>
       <use xlink:href="#DejaVuSerif-2e" transform="translate(147.412109 0)"/>
       <use xlink:href="#DejaVuSerif-30" transform="translate(179.199219 0)"/>
       <use xlink:href="#DejaVuSerif-31" transform="translate(242.822266 0)"/>
       <use xlink:href="#DejaVuSerif-35" transform="translate(306.445312 0)"/>
      </g>
     </g>
    </g>
    <g id="ytick_2">
     <g id="line2d_15">
      <path d="M 65.85375 256.489484 
L 548.39952 256.489484 
" clip-path="url(#p7da9e310a1)" style="fill: none; stroke: #b0b0b0; stroke-opacity: 0.25; stroke-width: 0.8; stroke-linecap: square"/>
     </g>
     <g id="line2d_16">
      <g>
       <use xlink:href="#m9df7e56650" x="65.85375" y="256.489484" style="stroke: #000000; stroke-width: 0.8"/>
      </g>
     </g>
     <g id="text_9">
      <!-- −0.010 -->
      <g transform="translate(21.845938 260.288702) scale(0.1 -0.1)">
       <use xlink:href="#DejaVuSerif-2212"/>
       <use xlink:href="#DejaVuSerif-30" transform="translate(83.789062 0)"/>
       <use xlink:href="#DejaVuSerif-2e" transform="translate(147.412109 0)"/>
       <use xlink:href="#DejaVuSerif-30" transform="translate(179.199219 0)"/>
       <use xlink:href="#DejaVuSerif-31" transform="translate(242.822266 0)"/>
       <use xlink:href="#DejaVuSerif-30" transform="translate(306.445312 0)"/>
      </g>
     </g>
    </g>
    <g id="ytick_3">
     <g id="line2d_17">
      <path d="M 65.85375 214.595411 
L 548.39952 214.595411 
" clip-path="url(#p7da9e310a1)" style="fill: none; stroke: #b0b0b0; stroke-opacity: 0.25; stroke-width: 0.8; stroke-linecap: square"/>
     </g>
     <g id="line2d_18">
      <g>
       <use xlink:href="#m9df7e56650" x="65.85375" y="214.595411" style="stroke: #000000; stroke-width: 0.8"/>
      </g>
     </g>
     <g id="text_10">
      <!-- −0.005 -->
      <g transform="translate(21.845938 218.394629) scale(0.1 -0.1)">
       <use xlink:href="#DejaVuSerif-2212"/>
       <use xlink:href="#DejaVuSerif-30" transform="translate(83.789062 0)"/>
       <use xlink:href="#DejaVuSerif-2e" transform="translate(147.412109 0)"/>
       <use xlink:href="#DejaVuSerif-30" transform="translate(179.199219 0)"/>
       <use xlink:href="#DejaVuSerif-30" transform="translate(242.822266 0)"/>
       <use xlink:href="#DejaVuSerif-35" transform="translate(306.445312 0)"/>
      </g>
     </g>
    </g>
    <g id="ytick_4">
     <g id="line2d_19">
      <path d="M 65.85375 172.701337 
L 548.39952 172.701337 
" clip-path="url(#p7da9e310a1)" style="fill: none; stroke: #b0b0b0; stroke-opacity: 0.25; stroke-width: 0.8; stroke-linecap: square"/>
     </g>
     <g id="line2d_20">
      <g>
       <use xlink:href="#m9df7e56650" x="65.85375" y="172.701337" style="stroke: #000000; stroke-width: 0.8"/>
      </g>
     </g>
     <g id="text_11">
      <!-- 0.000 -->
      <g transform="translate(30.225625 176.500556) scale(0.1 -0.1)">
       <use xlink:href="#DejaVuSerif-30"/>
       <use xlink:href="#DejaVuSerif-2e" transform="translate(63.623047 0)"/>
       <use xlink:href="#DejaVuSerif-30" transform="translate(95.410156 0)"/>
       <use xlink:href="#DejaVuSerif-30" transform="translate(159.033203 0)"/>
       <use xlink:href="#DejaVuSerif-30" transform="translate(222.65625 0)"/>
      </g>
     </g>
    </g>
    <g id="ytick_5">
     <g id="line2d_21">
      <path d="M 65.85375 130.807264 
L 548.39952 130.807264 
" clip-path="url(#p7da9e310a1)" style="fill: none; stroke: #b0b0b0; stroke-opacity: 0.25; stroke-width: 0.8; stroke-linecap: square"/>
     </g>
     <g id="line2d_22">
      <g>
       <use xlink:href="#m9df7e56650" x="65.85375" y="130.807264" style="stroke: #000000; stroke-width: 0.8"/>
      </g>
     </g>
     <g id="text_12">
      <!-- 0.005 -->
      <g transform="translate(30.225625 134.606483) scale(0.1 -0.1)">
       <use xlink:href="#DejaVuSerif-30"/>
       <use xlink:href="#DejaVuSerif-2e" transform="translate(63.623047 0)"/>
       <use xlink:href="#DejaVuSerif-30" transform="translate(95.410156 0)"/>
       <use xlink:href="#DejaVuSerif-30" transform="translate(159.033203 0)"/>
       <use xlink:href="#DejaVuSerif-35" transform="translate(222.65625 0)"/>
      </g>
     </g>
    </g>
    <g id="ytick_6">
     <g id="line2d_23">
      <path d="M 65.85375 88.913191 
L 548.39952 88.913191 
" clip-path="url(#p7da9e310a1)" style="fill: none; stroke: #b0b0b0; stroke-opacity: 0.25; stroke-width: 0.8; stroke-linecap: square"/>
     </g>
     <g id="line2d_24">
      <g>
       <use xlink:href="#m9df7e56650" x="65.85375" y="88.913191" style="stroke: #000000; stroke-width: 0.8"/>
      </g>
     </g>
     <g id="text_13">
      <!-- 0.010 -->
      <g transform="translate(30.225625 92.71241) scale(0.1 -0.1)">
       <use xlink:href="#DejaVuSerif-30"/>
       <use xlink:href="#DejaVuSerif-2e" transform="translate(63.623047 0)"/>
       <use xlink:href="#DejaVuSerif-30" transform="translate(95.410156 0)"/>
       <use xlink:href="#DejaVuSerif-31" transform="translate(159.033203 0)"/>
       <use xlink:href="#DejaVuSerif-30" transform="translate(222.65625 0)"/>
      </g>
     </g>
    </g>
    <g id="ytick_7">
     <g id="line2d_25">
      <path d="M 65.85375 47.019118 
L 548.39952 47.019118 
" clip-path="url(#p7da9e310a1)" style="fill: none; stroke: #b0b0b0; stroke-opacity: 0.25; stroke-width: 0.8; stroke-linecap: square"/>
     </g>
     <g id="line2d_26">
      <g>
       <use xlink:href="#m9df7e56650" x="65.85375" y="47.019118" style="stroke: #000000; stroke-width: 0.8"/>
      </g>
     </g>
     <g id="text_14">
      <!-- 0.015 -->
      <g transform="translate(30.225625 50.818337) scale(0.1 -0.1)">
       <use xlink:href="#DejaVuSerif-30"/>
       <use xlink:href="#DejaVuSerif-2e" transform="translate(63.623047 0)"/>
       <use xlink:href="#DejaVuSerif-30" transform="translate(95.410156 0)"/>
       <use xlink:href="#DejaVuSerif-31" transform="translate(159.033203 0)"/>
       <use xlink:href="#DejaVuSerif-35" transform="translate(222.65625 0)"/>
      </g>
     </g>
    </g>
    <g id="text_15">
     <!-- $C_l$ [-] -->
     <g transform="translate(15.558281 181.876791) rotate(-90) scale(0.11 -0.11)">
      <defs>
       <path id="DejaVuSans-Oblique-43" d="M 4447 4306 
L 4319 3641 
Q 4019 3944 3683 4091 
Q 3347 4238 2956 4238 
Q 2422 4238 2017 3981 
Q 1613 3725 1319 3200 
Q 1131 2863 1032 2486 
Q 934 2109 934 1728 
Q 934 1091 1264 756 
Q 1594 422 2222 422 
Q 2656 422 3056 561 
Q 3456 700 3834 978 
L 3688 231 
Q 3316 72 2936 -9 
Q 2556 -91 2175 -91 
Q 1278 -91 773 396 
Q 269 884 269 1753 
Q 269 2309 461 2846 
Q 653 3384 1013 3828 
Q 1394 4300 1883 4525 
Q 2372 4750 3022 4750 
Q 3422 4750 3780 4639 
Q 4138 4528 4447 4306 
z
" transform="scale(0.015625)"/>
       <path id="DejaVuSans-Oblique-6c" d="M 1172 4863 
L 1747 4863 
L 800 0 
L 225 0 
L 1172 4863 
z
" transform="scale(0.015625)"/>
      </defs>
      <use xlink:href="#DejaVuSans-Oblique-43" transform="translate(0 0.015625)"/>
      <use xlink:href="#DejaVuSans-Oblique-6c" transform="translate(69.824219 -16.390625) scale(0.7)"/>
      <use xlink:href="#DejaVuSerif-20" transform="translate(92.006836 0.015625)"/>
      <use xlink:href="#DejaVuSerif-5b" transform="translate(123.793945 0.015625)"/>
      <use xlink:href="#DejaVuSerif-2d" transform="translate(162.807617 0.015625)"/>
      <use xlink:href="#DejaVuSerif-5d" transform="translate(196.59668 0.015625)"/>
     </g>
    </g>
   </g>
   <g id="line2d_27">
    <path d="M 87.787649 179.30967 
L 88.07135 179.186264 
L 88.355053 178.615066 
L 88.638756 178.482228 
L 88.92246 177.901621 
L 89.206164 177.783421 
L 89.489869 177.193122 
L 89.773575 177.051601 
L 90.057282 176.455625 
L 90.340989 176.310504 
L 90.624697 175.707849 
L 90.908405 175.556368 
L 91.192115 174.946297 
L 91.475825 174.805265 
L 91.759537 174.190163 
L 92.043248 174.038368 
L 92.326962 173.417377 
L 92.610675 173.262765 
L 92.89439 172.641166 
L 93.178105 172.492768 
L 93.461821 171.866538 
L 93.745538 171.710714 
L 94.029257 171.087061 
L 94.312976 170.937525 
L 94.596696 170.301319 
L 94.880416 170.168896 
L 95.164138 169.526896 
L 95.447861 169.381413 
L 95.731585 168.73958 
L 96.015309 168.614415 
L 96.299035 167.96091 
L 96.582762 167.855042 
L 96.866489 167.199507 
L 97.150218 167.113482 
L 97.433948 166.444709 
L 97.717678 166.36905 
L 98.00141 165.708363 
L 98.28514 165.632777 
L 98.56887 164.974015 
L 98.852599 164.899979 
L 99.136327 164.276423 
L 99.420054 164.191296 
L 99.70378 163.594669 
L 99.987505 163.486619 
L 100.271229 162.935056 
L 100.554951 162.810566 
L 100.838674 162.279369 
L 101.122394 162.130707 
L 101.406115 161.633627 
L 101.689833 161.48407 
L 101.973552 161.031354 
L 102.257269 160.863456 
L 102.540985 160.435286 
L 102.8247 160.267998 
L 103.108414 159.851134 
L 103.392127 159.717785 
L 103.67584 159.291397 
L 103.959551 159.164005 
L 104.243262 158.772582 
L 104.526971 158.66765 
L 104.81068 158.281125 
L 105.094387 158.199036 
L 105.378095 157.807284 
L 105.6618 157.748867 
L 105.945506 157.36591 
L 106.22921 157.335188 
L 106.512913 156.967038 
L 106.796616 156.95753 
L 107.080318 156.594032 
L 107.364018 156.606171 
L 107.647719 156.247899 
L 107.931418 156.278565 
L 108.215117 155.945839 
L 108.498815 155.997468 
L 108.782512 155.682816 
L 109.066209 155.753844 
L 109.349905 155.453137 
L 109.6336 155.542581 
L 109.917294 155.257842 
L 110.200988 155.360755 
L 110.484682 155.098986 
L 110.768374 155.230545 
L 111.052067 154.975206 
L 111.335758 155.118425 
L 111.619449 154.889978 
L 111.903139 155.056432 
L 112.18683 154.8507 
L 112.470519 155.035864 
L 112.754208 154.838162 
L 113.037897 155.04513 
L 113.321585 154.869116 
L 113.605273 155.097506 
L 113.888961 154.940455 
L 114.172648 155.186463 
L 114.456335 155.055195 
L 114.740021 155.318523 
L 115.023708 155.200122 
L 115.307394 155.489484 
L 115.59108 155.377801 
L 115.874765 155.678747 
L 116.158451 155.601856 
L 116.442136 155.923857 
L 116.725822 155.862294 
L 117.009507 156.201103 
L 117.293192 156.163389 
L 117.576877 156.516857 
L 117.860562 156.492598 
L 118.144247 156.869396 
L 118.427932 156.861767 
L 118.711617 157.256492 
L 118.995302 157.263564 
L 119.278987 157.678246 
L 119.562673 157.703696 
L 119.846358 158.142827 
L 120.130044 158.17745 
L 120.41373 158.631139 
L 120.697416 158.68004 
L 120.981102 159.147798 
L 121.264789 159.214383 
L 121.548476 159.70382 
L 121.832163 159.783502 
L 122.115851 160.284492 
L 122.399539 160.38037 
L 122.683227 160.89838 
L 122.966916 161.002436 
L 123.250605 161.534006 
L 123.534295 161.658446 
L 123.817985 162.209627 
L 124.101676 162.330616 
L 124.385367 162.884702 
L 124.669059 163.018302 
L 124.952751 163.590803 
L 125.236444 163.747442 
L 125.520137 164.325714 
L 125.803832 164.480512 
L 126.087526 165.078154 
L 126.371222 165.247483 
L 126.654918 165.850266 
L 126.938616 166.031054 
L 127.222313 166.648166 
L 127.506012 166.827513 
L 127.789711 167.45268 
L 128.073411 167.642686 
L 128.357112 168.275914 
L 128.640814 168.451264 
L 128.924516 169.097328 
L 129.20822 169.293209 
L 129.491924 169.94316 
L 129.775629 170.139695 
L 130.059335 170.791356 
L 130.343042 170.993506 
L 130.62675 171.637672 
L 130.910459 171.831684 
L 131.194169 172.496427 
L 131.47788 172.700989 
L 131.761591 173.367137 
L 132.045304 173.559439 
L 132.329018 174.229412 
L 132.612733 174.413062 
L 132.896449 175.079211 
L 133.180166 175.279511 
L 133.463884 175.972486 
L 133.747603 176.138892 
L 134.031323 176.813624 
L 134.315044 176.971586 
L 134.598766 177.662871 
L 134.88249 177.809501 
L 135.166214 178.516461 
L 135.44994 178.638132 
L 135.733666 179.357755 
L 136.017394 179.447516 
L 136.301123 180.179803 
L 136.584853 180.266222 
L 136.868584 180.973526 
L 137.152316 181.067635 
L 137.436046 181.752472 
L 137.719776 181.854201 
L 138.003504 182.501242 
L 138.287231 182.616587 
L 138.570957 183.238572 
L 138.854683 183.37492 
L 139.138406 183.946223 
L 139.422129 184.104518 
L 139.705851 184.624315 
L 139.989572 184.797593 
L 140.273292 185.281377 
L 140.55701 185.498323 
L 140.840728 185.930519 
L 141.124444 186.151163 
L 141.40816 186.551597 
L 141.691874 186.758332 
L 141.975587 187.152432 
L 142.2593 187.351752 
L 142.543011 187.723504 
L 142.826722 187.891289 
L 143.110431 188.257048 
L 143.394139 188.392393 
L 143.677847 188.761386 
L 143.961553 188.875192 
L 144.245259 189.241132 
L 144.528963 189.32957 
L 144.812667 189.671615 
L 145.09637 189.727087 
L 145.380071 190.066042 
L 145.663773 190.107445 
L 145.947472 190.430238 
L 146.231172 190.4461 
L 146.51487 190.749151 
L 146.798568 190.738588 
L 147.082265 191.024855 
L 147.365961 190.995943 
L 147.649656 191.27503 
L 147.933351 191.217244 
L 148.217045 191.469788 
L 148.500738 191.393336 
L 148.784431 191.628374 
L 149.068123 191.529021 
L 149.351814 191.746195 
L 149.635505 191.620731 
L 149.919195 191.813648 
L 150.202885 191.684061 
L 150.486574 191.863515 
L 150.770262 191.697449 
L 151.05395 191.844828 
L 151.337638 191.665293 
L 151.621325 191.794125 
L 151.905012 191.589484 
L 152.188698 191.699183 
L 152.472385 191.475709 
L 152.75607 191.55886 
L 153.039756 191.317913 
L 153.323441 191.375798 
L 153.607126 191.115261 
L 153.89081 191.153374 
L 154.174495 190.869612 
L 154.458179 190.88681 
L 154.741863 190.5916 
L 155.025547 190.587861 
L 155.309231 190.264314 
L 155.592915 190.240459 
L 155.876599 189.900523 
L 156.160283 189.853358 
L 156.443967 189.498142 
L 156.727651 189.436704 
L 157.011335 189.051235 
L 157.295019 188.973432 
L 157.578703 188.566819 
L 157.862387 188.465031 
L 158.146072 188.046684 
L 158.429757 187.935469 
L 158.713442 187.489491 
L 158.997127 187.361805 
L 159.280813 186.891855 
L 159.564498 186.755597 
L 159.848185 186.27272 
L 160.131871 186.120222 
L 160.415559 185.61213 
L 160.699246 185.450562 
L 160.982934 184.922688 
L 161.266622 184.753268 
L 161.550311 184.201802 
L 161.834001 184.024963 
L 162.117691 183.457331 
L 162.401381 183.266275 
L 162.685073 182.668976 
L 162.968764 182.48048 
L 163.252457 181.874402 
L 163.53615 181.669844 
L 163.819844 181.059879 
L 164.103538 180.840898 
L 164.387234 180.2131 
L 164.67093 179.982589 
L 164.954627 179.346976 
L 165.238324 179.115921 
L 165.522023 178.466765 
L 165.805722 178.219308 
L 166.089423 177.575884 
L 166.373123 177.333802 
L 166.656826 176.666028 
L 166.940529 176.413763 
L 167.224233 175.739078 
L 167.507937 175.484932 
L 167.791644 174.803768 
L 168.07535 174.549489 
L 168.359058 173.851927 
L 168.642767 173.589086 
L 168.926477 172.904072 
L 169.210188 172.656091 
L 169.493901 171.958176 
L 169.777614 171.704858 
L 170.061328 170.994632 
L 170.345044 170.740212 
L 170.62876 170.052719 
L 170.912478 169.780444 
L 171.196197 169.080911 
L 171.479917 168.819672 
L 171.763638 168.12135 
L 172.047361 167.889343 
L 172.331084 167.186335 
L 172.614809 166.968725 
L 172.898535 166.248252 
L 173.182262 166.039345 
L 173.465991 165.300673 
L 173.74972 165.125008 
L 174.033451 164.390114 
L 174.317183 164.228342 
L 174.600913 163.496652 
L 174.884642 163.338658 
L 175.16837 162.629633 
L 175.452097 162.447735 
L 175.735823 161.768193 
L 176.019547 161.589839 
L 176.30327 160.947532 
L 176.586992 160.751189 
L 176.870713 160.152897 
L 177.154432 159.917565 
L 177.438151 159.365253 
L 177.721868 159.116175 
L 178.005584 158.607471 
L 178.289298 158.340277 
L 178.573012 157.859032 
L 178.856724 157.61509 
L 179.707855 156.46973 
L 179.991562 156.25058 
L 180.275269 155.820436 
L 180.558974 155.633985 
L 180.842679 155.214383 
L 181.126381 155.049474 
L 181.410084 154.632347 
L 181.693785 154.498097 
L 181.977485 154.086726 
L 182.261183 153.980672 
L 182.544882 153.57867 
L 182.828578 153.4976 
L 183.112274 153.118986 
L 183.395969 153.061095 
L 183.679663 152.694164 
L 183.963356 152.666189 
L 184.247048 152.315264 
L 184.530739 152.300017 
L 184.814429 151.971302 
L 185.098119 151.988533 
L 185.381807 151.679447 
L 185.665495 151.717047 
L 185.949182 151.42902 
L 186.232868 151.488598 
L 186.516553 151.22684 
L 186.800238 151.304697 
L 187.083922 151.08323 
L 187.367605 151.178807 
L 187.651287 150.960132 
L 187.934969 151.072702 
L 188.21865 150.900197 
L 188.502331 151.035107 
L 188.786011 150.900982 
L 189.06969 151.037497 
L 189.35337 150.91851 
L 189.637048 151.094109 
L 189.920726 150.994138 
L 190.204404 151.188949 
L 190.488081 151.121064 
L 190.771758 151.3381 
L 191.055435 151.292337 
L 191.339111 151.531784 
L 191.622787 151.514091 
L 191.906462 151.773162 
L 192.190138 151.782737 
L 192.473813 152.070848 
L 192.757489 152.084925 
L 193.041163 152.39066 
L 193.324839 152.432954 
L 193.608513 152.770277 
L 193.892188 152.841271 
L 194.175863 153.199632 
L 194.459538 153.285474 
L 194.743212 153.662675 
L 195.026887 153.777065 
L 195.310562 154.169767 
L 195.594238 154.302365 
L 195.877913 154.729312 
L 196.161588 154.871495 
L 196.445264 155.309989 
L 196.72894 155.470426 
L 197.012616 155.947014 
L 197.296293 156.129316 
L 197.57997 156.624993 
L 197.863647 156.817403 
L 198.147325 157.334404 
L 198.431003 157.542444 
L 198.714682 158.074746 
L 198.998361 158.293648 
L 199.282041 158.854904 
L 199.565721 159.090953 
L 199.849402 159.661521 
L 200.133084 159.905968 
L 200.416765 160.509908 
L 200.700448 160.761616 
L 200.984132 161.382215 
L 201.267816 161.638131 
L 201.551501 162.268094 
L 201.835187 162.531311 
L 202.118873 163.188347 
L 202.402561 163.461038 
L 202.686249 164.145235 
L 202.969938 164.423475 
L 203.253628 165.099338 
L 203.537319 165.38878 
L 203.82101 166.07888 
L 204.104703 166.387323 
L 204.388397 167.097593 
L 204.672092 167.395483 
L 204.955787 168.104038 
L 205.239485 168.408079 
L 205.523182 169.134508 
L 205.806882 169.444622 
L 206.090581 170.17277 
L 206.374283 170.48764 
L 206.657985 171.235739 
L 206.941689 171.536062 
L 207.225394 172.27426 
L 207.5091 172.577735 
L 207.792807 173.336696 
L 208.076515 173.63518 
L 208.360225 174.388616 
L 208.643936 174.714014 
L 208.927648 175.472219 
L 209.211361 175.764617 
L 209.495076 176.531453 
L 209.778792 176.82308 
L 210.062509 177.579093 
L 210.346228 177.860388 
L 210.629948 178.621233 
L 210.913669 178.881629 
L 211.197392 179.65869 
L 211.481116 179.88808 
L 211.764841 180.691541 
L 212.048568 180.894369 
L 212.332296 181.702427 
L 212.616025 181.895401 
L 212.899756 182.688198 
L 213.183487 182.877773 
L 213.467217 183.657202 
L 213.750947 183.851918 
L 214.034674 184.583927 
L 214.3184 184.814797 
L 214.602125 185.493038 
L 214.885849 185.729811 
L 215.169571 186.364185 
L 215.453292 186.621607 
L 215.737011 187.223649 
L 216.02073 187.503076 
L 216.304447 188.043125 
L 216.588162 188.338329 
L 217.15559 189.149189 
L 218.006721 190.345969 
L 218.857841 191.302005 
L 219.70895 192.358472 
L 219.992651 192.541343 
L 220.27635 192.945085 
L 220.560048 193.096179 
L 220.843745 193.483197 
L 221.127442 193.60331 
L 221.411136 193.986559 
L 221.69483 194.080467 
L 221.978523 194.437149 
L 222.262215 194.50313 
L 222.545905 194.832666 
L 222.829595 194.884442 
L 223.113284 195.196627 
L 223.396972 195.217953 
L 223.680659 195.491917 
L 223.964345 195.492861 
L 224.24803 195.739224 
L 224.531714 195.722918 
L 224.815397 195.946336 
L 225.09908 195.909912 
L 225.382762 196.114087 
L 225.666443 196.049257 
L 225.950123 196.211102 
L 226.233803 196.124344 
L 226.517482 196.260895 
L 226.801161 196.146207 
L 227.084838 196.257507 
L 227.368516 196.120808 
L 227.652192 196.200495 
L 227.935869 196.044278 
L 228.219544 196.098057 
L 228.50322 195.908994 
L 228.786894 195.93783 
L 229.070569 195.72227 
L 229.354243 195.73099 
L 229.637917 195.498333 
L 229.92159 195.465279 
L 230.205263 195.199401 
L 230.488936 195.146017 
L 230.772609 194.859429 
L 231.056282 194.791067 
L 231.339954 194.476154 
L 231.623627 194.379697 
L 231.907299 194.023853 
L 232.190971 193.903578 
L 232.474644 193.537978 
L 232.758316 193.39674 
L 233.041989 193.0035 
L 233.325661 192.84517 
L 233.609334 192.422335 
L 233.893007 192.23683 
L 234.17668 191.790969 
L 234.460353 191.595559 
L 234.744027 191.11858 
L 235.027701 190.896072 
L 235.311375 190.39952 
L 235.59505 190.162572 
L 235.878725 189.632787 
L 236.162401 189.38564 
L 236.446077 188.837255 
L 236.729753 188.56686 
L 237.013431 187.990505 
L 237.297108 187.715271 
L 237.580787 187.122731 
L 237.864465 186.824945 
L 238.148145 186.21246 
L 238.431825 185.901046 
L 238.715506 185.266672 
L 238.999188 184.941189 
L 239.282871 184.289709 
L 239.566554 183.954211 
L 239.850239 183.283174 
L 240.133924 182.936251 
L 240.41761 182.244368 
L 240.701297 181.906117 
L 240.984985 181.197181 
L 241.268674 180.840584 
L 241.552364 180.115296 
L 241.836055 179.760526 
L 242.119747 179.002953 
L 242.40344 178.637409 
L 242.687134 177.891353 
L 242.97083 177.525694 
L 243.254526 176.764606 
L 243.538224 176.392261 
L 243.821923 175.620151 
L 244.105623 175.248124 
L 244.389325 174.462202 
L 244.673027 174.086689 
L 244.956732 173.293928 
L 245.240437 172.928427 
L 245.524144 172.126429 
L 245.807851 171.759607 
L 246.091561 170.948425 
L 246.375271 170.573546 
L 246.658984 169.77136 
L 246.942697 169.389662 
L 247.226412 168.582466 
L 247.510128 168.224885 
L 247.793846 167.41852 
L 248.077565 167.073182 
L 248.361286 166.238783 
L 248.645008 165.910692 
L 248.928732 165.094786 
L 249.212456 164.780241 
L 249.496183 163.949053 
L 249.779911 163.668564 
L 250.063641 162.826514 
L 250.347372 162.546501 
L 250.631103 161.687666 
L 250.914832 161.440272 
L 251.19856 160.619228 
L 251.482287 160.351953 
L 251.766012 159.559632 
L 252.049735 159.293095 
L 252.333458 158.551168 
L 252.617178 158.259702 
L 252.900898 157.574639 
L 253.184615 157.242266 
L 253.468331 156.600269 
L 253.752046 156.249189 
L 254.319471 155.295994 
L 255.170598 153.862483 
L 256.021711 152.708785 
L 256.589113 151.927744 
L 256.872812 151.444912 
L 257.15651 151.208679 
L 257.440206 150.709869 
L 257.723901 150.504059 
L 258.007595 150.03366 
L 258.291287 149.862604 
L 258.574978 149.407376 
L 258.858668 149.260531 
L 259.142356 148.831553 
L 259.426043 148.712027 
L 259.70973 148.29961 
L 259.993414 148.196742 
L 260.277098 147.815149 
L 260.560781 147.739193 
L 260.844463 147.395094 
L 261.128143 147.33409 
L 261.411822 147.029837 
L 261.6955 146.988861 
L 261.979178 146.714336 
L 262.262854 146.705679 
L 262.54653 146.454411 
L 262.830204 146.470247 
L 263.113878 146.264994 
L 263.39755 146.2778 
L 263.681223 146.09595 
L 263.964893 146.155498 
L 264.248564 146.003597 
L 264.532233 146.092125 
L 264.815903 145.982334 
L 265.099571 146.096544 
L 265.383238 146.004548 
L 265.666905 146.143466 
L 265.950572 146.089845 
L 266.234237 146.264304 
L 266.517903 146.233612 
L 266.801568 146.429316 
L 267.085232 146.418256 
L 267.368896 146.661659 
L 267.65256 146.671586 
L 267.936223 146.940798 
L 268.219886 146.980624 
L 268.503549 147.295008 
L 268.787212 147.34711 
L 269.070874 147.682822 
L 269.354537 147.776939 
L 269.638198 148.148785 
L 269.921861 148.256495 
L 270.205523 148.665309 
L 270.489185 148.785022 
L 270.772847 149.213626 
L 271.056509 149.36786 
L 271.340171 149.827831 
L 271.623834 150.01493 
L 271.907496 150.507927 
L 272.19116 150.705547 
L 272.474822 151.224824 
L 272.758486 151.44571 
L 273.04215 151.987395 
L 273.325814 152.232541 
L 273.609478 152.805792 
L 273.893144 153.07812 
L 274.176809 153.656382 
L 274.460475 153.938699 
L 274.744142 154.562795 
L 275.027809 154.866999 
L 275.311477 155.51419 
L 275.595146 155.828692 
L 275.878815 156.492676 
L 276.162485 156.832292 
L 276.446156 157.526192 
L 276.729827 157.879905 
L 277.0135 158.600715 
L 277.297173 158.957427 
L 277.580847 159.691086 
L 277.864523 160.070223 
L 278.148198 160.810889 
L 278.431876 161.198531 
L 278.715554 161.952568 
L 278.999233 162.351961 
L 279.282913 163.135401 
L 279.566595 163.547822 
L 279.850277 164.364221 
L 280.133961 164.772231 
L 280.417646 165.595218 
L 280.701333 165.979718 
L 280.98502 166.841287 
L 281.268709 167.246675 
L 281.552399 168.089568 
L 281.83609 168.512897 
L 282.119783 169.366042 
L 282.403477 169.804422 
L 282.687173 170.649037 
L 282.97087 171.089219 
L 283.254568 171.935785 
L 283.538268 172.362301 
L 283.821969 173.237996 
L 284.105672 173.679043 
L 284.389376 174.555452 
L 284.673083 174.982814 
L 284.95679 175.863051 
L 285.240499 176.273791 
L 285.524209 177.156255 
L 285.807922 177.589997 
L 286.091635 178.46185 
L 286.375351 178.873181 
L 286.659068 179.739778 
L 286.942787 180.132966 
L 287.226507 181.017397 
L 287.510229 181.392735 
L 287.793952 182.299758 
L 288.077678 182.623475 
L 288.361404 183.562706 
L 288.645133 183.846517 
L 288.928863 184.754431 
L 289.212595 185.053563 
L 289.496325 185.956153 
L 289.780054 186.253843 
L 290.063781 187.094377 
L 290.347506 187.432721 
L 290.63123 188.206924 
L 290.914952 188.588156 
L 291.198672 189.315881 
L 291.482391 189.683987 
L 291.766108 190.398258 
L 292.049824 190.771021 
L 292.61725 191.804275 
L 293.468377 193.340457 
L 296.872748 198.179914 
L 297.156436 198.378151 
L 297.440122 198.782246 
L 297.723808 198.979218 
L 298.007492 199.361055 
L 298.291175 199.519306 
L 298.574856 199.864219 
L 298.858537 199.994687 
L 299.142215 200.307296 
L 299.425893 200.40678 
L 299.70957 200.689903 
L 299.993246 200.763867 
L 300.27692 201.021663 
L 300.560594 201.05804 
L 300.844266 201.290846 
L 301.127938 201.310488 
L 301.411608 201.49953 
L 301.695278 201.488104 
L 301.978946 201.637831 
L 302.262614 201.585022 
L 302.546281 201.709514 
L 302.829947 201.627256 
L 303.113612 201.715978 
L 303.397277 201.60502 
L 303.680941 201.671224 
L 303.964604 201.523466 
L 304.248267 201.548391 
L 304.531929 201.375724 
L 304.815591 201.373233 
L 305.099252 201.163151 
L 305.382913 201.141295 
L 305.666573 200.877823 
L 305.950233 200.824448 
L 306.233892 200.52817 
L 306.517551 200.464124 
L 306.801211 200.134623 
L 307.084869 200.039005 
L 307.368528 199.662599 
L 307.652186 199.541079 
L 307.935845 199.138978 
L 308.219503 198.989365 
L 308.503162 198.55313 
L 308.78682 198.376541 
L 309.070479 197.897655 
L 309.354137 197.704325 
L 309.637796 197.197704 
L 309.921455 196.972637 
L 310.205114 196.431852 
L 310.488773 196.193348 
L 310.772433 195.610319 
L 311.056093 195.33889 
L 311.339754 194.740456 
L 311.623415 194.441518 
L 311.907077 193.809382 
L 312.190739 193.496899 
L 312.474402 192.839316 
L 312.758065 192.507368 
L 313.041729 191.83242 
L 313.325393 191.468246 
L 313.609059 190.763962 
L 313.892725 190.378291 
L 314.176392 189.653745 
L 314.460059 189.24305 
L 314.743728 188.496252 
L 315.027398 188.082507 
L 315.311069 187.307547 
L 315.59474 186.857798 
L 315.878413 186.07362 
L 316.162086 185.617936 
L 316.445761 184.797006 
L 316.729437 184.358074 
L 317.013114 183.520046 
L 317.296792 183.034037 
L 317.580472 182.192139 
L 317.864153 181.711846 
L 318.147835 180.854077 
L 318.431518 180.361093 
L 318.715203 179.481704 
L 318.998889 178.973207 
L 319.282577 178.081846 
L 319.566266 177.574797 
L 319.849957 176.674839 
L 320.133648 176.181931 
L 320.417342 175.270246 
L 320.701037 174.760279 
L 320.984734 173.840185 
L 321.268432 173.321259 
L 322.119537 170.937102 
L 322.403242 170.429445 
L 322.686948 169.508363 
L 322.970656 168.976314 
L 323.254367 168.06457 
L 323.538078 167.579582 
L 323.821792 166.599079 
L 324.105507 166.114101 
L 324.389224 165.164913 
L 324.672943 164.686669 
L 324.956664 163.734446 
L 325.240386 163.284005 
L 325.52411 162.326639 
L 325.807836 161.900136 
L 326.091565 160.930607 
L 326.375294 160.528225 
L 326.659026 159.555844 
L 326.942756 159.192462 
L 327.226485 158.23491 
L 327.510212 157.84645 
L 327.793937 156.933724 
L 328.07766 156.530249 
L 328.361381 155.666963 
L 328.6451 155.242789 
L 328.928818 154.414594 
L 329.212534 153.994798 
L 329.496248 153.20978 
L 329.77996 152.763511 
L 330.631086 150.935097 
L 331.482195 149.373699 
L 332.333289 147.780697 
L 333.184367 146.467194 
L 333.468057 145.918047 
L 333.751744 145.616869 
L 334.03543 145.078385 
L 334.319115 144.799872 
L 334.602798 144.296543 
L 334.886479 144.039441 
L 335.170159 143.565554 
L 335.453837 143.335343 
L 335.737514 142.90493 
L 336.021189 142.691615 
L 336.304863 142.299159 
L 336.588535 142.125575 
L 336.872207 141.766602 
L 337.155876 141.617776 
L 337.439545 141.319813 
L 337.723212 141.196382 
L 338.006878 140.898535 
L 338.290543 140.803499 
L 338.574206 140.554118 
L 338.857869 140.505987 
L 339.14153 140.293402 
L 339.42519 140.269329 
L 339.708849 140.089563 
L 339.992507 140.116625 
L 340.276165 139.975888 
L 340.559821 140.032606 
L 340.843476 139.899243 
L 341.12713 140.00898 
L 341.410784 139.914069 
L 341.694437 140.068135 
L 341.97809 139.996578 
L 342.261741 140.192563 
L 342.545392 140.15271 
L 342.829042 140.389818 
L 343.112692 140.375438 
L 343.396341 140.643707 
L 343.67999 140.662066 
L 343.963638 140.974481 
L 344.247286 141.031312 
L 344.530934 141.386434 
L 344.814581 141.484465 
L 345.098228 141.86274 
L 345.381875 141.977867 
L 345.665522 142.394228 
L 345.949169 142.548296 
L 346.232815 143.004787 
L 346.516462 143.195522 
L 346.800108 143.68498 
L 347.083755 143.889792 
L 347.367401 144.407514 
L 347.651049 144.681415 
L 347.934696 145.253513 
L 348.218343 145.531978 
L 348.501991 146.127717 
L 348.785639 146.416654 
L 349.069287 147.039689 
L 349.352937 147.35575 
L 349.636586 148.025618 
L 349.920236 148.385568 
L 350.203887 149.07127 
L 350.487538 149.459623 
L 350.77119 150.185607 
L 351.054843 150.589929 
L 351.338496 151.333651 
L 351.62215 151.749927 
L 351.905805 152.529714 
L 352.189461 152.98072 
L 352.473118 153.783948 
L 352.756776 154.245081 
L 353.607755 156.408654 
L 353.891418 156.922477 
L 354.742411 159.210392 
L 355.026079 159.739611 
L 355.309747 160.660797 
L 355.593417 161.199285 
L 356.444434 163.650593 
L 356.72811 164.207971 
L 357.011787 165.182536 
L 357.295466 165.743594 
L 357.579146 166.743362 
L 357.862829 167.289008 
L 358.146512 168.286855 
L 358.430197 168.854546 
L 358.713884 169.877143 
L 358.997573 170.446563 
L 359.281263 171.460691 
L 359.564956 172.031147 
L 359.84865 173.047669 
L 360.132346 173.645974 
L 360.416044 174.673312 
L 360.699744 175.251242 
L 360.983445 176.266167 
L 361.267149 176.858904 
L 361.550854 177.873206 
L 361.834562 178.461806 
L 362.118271 179.465067 
L 362.401982 180.016583 
L 362.685695 181.059769 
L 362.969411 181.600619 
L 363.253128 182.626326 
L 363.536848 183.162482 
L 363.820569 184.18296 
L 364.104292 184.668701 
L 364.388018 185.727531 
L 364.671746 186.181676 
L 364.955475 187.254308 
L 365.239207 187.677471 
L 365.522937 188.72935 
L 365.806666 189.145175 
L 366.090392 190.131687 
L 366.374117 190.627033 
L 366.657839 191.549012 
L 366.94156 192.026084 
L 367.225278 192.92044 
L 367.508995 193.394523 
L 368.076422 194.729189 
L 368.927547 196.727639 
L 372.615557 203.419777 
L 373.466592 204.695502 
L 374.317613 205.656473 
L 375.168619 206.606505 
L 375.452285 206.782789 
L 375.735949 207.102821 
L 376.019613 207.247189 
L 376.303274 207.525821 
L 377.154251 207.948927 
L 377.437908 208.129155 
L 377.721563 208.160829 
L 378.005218 208.314876 
L 378.288871 208.316289 
L 378.572523 208.454192 
L 378.856174 208.38329 
L 379.139824 208.485678 
L 379.423474 208.375458 
L 379.707122 208.456961 
L 379.99077 208.298178 
L 380.274417 208.322862 
L 380.558063 208.108953 
L 380.841708 208.130952 
L 381.125353 207.870342 
L 381.408997 207.840905 
L 381.692641 207.530934 
L 381.976284 207.483735 
L 382.259927 207.137223 
L 382.543569 207.039232 
L 382.827212 206.654982 
L 383.110853 206.525419 
L 383.394495 206.101887 
L 383.678136 205.936622 
L 383.961778 205.472463 
L 384.245419 205.276487 
L 384.52906 204.75286 
L 384.812701 204.535609 
L 385.096342 203.980121 
L 385.379984 203.710002 
L 385.663625 203.130596 
L 385.947267 202.843359 
L 386.230909 202.216469 
L 386.514551 201.895369 
L 386.798194 201.217626 
L 387.081837 200.854031 
L 387.365481 200.163378 
L 387.649125 199.775127 
L 387.93277 199.043919 
L 388.216415 198.622018 
L 389.067356 196.614929 
L 389.351004 196.13722 
L 390.201956 193.956993 
L 390.485608 193.427646 
L 391.336571 191.091822 
L 391.620228 190.524336 
L 392.471207 188.056272 
L 392.754868 187.449665 
L 393.605864 184.863483 
L 393.889532 184.213355 
L 394.740546 181.50713 
L 395.02422 180.855206 
L 395.875255 178.081673 
L 396.158936 177.400846 
L 397.009993 174.577173 
L 397.293682 173.920083 
L 398.144762 171.014588 
L 398.42846 170.361464 
L 398.712159 169.252134 
L 398.995861 168.591317 
L 399.279565 167.45441 
L 399.56327 166.788139 
L 400.414401 163.915853 
L 400.698116 163.275981 
L 400.981833 162.182452 
L 401.265551 161.552823 
L 401.549273 160.4415 
L 401.832996 159.825664 
L 402.116722 158.711924 
L 402.40045 158.138662 
L 402.684181 156.995127 
L 402.967912 156.475544 
L 403.251642 155.341933 
L 403.535369 154.825593 
L 403.819094 153.764218 
L 404.102816 153.192151 
L 404.386537 152.165624 
L 404.670255 151.597788 
L 404.953971 150.612074 
L 405.237685 150.062157 
L 405.805105 148.543153 
L 406.65622 146.304788 
L 410.060482 139.013916 
L 410.911501 137.645323 
L 411.478837 136.772253 
L 412.329829 135.527452 
L 413.180804 134.639684 
L 413.464459 134.250177 
L 414.315415 133.587331 
L 414.599064 133.301186 
L 414.882711 133.190193 
L 415.166358 132.934837 
L 415.450002 132.916968 
L 415.733646 132.674832 
L 416.017288 132.676577 
L 416.300929 132.479011 
L 416.584569 132.55431 
L 416.868208 132.385776 
L 417.151845 132.513534 
L 417.435482 132.385755 
L 417.719118 132.559592 
L 418.002753 132.471301 
L 418.286386 132.677114 
L 418.57002 132.639253 
L 418.853652 132.903901 
L 419.137284 132.894016 
L 419.420914 133.206851 
L 419.704545 133.235537 
L 419.988174 133.609708 
L 420.271804 133.677473 
L 420.555433 134.080508 
L 420.839061 134.202849 
L 421.122689 134.640599 
L 421.406318 134.797572 
L 421.689945 135.291197 
L 421.973573 135.489402 
L 422.2572 136.028734 
L 422.540828 136.267853 
L 422.824455 136.847401 
L 423.108083 137.105173 
L 423.39171 137.728515 
L 423.675338 138.045555 
L 423.958966 138.713857 
L 424.242594 139.060957 
L 424.526223 139.761374 
L 424.809852 140.136426 
L 425.660742 142.105496 
L 425.944374 142.569303 
L 426.795272 144.698233 
L 427.078906 145.20719 
L 427.929815 147.574978 
L 428.213454 148.157437 
L 429.064376 150.671299 
L 429.348019 151.304781 
L 430.198957 153.998937 
L 430.482606 154.671171 
L 431.333561 157.507237 
L 431.617217 158.20424 
L 432.468192 161.146125 
L 432.751855 161.882181 
L 433.602853 164.953672 
L 433.886523 165.692974 
L 434.737545 168.804776 
L 435.021224 169.55995 
L 435.588587 171.522012 
L 436.439648 174.712987 
L 436.72334 175.469687 
L 437.574429 178.67274 
L 437.85813 179.386521 
L 438.42554 181.384513 
L 438.709248 182.59215 
L 438.992959 183.303906 
L 439.276672 184.517126 
L 439.560388 185.219617 
L 439.844106 186.433647 
L 440.127828 187.115732 
L 440.411551 188.355399 
L 440.695277 188.973434 
L 440.979005 190.232237 
L 441.262736 190.793149 
L 441.546467 192.046252 
L 441.830196 192.637816 
L 442.113922 193.837263 
L 442.397646 194.460175 
L 442.681367 195.560283 
L 442.965086 196.202762 
L 443.248802 197.284112 
L 443.532516 197.879009 
L 444.383642 200.47672 
L 444.951047 202.004272 
L 446.369518 205.520589 
L 447.220572 207.5462 
L 449.773613 212.32886 
L 450.624589 213.63205 
L 452.893777 215.975107 
L 453.177419 216.085458 
L 453.461058 216.351346 
L 453.744696 216.384826 
L 454.028333 216.609121 
L 454.311968 216.586089 
L 454.595602 216.768172 
L 454.879235 216.684956 
L 455.162866 216.838616 
L 455.446497 216.70027 
L 455.730126 216.818447 
L 456.013755 216.628359 
L 456.297382 216.677161 
L 456.581008 216.429363 
L 456.864634 216.452643 
L 457.148259 216.143368 
L 457.431882 216.123202 
L 457.715506 215.773305 
L 457.999128 215.718581 
L 458.282751 215.306444 
L 458.566372 215.191838 
L 458.849993 214.736669 
L 459.133614 214.581034 
L 459.417235 214.06144 
L 459.700855 213.859028 
L 459.984475 213.312818 
L 460.268095 213.061909 
L 460.551715 212.473668 
L 460.835334 212.189187 
L 461.118954 211.542742 
L 461.402574 211.190752 
L 461.686195 210.496096 
L 461.969815 210.12139 
L 462.253436 209.378581 
L 462.537057 208.948855 
L 463.387923 206.908978 
L 463.671546 206.411668 
L 464.522421 204.114535 
L 464.806047 203.542821 
L 465.656932 201.004793 
L 465.940562 200.37497 
L 466.791462 197.619872 
L 467.075097 196.937946 
L 467.926012 194.015366 
L 468.209654 193.268144 
L 469.060589 190.194918 
L 469.344237 189.406462 
L 470.195193 186.204936 
L 470.478849 185.360137 
L 471.329829 182.033016 
L 471.613493 181.175371 
L 472.4645 177.776277 
L 472.748173 176.897213 
L 473.599207 173.431882 
L 473.88289 172.564505 
L 474.733954 169.031346 
L 475.017647 168.186431 
L 475.585041 165.970774 
L 476.436152 162.484555 
L 476.719861 161.661436 
L 477.287287 159.49163 
L 478.138447 156.06265 
L 478.422172 155.283349 
L 478.705901 153.946586 
L 478.989632 153.229957 
L 479.273362 151.911605 
L 479.55709 151.190257 
L 479.840815 149.895317 
L 480.124537 149.1908 
L 480.408257 147.95385 
L 480.691974 147.222563 
L 481.259399 145.287451 
L 482.110516 142.354454 
L 482.961608 139.888559 
L 484.380042 135.779223 
L 487.216715 129.216484 
L 489.485885 125.576796 
L 489.769522 125.348641 
L 490.053157 124.923685 
L 490.336789 124.738945 
L 490.620421 124.346855 
L 490.90405 124.219443 
L 491.187678 123.876532 
L 491.471303 123.829165 
L 491.754928 123.535493 
L 492.03855 123.54093 
L 492.322172 123.290026 
L 492.605791 123.371241 
L 492.88941 123.167893 
L 493.173026 123.278307 
L 493.456642 123.109551 
L 493.740256 123.28735 
L 494.02387 123.184284 
L 494.307482 123.427369 
L 494.591093 123.370666 
L 494.874703 123.661731 
L 495.158313 123.663474 
L 495.441921 124.015281 
L 495.725529 124.06779 
L 496.009136 124.486157 
L 496.292742 124.577915 
L 496.576348 125.051062 
L 496.859953 125.219794 
L 497.143558 125.715088 
L 497.427162 125.916183 
L 497.710766 126.480929 
L 497.99437 126.740922 
L 498.277974 127.372162 
L 498.561578 127.675382 
L 498.845181 128.358808 
L 499.128785 128.709447 
L 499.412389 129.42863 
L 499.695993 129.840236 
L 499.979597 130.616109 
L 500.263202 131.067781 
L 500.546807 131.896547 
L 500.830412 132.375146 
L 501.681232 134.714741 
L 501.96484 135.28973 
L 502.815669 137.87818 
L 503.099281 138.549421 
L 503.950123 141.377621 
L 504.23374 142.103775 
L 505.084598 145.17823 
L 505.36822 145.994308 
L 506.219097 149.228892 
L 506.502726 150.080411 
L 507.353625 153.51334 
L 507.920901 155.723004 
L 508.204542 156.660574 
L 509.055478 160.274158 
L 509.906436 163.609472 
L 510.757416 167.364588 
L 511.608419 170.791648 
L 512.459446 174.657481 
L 512.743128 175.633979 
L 513.594189 179.528413 
L 513.877883 180.462436 
L 514.445278 182.881049 
L 515.296392 186.761445 
L 515.580104 187.645514 
L 515.863818 189.119472 
L 516.147535 189.982629 
L 516.431255 191.45913 
L 516.714979 192.321041 
L 516.998705 193.785131 
L 517.282435 194.569653 
L 517.566167 196.017546 
L 517.849896 196.825581 
L 518.133621 198.238754 
L 518.417344 199.058869 
L 518.984781 201.240187 
L 519.835912 204.533681 
L 520.687017 207.332113 
L 521.82178 211.107753 
L 523.807503 216.813063 
L 526.076735 221.92505 
L 526.360377 222.394323 
L 526.360377 222.394323 
" clip-path="url(#p7da9e310a1)" style="fill: none; stroke: #153b7a; stroke-width: 1.7; stroke-linecap: square"/>
   </g>
   <g id="line2d_28">
    <path d="M 87.787649 178.137251 
L 98.911119 159.14973 
L 101.35293 155.778619 
L 102.166847 154.741434 
L 105.693713 151.400321 
L 106.507582 150.821044 
L 108.406581 149.942075 
L 109.220426 149.714237 
L 110.8481 149.552834 
L 112.475756 149.837755 
L 114.103398 150.513236 
L 115.731032 151.597653 
L 117.90121 153.627226 
L 120.071398 156.293562 
L 122.784169 160.378875 
L 127.124746 168.184819 
L 129.023823 171.946135 
L 129.837729 173.47886 
L 130.651645 175.184572 
L 131.465572 176.735729 
L 132.550825 178.856167 
L 133.907415 181.482176 
L 137.977035 188.54768 
L 139.876092 191.318551 
L 141.232526 193.07182 
L 143.945308 195.726054 
L 146.115461 197.039509 
L 147.471779 197.465507 
L 148.556821 197.596219 
L 149.91311 197.451663 
L 150.726877 197.214824 
L 151.811895 196.737699 
L 153.439415 195.624652 
L 155.066931 194.093283 
L 156.69445 192.136594 
L 159.13575 188.503739 
L 160.492046 186.183561 
L 163.204691 180.980096 
L 167.27384 172.291452 
L 172.699811 160.550325 
L 174.870327 156.29063 
L 177.583366 151.596909 
L 180.838837 147.309365 
L 182.737781 145.600667 
L 183.551598 145.035371 
L 185.179206 144.312743 
L 186.806785 144.089746 
L 188.434341 144.36685 
L 190.06188 145.163629 
L 191.689409 146.444956 
L 193.859444 148.909868 
L 195.758235 151.734891 
L 196.843267 153.572504 
L 198.19957 156.084927 
L 201.454778 163.011176 
L 212.035332 188.204579 
L 215.019563 194.186192 
L 216.647246 196.998566 
L 219.359936 200.653725 
L 220.987487 202.200442 
L 222.343748 203.08276 
L 223.428738 203.527745 
L 224.513714 203.71214 
L 225.869917 203.579502 
L 226.683632 203.328491 
L 228.039813 202.572099 
L 229.124752 201.702012 
L 230.209688 200.577846 
L 231.02339 199.598125 
L 232.650797 197.232361 
L 234.278216 194.395435 
L 236.719382 189.334191 
L 238.346864 185.515228 
L 240.245641 180.769734 
L 249.197977 156.770731 
L 252.182344 149.769684 
L 253.538806 146.932292 
L 255.980333 142.670675 
L 257.065415 141.132022 
L 258.150474 139.829674 
L 259.235511 138.805644 
L 260.049276 138.162719 
L 261.405527 137.498928 
L 262.219265 137.279688 
L 263.304237 137.249413 
L 264.389197 137.505334 
L 266.016619 138.42379 
L 267.644028 139.948931 
L 269.542667 142.511457 
L 270.627606 144.31182 
L 271.983788 146.873633 
L 274.15371 151.701414 
L 276.866192 158.725966 
L 282.020272 173.966897 
L 287.446257 190.101364 
L 290.701742 198.490803 
L 292.600646 202.648106 
L 294.770713 206.513103 
L 296.12695 208.368239 
L 297.211912 209.562643 
L 298.296851 210.480128 
L 299.38177 211.062058 
L 300.466671 211.365619 
L 301.551556 211.346982 
L 302.907644 210.856286 
L 303.721289 210.346007 
L 305.077355 209.09183 
L 305.890992 208.126535 
L 307.518263 205.682133 
L 309.14554 202.597703 
L 311.315271 197.619163 
L 314.027509 190.149321 
L 317.011117 180.77285 
L 320.537458 168.889974 
L 324.064138 157.035541 
L 327.319775 147.036907 
L 329.490074 141.220336 
L 331.117709 137.451888 
L 332.474016 134.767003 
L 333.830277 132.526315 
L 335.186494 130.787645 
L 336.542671 129.530652 
L 337.898813 128.840583 
L 338.712483 128.646159 
L 339.797363 128.741718 
L 340.882228 129.189202 
L 341.967082 129.96852 
L 343.051928 131.082159 
L 344.679189 133.405995 
L 346.306451 136.452632 
L 348.204939 140.879439 
L 349.561021 144.502644 
L 352.002033 152.043822 
L 353.900673 158.51252 
L 365.023054 199.286939 
L 367.193257 205.894883 
L 368.549557 209.608675 
L 370.71952 214.486647 
L 371.80445 216.464104 
L 372.889349 218.121356 
L 373.974219 219.395206 
L 374.787853 220.123083 
L 375.872679 220.753713 
L 376.957482 220.966339 
L 378.313461 220.721501 
L 379.127037 220.282121 
L 380.211794 219.359773 
L 381.56773 217.626646 
L 382.381289 216.336548 
L 384.008405 213.117561 
L 385.635532 209.126257 
L 387.805072 202.722598 
L 389.703475 196.226601 
L 391.330735 190.134657 
L 394.314215 178.05859 
L 398.111766 161.991439 
L 401.095914 149.748362 
L 404.080175 138.660897 
L 406.250352 131.73083 
L 407.606629 127.991926 
L 409.23408 124.219567 
L 410.590227 121.710835 
L 411.40389 120.5086 
L 412.759956 118.987805 
L 413.573574 118.383466 
L 414.658377 117.986438 
L 415.471965 117.956229 
L 416.014351 118.076745 
L 416.556732 118.310256 
L 417.370297 118.839802 
L 418.726223 120.323371 
L 419.539773 121.491104 
L 420.624502 123.444983 
L 422.251596 127.135277 
L 423.878703 131.666841 
L 426.048223 138.932727 
L 428.217822 147.335532 
L 431.472438 161.57194 
L 440.424424 202.841975 
L 442.865886 212.46818 
L 444.493394 218.098447 
L 446.392024 223.651405 
L 447.748108 226.892269 
L 448.832931 229.01375 
L 449.646524 230.345879 
L 450.731285 231.669887 
L 451.544835 232.358547 
L 452.629543 232.86612 
L 453.171888 232.925416 
L 453.714227 232.882434 
L 454.527726 232.581086 
L 455.612376 231.774026 
L 456.425855 230.800113 
L 457.239327 229.624832 
L 458.323952 227.591635 
L 459.950887 223.698902 
L 461.577832 218.847678 
L 463.475969 212.085461 
L 465.374165 204.226437 
L 467.543637 194.214216 
L 470.255677 180.602296 
L 477.579658 142.568885 
L 480.292557 130.135031 
L 482.191388 122.53444 
L 483.5476 117.768454 
L 485.174953 112.943036 
L 486.802204 109.134802 
L 487.886986 107.229427 
L 488.97173 105.811469 
L 489.785265 105.13819 
L 490.327613 104.81437 
L 491.14112 104.572276 
L 492.496934 104.924229 
L 493.310406 105.505368 
L 494.12387 106.457517 
L 494.937325 107.615218 
L 496.293074 110.348851 
L 497.37767 113.053155 
L 498.462267 116.263522 
L 499.818025 120.930829 
L 501.716124 128.611262 
L 503.071949 134.815669 
L 505.512555 147.259225 
L 507.953357 160.851115 
L 516.091219 207.789279 
L 518.261411 218.86961 
L 520.431366 228.504627 
L 522.601093 236.466677 
L 523.957065 240.496801 
L 525.041787 243.0992 
L 526.397627 245.561069 
L 526.397627 245.561069 
" clip-path="url(#p7da9e310a1)" style="fill: none; stroke-dasharray: 6.29,2.72; stroke-dashoffset: 0; stroke: #9a3412; stroke-width: 1.7"/>
   </g>
   <g id="line2d_29">
    <path d="M 87.787649 179.586119 
L 89.668609 190.016769 
L 90.865622 196.384198 
L 92.062552 202.659955 
L 93.601337 210.186309 
L 94.456158 214.22681 
L 98.216896 229.068706 
L 99.926093 234.131436 
L 101.806071 238.2921 
L 102.660566 239.693873 
L 103.68593 240.881497 
L 105.053041 241.763602 
L 106.420116 241.71867 
L 107.958047 240.535552 
L 108.470688 239.976986 
L 110.521249 236.263314 
L 112.571843 230.632071 
L 114.622511 223.304158 
L 117.186012 212.003205 
L 119.06607 202.545918 
L 127.272084 155.168059 
L 128.982103 145.420829 
L 130.520983 137.032209 
L 134.282077 119.199026 
L 135.136758 115.900907 
L 135.9914 112.738055 
L 137.529665 107.905009 
L 139.067826 104.090801 
L 139.92232 102.467346 
L 141.28946 100.614582 
L 141.802123 100.136854 
L 142.485664 99.680182 
L 143.510957 99.513659 
L 144.536232 99.887681 
L 146.245002 101.686273 
L 147.953765 104.963218 
L 149.491669 109.125674 
L 150.175192 111.29762 
L 151.371379 115.599264 
L 153.080281 122.786683 
L 155.814734 136.420557 
L 159.917064 160.437961 
L 164.875368 191.62701 
L 167.09832 204.982021 
L 168.295158 211.903777 
L 172.056041 230.769474 
L 175.303408 242.638766 
L 176.157892 245.001171 
L 177.18323 247.346195 
L 178.208529 249.162022 
L 179.233792 250.388175 
L 180.429897 251.148281 
L 180.771635 251.205663 
L 180.942503 251.272199 
L 182.309431 250.785203 
L 184.018062 248.757204 
L 185.897553 244.683809 
L 186.410146 243.315767 
L 188.631426 235.67339 
L 189.485793 232.195084 
L 192.903504 215.157587 
L 198.031108 183.275094 
L 202.647359 152.327656 
L 206.751041 126.783344 
L 210.85358 106.36254 
L 213.075366 98.313999 
L 214.784264 93.783927 
L 215.98042 91.590105 
L 216.663914 90.673101 
L 218.030862 89.638727 
L 219.226906 89.655638 
L 219.739488 89.883318 
L 220.593785 90.669415 
L 221.106359 91.290344 
L 222.302363 93.453483 
L 222.814936 94.57195 
L 224.181808 98.347778 
L 226.232167 105.84547 
L 228.282633 115.378807 
L 231.358635 132.865085 
L 235.6317 161.589898 
L 241.786978 205.230843 
L 245.890063 230.815718 
L 248.966588 245.863509 
L 250.333743 251.167676 
L 251.871671 255.904045 
L 252.726027 257.953562 
L 253.922075 260.109076 
L 254.434651 260.814603 
L 255.801481 261.769958 
L 256.31403 261.832574 
L 256.484878 261.884544 
L 257.851647 261.117066 
L 259.389237 258.864412 
L 259.901766 257.835042 
L 261.781047 252.596309 
L 262.293586 250.89434 
L 264.685505 240.759399 
L 267.761108 223.676181 
L 271.178995 200.65523 
L 281.949784 121.27811 
L 285.026647 103.027992 
L 287.248405 92.561783 
L 288.957241 86.305608 
L 290.324198 82.55209 
L 291.349359 80.489328 
L 292.203629 79.242423 
L 293.057874 78.544397 
L 293.912099 78.241787 
L 294.766307 78.507834 
L 295.107987 78.736661 
L 295.791341 79.398236 
L 296.303854 80.098066 
L 297.670548 82.805245 
L 299.037248 86.737661 
L 300.745657 93.210619 
L 302.454136 101.3741 
L 304.504446 113.113112 
L 307.067618 130.423361 
L 308.092994 137.904888 
L 309.802111 151.06042 
L 311.682386 166.051584 
L 314.588823 189.744768 
L 319.718246 228.804382 
L 323.136709 249.958804 
L 325.529114 261.245968 
L 327.237754 267.223014 
L 328.262863 269.932888 
L 329.458763 272.172686 
L 329.971274 272.879551 
L 331.167099 273.714394 
L 331.508756 273.766386 
L 331.679583 273.79607 
L 331.850409 273.675624 
L 332.021236 273.743432 
L 333.04618 273.071647 
L 334.07111 271.658411 
L 335.779318 267.695961 
L 337.145895 263.123757 
L 339.195825 254.026782 
L 341.758425 239.236139 
L 342.954406 231.265426 
L 347.568299 195.311656 
L 352.183841 155.615575 
L 354.406773 136.751035 
L 358.167997 107.714861 
L 361.927988 84.83387 
L 363.465856 77.740581 
L 365.174421 71.684618 
L 366.541158 68.338236 
L 367.395325 66.887038 
L 368.420289 65.846596 
L 369.445219 65.626751 
L 370.470125 66.144428 
L 371.665828 67.836209 
L 372.178268 68.856946 
L 373.032334 70.958179 
L 373.715589 73.081052 
L 374.569663 76.09409 
L 375.936207 82.017166 
L 377.815289 92.213964 
L 378.840299 98.637403 
L 380.207057 108.071124 
L 381.57392 118.360365 
L 383.453556 133.693251 
L 387.726491 172.039771 
L 394.22363 229.939351 
L 397.642112 255.239458 
L 400.717878 272.444151 
L 401.91382 277.582092 
L 403.622153 282.974956 
L 404.305442 284.539745 
L 404.988709 285.724702 
L 405.501147 286.450176 
L 406.525994 287.156979 
L 406.867602 287.171489 
L 407.55081 287.046758 
L 408.234007 286.49772 
L 409.600382 284.278537 
L 410.625156 281.666001 
L 411.991529 276.958512 
L 413.699537 269.065788 
L 415.236814 260.259844 
L 416.090897 254.774568 
L 418.140843 239.786656 
L 420.532779 219.778909 
L 424.976163 177.821301 
L 427.882462 149.309593 
L 431.986031 111.357391 
L 435.062668 87.030776 
L 437.796714 70.031463 
L 438.650977 65.675775 
L 440.188518 59.330139 
L 440.87182 57.029845 
L 442.238345 53.637186 
L 442.921574 52.535079 
L 443.604782 51.826145 
L 444.45877 51.469635 
L 444.971152 51.52913 
L 445.825108 52.167851 
L 446.337476 52.859082 
L 447.020627 54.048955 
L 448.045348 56.645908 
L 449.411648 61.42441 
L 451.119562 69.515956 
L 452.827558 79.714083 
L 454.877321 94.540649 
L 456.927331 111.707349 
L 460.857427 149.651712 
L 463.763213 179.725538 
L 465.985888 202.840102 
L 469.405445 236.453345 
L 472.481965 262.688949 
L 475.899219 284.942733 
L 476.9242 290.05015 
L 477.949103 294.280681 
L 479.315535 298.558456 
L 480.681865 301.243752 
L 481.706558 302.081053 
L 482.731215 302.003128 
L 483.755845 301.074467 
L 485.463531 297.288127 
L 486.829677 292.446742 
L 488.195847 286.053317 
L 490.074411 274.744235 
L 491.099141 267.490716 
L 492.294728 258.212286 
L 495.027845 233.663559 
L 497.76157 205.706942 
L 504.428271 132.493486 
L 507.505707 101.000255 
L 509.898508 79.468832 
L 512.803231 58.267963 
L 514.340706 49.650112 
L 515.023966 46.450562 
L 515.70719 43.59915 
L 516.561177 40.676193 
L 517.244333 38.795414 
L 517.756683 37.626692 
L 518.781344 36.103749 
L 519.293658 35.832901 
L 519.805962 35.643458 
L 520.830546 36.188111 
L 521.513588 37.077149 
L 522.708897 39.727081 
L 523.562684 42.384194 
L 525.099514 49.020679 
L 525.782561 52.551462 
L 526.465621 56.58898 
L 526.465621 56.58898 
" clip-path="url(#p7da9e310a1)" style="fill: none; stroke: #0f766e; stroke-width: 1.7; stroke-linecap: square"/>
   </g>
   <g id="patch_3">
    <path d="M 65.85375 315.475457 
L 65.85375 22.318125 
" style="fill: none; stroke: #000000; stroke-width: 0.8; stroke-linejoin: miter; stroke-linecap: square"/>
   </g>
   <g id="patch_4">
    <path d="M 65.85375 315.475457 
L 548.39952 315.475457 
" style="fill: none; stroke: #000000; stroke-width: 0.8; stroke-linejoin: miter; stroke-linecap: square"/>
   </g>
   <g id="text_16">
    <!-- V1 Re = 160 late-time lift-coefficient response -->
    <g transform="translate(165.99351 16.318125) scale(0.12 -0.12)">
     <defs>
      <path id="DejaVuSerif-56" d="M 1119 4331 
L 2497 750 
L 3872 4331 
L 3347 4331 
L 3347 4666 
L 4716 4666 
L 4716 4331 
L 4263 4331 
L 2597 0 
L 2059 0 
L 403 4331 
L -63 4331 
L -63 4666 
L 1638 4666 
L 1638 4331 
L 1119 4331 
z
" transform="scale(0.015625)"/>
      <path id="DejaVuSerif-52" d="M 3066 2316 
Q 3284 2256 3442 2114 
Q 3600 1972 3725 1716 
L 4403 331 
L 4972 331 
L 4972 0 
L 3872 0 
L 3144 1484 
Q 2934 1916 2759 2042 
Q 2584 2169 2278 2169 
L 1581 2169 
L 1581 331 
L 2241 331 
L 2241 0 
L 353 0 
L 353 331 
L 947 331 
L 947 4331 
L 353 4331 
L 353 4666 
L 2719 4666 
Q 3400 4666 3770 4341 
Q 4141 4016 4141 3419 
Q 4141 2938 3870 2661 
Q 3600 2384 3066 2316 
z
M 1581 2503 
L 2503 2503 
Q 2975 2503 3200 2726 
Q 3425 2950 3425 3419 
Q 3425 3888 3200 4109 
Q 2975 4331 2503 4331 
L 1581 4331 
L 1581 2503 
z
" transform="scale(0.015625)"/>
      <path id="DejaVuSerif-3d" d="M 678 2894 
L 4684 2894 
L 4684 2394 
L 678 2394 
L 678 2894 
z
M 678 1619 
L 4684 1619 
L 4684 1119 
L 678 1119 
L 678 1619 
z
" transform="scale(0.015625)"/>
      <path id="DejaVuSerif-6c" d="M 1313 331 
L 1856 331 
L 1856 0 
L 184 0 
L 184 331 
L 738 331 
L 738 4531 
L 184 4531 
L 184 4863 
L 1313 4863 
L 1313 331 
z
" transform="scale(0.015625)"/>
      <path id="DejaVuSerif-66" d="M 2753 4078 
L 2450 4078 
Q 2447 4313 2317 4434 
Q 2188 4556 1941 4556 
Q 1619 4556 1487 4379 
Q 1356 4203 1356 3750 
L 1356 3322 
L 2284 3322 
L 2284 2988 
L 1356 2988 
L 1356 331 
L 2094 331 
L 2094 0 
L 231 0 
L 231 331 
L 781 331 
L 781 2988 
L 231 2988 
L 231 3322 
L 781 3322 
L 781 3738 
Q 781 4294 1070 4578 
Q 1359 4863 1919 4863 
Q 2128 4863 2337 4825 
Q 2547 4788 2753 4709 
L 2753 4078 
z
" transform="scale(0.015625)"/>
      <path id="DejaVuSerif-63" d="M 3291 997 
Q 3169 466 2822 187 
Q 2475 -91 1925 -91 
Q 1200 -91 759 389 
Q 319 869 319 1663 
Q 319 2459 759 2936 
Q 1200 3413 1925 3413 
Q 2241 3413 2553 3339 
Q 2866 3266 3181 3116 
L 3181 2266 
L 2847 2266 
Q 2781 2703 2561 2903 
Q 2341 3103 1931 3103 
Q 1466 3103 1228 2742 
Q 991 2381 991 1663 
Q 991 944 1227 581 
Q 1463 219 1931 219 
Q 2303 219 2525 412 
Q 2747 606 2828 997 
L 3291 997 
z
" transform="scale(0.015625)"/>
      <path id="DejaVuSerif-72" d="M 3059 3328 
L 3059 2497 
L 2728 2497 
Q 2713 2744 2591 2866 
Q 2469 2988 2234 2988 
Q 1809 2988 1582 2694 
Q 1356 2400 1356 1850 
L 1356 331 
L 2022 331 
L 2022 0 
L 263 0 
L 263 331 
L 781 331 
L 781 2994 
L 231 2994 
L 231 3322 
L 1356 3322 
L 1356 2731 
Q 1525 3078 1790 3245 
Q 2056 3413 2438 3413 
Q 2578 3413 2733 3391 
Q 2888 3369 3059 3328 
z
" transform="scale(0.015625)"/>
      <path id="DejaVuSerif-70" d="M 1313 1825 
L 1313 1497 
Q 1313 897 1542 583 
Q 1772 269 2209 269 
Q 2650 269 2876 622 
Q 3103 975 3103 1663 
Q 3103 2353 2876 2703 
Q 2650 3053 2209 3053 
Q 1772 3053 1542 2737 
Q 1313 2422 1313 1825 
z
M 738 2988 
L 184 2988 
L 184 3322 
L 1313 3322 
L 1313 2803 
Q 1481 3116 1742 3264 
Q 2003 3413 2388 3413 
Q 3000 3413 3387 2928 
Q 3775 2444 3775 1663 
Q 3775 881 3387 395 
Q 3000 -91 2388 -91 
Q 2003 -91 1742 57 
Q 1481 206 1313 519 
L 1313 -997 
L 1856 -997 
L 1856 -1331 
L 184 -1331 
L 184 -997 
L 738 -997 
L 738 2988 
z
" transform="scale(0.015625)"/>
     </defs>
     <use xlink:href="#DejaVuSerif-56"/>
     <use xlink:href="#DejaVuSerif-31" transform="translate(72.216797 0)"/>
     <use xlink:href="#DejaVuSerif-20" transform="translate(135.839844 0)"/>
     <use xlink:href="#DejaVuSerif-52" transform="translate(167.626953 0)"/>
     <use xlink:href="#DejaVuSerif-65" transform="translate(242.919922 0)"/>
     <use xlink:href="#DejaVuSerif-20" transform="translate(302.099609 0)"/>
     <use xlink:href="#DejaVuSerif-3d" transform="translate(333.886719 0)"/>
     <use xlink:href="#DejaVuSerif-20" transform="translate(417.675781 0)"/>
     <use xlink:href="#DejaVuSerif-31" transform="translate(449.462891 0)"/>
     <use xlink:href="#DejaVuSerif-36" transform="translate(513.085938 0)"/>
     <use xlink:href="#DejaVuSerif-30" transform="translate(576.708984 0)"/>
     <use xlink:href="#DejaVuSerif-20" transform="translate(640.332031 0)"/>
     <use xlink:href="#DejaVuSerif-6c" transform="translate(672.119141 0)"/>
     <use xlink:href="#DejaVuSerif-61" transform="translate(704.101562 0)"/>
     <use xlink:href="#DejaVuSerif-74" transform="translate(763.720703 0)"/>
     <use xlink:href="#DejaVuSerif-65" transform="translate(803.90625 0)"/>
     <use xlink:href="#DejaVuSerif-2d" transform="translate(863.085938 0)"/>
     <use xlink:href="#DejaVuSerif-74" transform="translate(896.875 0)"/>
     <use xlink:href="#DejaVuSerif-69" transform="translate(937.060547 0)"/>
     <use xlink:href="#DejaVuSerif-6d" transform="translate(969.042969 0)"/>
     <use xlink:href="#DejaVuSerif-65" transform="translate(1063.867188 0)"/>
     <use xlink:href="#DejaVuSerif-20" transform="translate(1123.046875 0)"/>
     <use xlink:href="#DejaVuSerif-6c" transform="translate(1154.833984 0)"/>
     <use xlink:href="#DejaVuSerif-69" transform="translate(1186.816406 0)"/>
     <use xlink:href="#DejaVuSerif-66" transform="translate(1218.798828 0)"/>
     <use xlink:href="#DejaVuSerif-74" transform="translate(1255.810547 0)"/>
     <use xlink:href="#DejaVuSerif-2d" transform="translate(1295.996094 0)"/>
     <use xlink:href="#DejaVuSerif-63" transform="translate(1329.785156 0)"/>
     <use xlink:href="#DejaVuSerif-6f" transform="translate(1385.791016 0)"/>
     <use xlink:href="#DejaVuSerif-65" transform="translate(1445.996094 0)"/>
     <use xlink:href="#DejaVuSerif-66" transform="translate(1505.175781 0)"/>
     <use xlink:href="#DejaVuSerif-66" transform="translate(1542.1875 0)"/>
     <use xlink:href="#DejaVuSerif-69" transform="translate(1579.199219 0)"/>
     <use xlink:href="#DejaVuSerif-63" transform="translate(1611.181641 0)"/>
     <use xlink:href="#DejaVuSerif-69" transform="translate(1667.1875 0)"/>
     <use xlink:href="#DejaVuSerif-65" transform="translate(1699.169922 0)"/>
     <use xlink:href="#DejaVuSerif-6e" transform="translate(1758.349609 0)"/>
     <use xlink:href="#DejaVuSerif-74" transform="translate(1822.753906 0)"/>
     <use xlink:href="#DejaVuSerif-20" transform="translate(1862.939453 0)"/>
     <use xlink:href="#DejaVuSerif-72" transform="translate(1894.726562 0)"/>
     <use xlink:href="#DejaVuSerif-65" transform="translate(1942.529297 0)"/>
     <use xlink:href="#DejaVuSerif-73" transform="translate(2001.708984 0)"/>
     <use xlink:href="#DejaVuSerif-70" transform="translate(2053.027344 0)"/>
     <use xlink:href="#DejaVuSerif-6f" transform="translate(2117.041016 0)"/>
     <use xlink:href="#DejaVuSerif-6e" transform="translate(2177.246094 0)"/>
     <use xlink:href="#DejaVuSerif-73" transform="translate(2241.650391 0)"/>
     <use xlink:href="#DejaVuSerif-65" transform="translate(2292.96875 0)"/>
    </g>
   </g>
   <g id="legend_1">
    <g id="line2d_30">
     <path d="M 422.44327 35.416562 
L 432.44327 35.416562 
L 442.44327 35.416562 
" style="fill: none; stroke: #153b7a; stroke-width: 1.7; stroke-linecap: square"/>
    </g>
    <g id="text_17">
     <!-- medium 8D/20D -->
     <g transform="translate(450.44327 38.916562) scale(0.1 -0.1)">
      <defs>
       <path id="DejaVuSerif-75" d="M 2266 3322 
L 3341 3322 
L 3341 331 
L 3884 331 
L 3884 0 
L 2766 0 
L 2766 588 
Q 2606 256 2353 82 
Q 2100 -91 1766 -91 
Q 1213 -91 952 223 
Q 691 538 691 1209 
L 691 2988 
L 172 2988 
L 172 3322 
L 1269 3322 
L 1269 1388 
Q 1269 781 1417 556 
Q 1566 331 1947 331 
Q 2347 331 2556 625 
Q 2766 919 2766 1478 
L 2766 2988 
L 2266 2988 
L 2266 3322 
z
" transform="scale(0.015625)"/>
       <path id="DejaVuSerif-44" d="M 1581 331 
L 2163 331 
Q 3072 331 3558 850 
Q 4044 1369 4044 2338 
Q 4044 3306 3559 3818 
Q 3075 4331 2163 4331 
L 1581 4331 
L 1581 331 
z
M 353 0 
L 353 331 
L 947 331 
L 947 4331 
L 353 4331 
L 353 4666 
L 2209 4666 
Q 3416 4666 4089 4050 
Q 4763 3434 4763 2338 
Q 4763 1238 4088 619 
Q 3413 0 2209 0 
L 353 0 
z
" transform="scale(0.015625)"/>
       <path id="DejaVuSerif-2f" d="M 1656 4666 
L 2156 4666 
L 500 -594 
L 0 -594 
L 1656 4666 
z
" transform="scale(0.015625)"/>
      </defs>
      <use xlink:href="#DejaVuSerif-6d"/>
      <use xlink:href="#DejaVuSerif-65" transform="translate(94.824219 0)"/>
      <use xlink:href="#DejaVuSerif-64" transform="translate(154.003906 0)"/>
      <use xlink:href="#DejaVuSerif-69" transform="translate(218.017578 0)"/>
      <use xlink:href="#DejaVuSerif-75" transform="translate(250 0)"/>
      <use xlink:href="#DejaVuSerif-6d" transform="translate(314.404297 0)"/>
      <use xlink:href="#DejaVuSerif-20" transform="translate(409.228516 0)"/>
      <use xlink:href="#DejaVuSerif-38" transform="translate(441.015625 0)"/>
      <use xlink:href="#DejaVuSerif-44" transform="translate(504.638672 0)"/>
      <use xlink:href="#DejaVuSerif-2f" transform="translate(584.814453 0)"/>
      <use xlink:href="#DejaVuSerif-32" transform="translate(618.505859 0)"/>
      <use xlink:href="#DejaVuSerif-30" transform="translate(682.128906 0)"/>
      <use xlink:href="#DejaVuSerif-44" transform="translate(745.751953 0)"/>
     </g>
    </g>
    <g id="line2d_31">
     <path d="M 422.44327 50.094687 
L 432.44327 50.094687 
L 442.44327 50.094687 
" style="fill: none; stroke-dasharray: 6.29,2.72; stroke-dashoffset: 0; stroke: #9a3412; stroke-width: 1.7"/>
    </g>
    <g id="text_18">
     <!-- medium 10D/30D -->
     <g transform="translate(450.44327 53.594687) scale(0.1 -0.1)">
      <defs>
       <path id="DejaVuSerif-33" d="M 622 4469 
Q 988 4606 1323 4678 
Q 1659 4750 1953 4750 
Q 2638 4750 3022 4454 
Q 3406 4159 3406 3634 
Q 3406 3213 3140 2930 
Q 2875 2647 2388 2547 
Q 2963 2466 3280 2130 
Q 3597 1794 3597 1259 
Q 3597 606 3158 257 
Q 2719 -91 1894 -91 
Q 1528 -91 1179 -12 
Q 831 66 488 225 
L 488 1131 
L 838 1131 
Q 869 681 1141 450 
Q 1413 219 1906 219 
Q 2384 219 2661 495 
Q 2938 772 2938 1253 
Q 2938 1803 2653 2086 
Q 2369 2369 1819 2369 
L 1522 2369 
L 1522 2688 
L 1678 2688 
Q 2225 2688 2498 2914 
Q 2772 3141 2772 3597 
Q 2772 4006 2547 4223 
Q 2322 4441 1900 4441 
Q 1478 4441 1245 4241 
Q 1013 4041 972 3647 
L 622 3647 
L 622 4469 
z
" transform="scale(0.015625)"/>
      </defs>
      <use xlink:href="#DejaVuSerif-6d"/>
      <use xlink:href="#DejaVuSerif-65" transform="translate(94.824219 0)"/>
      <use xlink:href="#DejaVuSerif-64" transform="translate(154.003906 0)"/>
      <use xlink:href="#DejaVuSerif-69" transform="translate(218.017578 0)"/>
      <use xlink:href="#DejaVuSerif-75" transform="translate(250 0)"/>
      <use xlink:href="#DejaVuSerif-6d" transform="translate(314.404297 0)"/>
      <use xlink:href="#DejaVuSerif-20" transform="translate(409.228516 0)"/>
      <use xlink:href="#DejaVuSerif-31" transform="translate(441.015625 0)"/>
      <use xlink:href="#DejaVuSerif-30" transform="translate(504.638672 0)"/>
      <use xlink:href="#DejaVuSerif-44" transform="translate(568.261719 0)"/>
      <use xlink:href="#DejaVuSerif-2f" transform="translate(648.4375 0)"/>
      <use xlink:href="#DejaVuSerif-33" transform="translate(682.128906 0)"/>
      <use xlink:href="#DejaVuSerif-30" transform="translate(745.751953 0)"/>
      <use xlink:href="#DejaVuSerif-44" transform="translate(809.375 0)"/>
     </g>
    </g>
    <g id="line2d_32">
     <path d="M 422.44327 64.772812 
L 432.44327 64.772812 
L 442.44327 64.772812 
" style="fill: none; stroke: #0f766e; stroke-width: 1.7; stroke-linecap: square"/>
    </g>
    <g id="text_19">
     <!-- ~100k 10D/30D -->
     <g transform="translate(450.44327 68.272812) scale(0.1 -0.1)">
      <defs>
       <path id="DejaVuSerif-7e" d="M 4684 2522 
L 4684 2059 
Q 4372 1784 4090 1653 
Q 3809 1522 3519 1522 
Q 3219 1522 2675 1728 
L 2644 1741 
Q 2609 1753 2541 1781 
Q 2081 1959 1784 1959 
Q 1497 1959 1226 1845 
Q 956 1731 678 1491 
L 678 1966 
Q 991 2238 1270 2364 
Q 1550 2491 1844 2491 
Q 2144 2491 2688 2284 
L 2719 2272 
Q 2753 2259 2816 2234 
Q 3269 2053 3572 2053 
Q 3859 2053 4134 2168 
Q 4409 2284 4684 2522 
z
" transform="scale(0.015625)"/>
       <path id="DejaVuSerif-6b" d="M 1831 0 
L 219 0 
L 219 331 
L 738 331 
L 738 4531 
L 184 4531 
L 184 4863 
L 1313 4863 
L 1313 1697 
L 2713 2988 
L 2234 2988 
L 2234 3322 
L 3738 3322 
L 3738 2988 
L 3169 2988 
L 2181 2075 
L 3444 331 
L 3922 331 
L 3922 0 
L 2284 0 
L 2284 331 
L 2759 331 
L 1766 1697 
L 1313 1275 
L 1313 331 
L 1831 331 
L 1831 0 
z
" transform="scale(0.015625)"/>
      </defs>
      <use xlink:href="#DejaVuSerif-7e"/>
      <use xlink:href="#DejaVuSerif-31" transform="translate(83.789062 0)"/>
      <use xlink:href="#DejaVuSerif-30" transform="translate(147.412109 0)"/>
      <use xlink:href="#DejaVuSerif-30" transform="translate(211.035156 0)"/>
      <use xlink:href="#DejaVuSerif-6b" transform="translate(274.658203 0)"/>
      <use xlink:href="#DejaVuSerif-20" transform="translate(335.253906 0)"/>
      <use xlink:href="#DejaVuSerif-31" transform="translate(367.041016 0)"/>
      <use xlink:href="#DejaVuSerif-30" transform="translate(430.664062 0)"/>
      <use xlink:href="#DejaVuSerif-44" transform="translate(494.287109 0)"/>
      <use xlink:href="#DejaVuSerif-2f" transform="translate(574.462891 0)"/>
      <use xlink:href="#DejaVuSerif-33" transform="translate(608.154297 0)"/>
      <use xlink:href="#DejaVuSerif-30" transform="translate(671.777344 0)"/>
      <use xlink:href="#DejaVuSerif-44" transform="translate(735.400391 0)"/>
     </g>
    </g>
   </g>
  </g>
 </g>
 <defs>
  <clipPath id="p7da9e310a1">
   <rect x="65.85375" y="22.318125" width="482.54577" height="293.157332"/>
  </clipPath>
 </defs>
</svg>
