<?xml version="1.0" encoding="utf-8" standalone="no"?>
<!DOCTYPE svg PUBLIC "-//W3C//DTD SVG 1.1//EN"
  "http://www.w3.org/Graphics/SVG/1.1/DTD/svg11.dtd">
<svg xmlns:xlink="http://www.w3.org/1999/xlink" width="567.756668pt" height="426.23625pt" viewBox="0 0 567.756668 426.23625" xmlns="http://www.w3.org/2000/svg" version="1.1">
 <metadata>
  <rdf:RDF xmlns:dc="http://purl.org/dc/elements/1.1/" xmlns:cc="http://creativecommons.org/ns#" xmlns:rdf="http://www.w3.org/1999/02/22-rdf-syntax-ns#">
   <cc:Work>
    <dc:type rdf:resource="http://purl.org/dc/dcmitype/StillImage"/>
    <dc:date>2026-04-12T14:10:01.157026</dc:date>
    <dc:format>image/svg+xml</dc:format>
    <dc:creator>
     <cc:Agent>
      <dc:title>Matplotlib v3.10.7, https://matplotlib.org/</dc:title>
     </cc:Agent>
    </dc:creator>
   </cc:Work>
  </rdf:RDF>
 </metadata>
 <defs>
  <style type="text/css">*{stroke-linejoin: round; stroke-linecap: butt}</style>
 </defs>
 <g id="figure_1">
  <g id="patch_1">
   <path d="M 0 426.23625 
L 567.756668 426.23625 
L 567.756668 0 
L 0 0 
z
" style="fill: #ffffff"/>
  </g>
  <g id="axes_1">
   <g id="patch_2">
    <path d="M 55.778125 203.62 
L 560.556668 203.62 
L 560.556668 35.16 
L 55.778125 35.16 
z
" style="fill: #ffffff"/>
   </g>
   <g id="matplotlib.axis_1">
    <g id="xtick_1">
     <g id="line2d_1">
      <path d="M 78.083482 203.62 
L 78.083482 35.16 
" clip-path="url(#pa62366d565)" style="fill: none; stroke: #d6d3d1; stroke-opacity: 0.8; stroke-width: 0.6; stroke-linecap: square"/>
     </g>
     <g id="line2d_2">
      <defs>
       <path id="m09a3bee679" d="M 0 0 
L 0 3.5 
" style="stroke: #000000; stroke-width: 0.8"/>
      </defs>
      <g>
       <use xlink:href="#m09a3bee679" x="78.083482" y="203.62" style="stroke: #000000; stroke-width: 0.8"/>
      </g>
     </g>
    </g>
    <g id="xtick_2">
     <g id="line2d_3">
      <path d="M 154.77812 203.62 
L 154.77812 35.16 
" clip-path="url(#pa62366d565)" style="fill: none; stroke: #d6d3d1; stroke-opacity: 0.8; stroke-width: 0.6; stroke-linecap: square"/>
     </g>
     <g id="line2d_4">
      <g>
       <use xlink:href="#m09a3bee679" x="154.77812" y="203.62" style="stroke: #000000; stroke-width: 0.8"/>
      </g>
     </g>
    </g>
    <g id="xtick_3">
     <g id="line2d_5">
      <path d="M 231.472758 203.62 
L 231.472758 35.16 
" clip-path="url(#pa62366d565)" style="fill: none; stroke: #d6d3d1; stroke-opacity: 0.8; stroke-width: 0.6; stroke-linecap: square"/>
     </g>
     <g id="line2d_6">
      <g>
       <use xlink:href="#m09a3bee679" x="231.472758" y="203.62" style="stroke: #000000; stroke-width: 0.8"/>
      </g>
     </g>
    </g>
    <g id="xtick_4">
     <g id="line2d_7">
      <path d="M 308.167396 203.62 
L 308.167396 35.16 
" clip-path="url(#pa62366d565)" style="fill: none; stroke: #d6d3d1; stroke-opacity: 0.8; stroke-width: 0.6; stroke-linecap: square"/>
     </g>
     <g id="line2d_8">
      <g>
       <use xlink:href="#m09a3bee679" x="308.167396" y="203.62" style="stroke: #000000; stroke-width: 0.8"/>
      </g>
     </g>
    </g>
    <g id="xtick_5">
     <g id="line2d_9">
      <path d="M 384.862035 203.62 
L 384.862035 35.16 
" clip-path="url(#pa62366d565)" style="fill: none; stroke: #d6d3d1; stroke-opacity: 0.8; stroke-width: 0.6; stroke-linecap: square"/>
     </g>
     <g id="line2d_10">
      <g>
       <use xlink:href="#m09a3bee679" x="384.862035" y="203.62" style="stroke: #000000; stroke-width: 0.8"/>
      </g>
     </g>
    </g>
    <g id="xtick_6">
     <g id="line2d_11">
      <path d="M 461.556673 203.62 
L 461.556673 35.16 
" clip-path="url(#pa62366d565)" style="fill: none; stroke: #d6d3d1; stroke-opacity: 0.8; stroke-width: 0.6; stroke-linecap: square"/>
     </g>
     <g id="line2d_12">
      <g>
       <use xlink:href="#m09a3bee679" x="461.556673" y="203.62" style="stroke: #000000; stroke-width: 0.8"/>
      </g>
     </g>
    </g>
    <g id="xtick_7">
     <g id="line2d_13">
      <path d="M 538.251311 203.62 
L 538.251311 35.16 
" clip-path="url(#pa62366d565)" style="fill: none; stroke: #d6d3d1; stroke-opacity: 0.8; stroke-width: 0.6; stroke-linecap: square"/>
     </g>
     <g id="line2d_14">
      <g>
       <use xlink:href="#m09a3bee679" x="538.251311" y="203.62" style="stroke: #000000; stroke-width: 0.8"/>
      </g>
     </g>
    </g>
   </g>
   <g id="matplotlib.axis_2">
    <g id="ytick_1">
     <g id="line2d_15">
      <path d="M 55.778125 203.62 
L 560.556668 203.62 
" clip-path="url(#pa62366d565)" style="fill: none; stroke: #d6d3d1; stroke-opacity: 0.8; stroke-width: 0.6; stroke-linecap: square"/>
     </g>
     <g id="line2d_16">
      <defs>
       <path id="me5e735dba5" d="M 0 0 
L -3.5 0 
" style="stroke: #000000; stroke-width: 0.8"/>
      </defs>
      <g>
       <use xlink:href="#me5e735dba5" x="55.778125" y="203.62" style="stroke: #000000; stroke-width: 0.8"/>
      </g>
     </g>
     <g id="text_1">
      <!-- 0 -->
      <g transform="translate(42.415625 207.419219) scale(0.1 -0.1)">
       <defs>
        <path id="DejaVuSans-30" d="M 2034 4250 
Q 1547 4250 1301 3770 
Q 1056 3291 1056 2328 
Q 1056 1369 1301 889 
Q 1547 409 2034 409 
Q 2525 409 2770 889 
Q 3016 1369 3016 2328 
Q 3016 3291 2770 3770 
Q 2525 4250 2034 4250 
z
M 2034 4750 
Q 2819 4750 3233 4129 
Q 3647 3509 3647 2328 
Q 3647 1150 3233 529 
Q 2819 -91 2034 -91 
Q 1250 -91 836 529 
Q 422 1150 422 2328 
Q 422 3509 836 4129 
Q 1250 4750 2034 4750 
z
" transform="scale(0.015625)"/>
       </defs>
       <use xlink:href="#DejaVuSans-30"/>
      </g>
     </g>
    </g>
    <g id="ytick_2">
     <g id="line2d_17">
      <path d="M 55.778125 175.543333 
L 560.556668 175.543333 
" clip-path="url(#pa62366d565)" style="fill: none; stroke: #d6d3d1; stroke-opacity: 0.8; stroke-width: 0.6; stroke-linecap: square"/>
     </g>
     <g id="line2d_18">
      <g>
       <use xlink:href="#me5e735dba5" x="55.778125" y="175.543333" style="stroke: #000000; stroke-width: 0.8"/>
      </g>
     </g>
     <g id="text_2">
      <!-- 2 -->
      <g transform="translate(42.415625 179.342552) scale(0.1 -0.1)">
       <defs>
        <path id="DejaVuSans-32" d="M 1228 531 
L 3431 531 
L 3431 0 
L 469 0 
L 469 531 
Q 828 903 1448 1529 
Q 2069 2156 2228 2338 
Q 2531 2678 2651 2914 
Q 2772 3150 2772 3378 
Q 2772 3750 2511 3984 
Q 2250 4219 1831 4219 
Q 1534 4219 1204 4116 
Q 875 4013 500 3803 
L 500 4441 
Q 881 4594 1212 4672 
Q 1544 4750 1819 4750 
Q 2544 4750 2975 4387 
Q 3406 4025 3406 3419 
Q 3406 3131 3298 2873 
Q 3191 2616 2906 2266 
Q 2828 2175 2409 1742 
Q 1991 1309 1228 531 
z
" transform="scale(0.015625)"/>
       </defs>
       <use xlink:href="#DejaVuSans-32"/>
      </g>
     </g>
    </g>
    <g id="ytick_3">
     <g id="line2d_19">
      <path d="M 55.778125 147.466667 
L 560.556668 147.466667 
" clip-path="url(#pa62366d565)" style="fill: none; stroke: #d6d3d1; stroke-opacity: 0.8; stroke-width: 0.6; stroke-linecap: square"/>
     </g>
     <g id="line2d_20">
      <g>
       <use xlink:href="#me5e735dba5" x="55.778125" y="147.466667" style="stroke: #000000; stroke-width: 0.8"/>
      </g>
     </g>
     <g id="text_3">
      <!-- 4 -->
      <g transform="translate(42.415625 151.265885) scale(0.1 -0.1)">
       <defs>
        <path id="DejaVuSans-34" d="M 2419 4116 
L 825 1625 
L 2419 1625 
L 2419 4116 
z
M 2253 4666 
L 3047 4666 
L 3047 1625 
L 3713 1625 
L 3713 1100 
L 3047 1100 
L 3047 0 
L 2419 0 
L 2419 1100 
L 313 1100 
L 313 1709 
L 2253 4666 
z
" transform="scale(0.015625)"/>
       </defs>
       <use xlink:href="#DejaVuSans-34"/>
      </g>
     </g>
    </g>
    <g id="ytick_4">
     <g id="line2d_21">
      <path d="M 55.778125 119.39 
L 560.556668 119.39 
" clip-path="url(#pa62366d565)" style="fill: none; stroke: #d6d3d1; stroke-opacity: 0.8; stroke-width: 0.6; stroke-linecap: square"/>
     </g>
     <g id="line2d_22">
      <g>
       <use xlink:href="#me5e735dba5" x="55.778125" y="119.39" style="stroke: #000000; stroke-width: 0.8"/>
      </g>
     </g>
     <g id="text_4">
      <!-- 6 -->
      <g transform="translate(42.415625 123.189219) scale(0.1 -0.1)">
       <defs>
        <path id="DejaVuSans-36" d="M 2113 2584 
Q 1688 2584 1439 2293 
Q 1191 2003 1191 1497 
Q 1191 994 1439 701 
Q 1688 409 2113 409 
Q 2538 409 2786 701 
Q 3034 994 3034 1497 
Q 3034 2003 2786 2293 
Q 2538 2584 2113 2584 
z
M 3366 4563 
L 3366 3988 
Q 3128 4100 2886 4159 
Q 2644 4219 2406 4219 
Q 1781 4219 1451 3797 
Q 1122 3375 1075 2522 
Q 1259 2794 1537 2939 
Q 1816 3084 2150 3084 
Q 2853 3084 3261 2657 
Q 3669 2231 3669 1497 
Q 3669 778 3244 343 
Q 2819 -91 2113 -91 
Q 1303 -91 875 529 
Q 447 1150 447 2328 
Q 447 3434 972 4092 
Q 1497 4750 2381 4750 
Q 2619 4750 2861 4703 
Q 3103 4656 3366 4563 
z
" transform="scale(0.015625)"/>
       </defs>
       <use xlink:href="#DejaVuSans-36"/>
      </g>
     </g>
    </g>
    <g id="ytick_5">
     <g id="line2d_23">
      <path d="M 55.778125 91.313333 
L 560.556668 91.313333 
" clip-path="url(#pa62366d565)" style="fill: none; stroke: #d6d3d1; stroke-opacity: 0.8; stroke-width: 0.6; stroke-linecap: square"/>
     </g>
     <g id="line2d_24">
      <g>
       <use xlink:href="#me5e735dba5" x="55.778125" y="91.313333" style="stroke: #000000; stroke-width: 0.8"/>
      </g>
     </g>
     <g id="text_5">
      <!-- 8 -->
      <g transform="translate(42.415625 95.112552) scale(0.1 -0.1)">
       <defs>
        <path id="DejaVuSans-38" d="M 2034 2216 
Q 1584 2216 1326 1975 
Q 1069 1734 1069 1313 
Q 1069 891 1326 650 
Q 1584 409 2034 409 
Q 2484 409 2743 651 
Q 3003 894 3003 1313 
Q 3003 1734 2745 1975 
Q 2488 2216 2034 2216 
z
M 1403 2484 
Q 997 2584 770 2862 
Q 544 3141 544 3541 
Q 544 4100 942 4425 
Q 1341 4750 2034 4750 
Q 2731 4750 3128 4425 
Q 3525 4100 3525 3541 
Q 3525 3141 3298 2862 
Q 3072 2584 2669 2484 
Q 3125 2378 3379 2068 
Q 3634 1759 3634 1313 
Q 3634 634 3220 271 
Q 2806 -91 2034 -91 
Q 1263 -91 848 271 
Q 434 634 434 1313 
Q 434 1759 690 2068 
Q 947 2378 1403 2484 
z
M 1172 3481 
Q 1172 3119 1398 2916 
Q 1625 2713 2034 2713 
Q 2441 2713 2670 2916 
Q 2900 3119 2900 3481 
Q 2900 3844 2670 4047 
Q 2441 4250 2034 4250 
Q 1625 4250 1398 4047 
Q 1172 3844 1172 3481 
z
" transform="scale(0.015625)"/>
       </defs>
       <use xlink:href="#DejaVuSans-38"/>
      </g>
     </g>
    </g>
    <g id="ytick_6">
     <g id="line2d_25">
      <path d="M 55.778125 63.236667 
L 560.556668 63.236667 
" clip-path="url(#pa62366d565)" style="fill: none; stroke: #d6d3d1; stroke-opacity: 0.8; stroke-width: 0.6; stroke-linecap: square"/>
     </g>
     <g id="line2d_26">
      <g>
       <use xlink:href="#me5e735dba5" x="55.778125" y="63.236667" style="stroke: #000000; stroke-width: 0.8"/>
      </g>
     </g>
     <g id="text_6">
      <!-- 10 -->
      <g transform="translate(36.053125 67.035885) scale(0.1 -0.1)">
       <defs>
        <path id="DejaVuSans-31" d="M 794 531 
L 1825 531 
L 1825 4091 
L 703 3866 
L 703 4441 
L 1819 4666 
L 2450 4666 
L 2450 531 
L 3481 531 
L 3481 0 
L 794 0 
L 794 531 
z
" transform="scale(0.015625)"/>
       </defs>
       <use xlink:href="#DejaVuSans-31"/>
       <use xlink:href="#DejaVuSans-30" transform="translate(63.623047 0)"/>
      </g>
     </g>
    </g>
    <g id="ytick_7">
     <g id="line2d_27">
      <path d="M 55.778125 35.16 
L 560.556668 35.16 
" clip-path="url(#pa62366d565)" style="fill: none; stroke: #d6d3d1; stroke-opacity: 0.8; stroke-width: 0.6; stroke-linecap: square"/>
     </g>
     <g id="line2d_28">
      <g>
       <use xlink:href="#me5e735dba5" x="55.778125" y="35.16" style="stroke: #000000; stroke-width: 0.8"/>
      </g>
     </g>
     <g id="text_7">
      <!-- 12 -->
      <g transform="translate(36.053125 38.959219) scale(0.1 -0.1)">
       <use xlink:href="#DejaVuSans-31"/>
       <use xlink:href="#DejaVuSans-32" transform="translate(63.623047 0)"/>
      </g>
     </g>
    </g>
    <g id="text_8">
     <!-- $Nu_{D_h}$ -->
     <g transform="translate(29.253125 130.79) rotate(-90) scale(0.1 -0.1)">
      <defs>
       <path id="DejaVuSans-Oblique-4e" d="M 1081 4666 
L 1931 4666 
L 3219 666 
L 4000 4666 
L 4616 4666 
L 3706 0 
L 2853 0 
L 1569 4025 
L 788 0 
L 172 0 
L 1081 4666 
z
" transform="scale(0.015625)"/>
       <path id="DejaVuSans-Oblique-75" d="M 428 1388 
L 838 3500 
L 1416 3500 
L 1006 1409 
Q 975 1256 961 1147 
Q 947 1038 947 966 
Q 947 700 1109 554 
Q 1272 409 1569 409 
Q 2031 409 2368 721 
Q 2706 1034 2809 1563 
L 3194 3500 
L 3769 3500 
L 3091 0 
L 2516 0 
L 2631 550 
Q 2388 244 2052 76 
Q 1716 -91 1338 -91 
Q 878 -91 622 161 
Q 366 413 366 863 
Q 366 956 381 1097 
Q 397 1238 428 1388 
z
" transform="scale(0.015625)"/>
       <path id="DejaVuSans-Oblique-44" d="M 1081 4666 
L 2438 4666 
Q 3519 4666 4070 4208 
Q 4622 3750 4622 2847 
Q 4622 2250 4412 1698 
Q 4203 1147 3834 769 
Q 3463 381 2891 190 
Q 2319 0 1538 0 
L 172 0 
L 1081 4666 
z
M 1613 4147 
L 909 519 
L 1734 519 
Q 2794 519 3375 1128 
Q 3956 1738 3956 2847 
Q 3956 3519 3581 3833 
Q 3206 4147 2406 4147 
L 1613 4147 
z
" transform="scale(0.015625)"/>
       <path id="DejaVuSans-Oblique-68" d="M 3566 2113 
L 3156 0 
L 2578 0 
L 2988 2091 
Q 3016 2238 3031 2350 
Q 3047 2463 3047 2528 
Q 3047 2791 2881 2937 
Q 2716 3084 2419 3084 
Q 1956 3084 1617 2771 
Q 1278 2459 1178 1941 
L 800 0 
L 225 0 
L 1172 4863 
L 1747 4863 
L 1375 2950 
Q 1594 3244 1934 3414 
Q 2275 3584 2650 3584 
Q 3113 3584 3367 3334 
Q 3622 3084 3622 2631 
Q 3622 2519 3608 2391 
Q 3594 2263 3566 2113 
z
" transform="scale(0.015625)"/>
      </defs>
      <use xlink:href="#DejaVuSans-Oblique-4e" transform="translate(0 0.09375)"/>
      <use xlink:href="#DejaVuSans-Oblique-75" transform="translate(74.804688 0.09375)"/>
      <use xlink:href="#DejaVuSans-Oblique-44" transform="translate(138.183594 -16.3125) scale(0.7)"/>
      <use xlink:href="#DejaVuSans-Oblique-68" transform="translate(192.084961 -27.796875) scale(0.49)"/>
     </g>
    </g>
   </g>
   <g id="line2d_29">
    <path d="M 79.577011 -1 
L 80.000848 62.102193 
L 81.279092 86.027495 
L 82.557336 92.635489 
L 83.83558 95.826982 
L 85.113824 96.943745 
L 86.392068 97.555642 
L 88.948556 97.788986 
L 104.287484 97.719807 
L 113.235191 97.724739 
L 138.800071 97.685806 
L 141.356559 97.774356 
L 143.913047 97.676292 
L 146.469535 97.780351 
L 151.58251 97.833146 
L 156.695486 97.594211 
L 159.251974 97.831514 
L 160.530218 97.74984 
L 161.808462 97.828322 
L 164.36495 97.542558 
L 168.199682 97.532318 
L 170.75617 97.43 
L 172.034414 97.892257 
L 173.312658 97.51778 
L 174.590902 97.649235 
L 175.869146 97.521959 
L 177.14739 97.934298 
L 178.425634 97.994276 
L 179.703878 97.589864 
L 180.982122 97.681273 
L 182.260366 97.157056 
L 183.53861 97.109021 
L 184.816854 97.621343 
L 186.095098 97.292663 
L 187.373342 97.476872 
L 188.651585 98.256322 
L 189.929829 97.881024 
L 191.208073 98.015802 
L 192.486317 98.72248 
L 193.764561 97.838706 
L 195.042805 97.389135 
L 196.321049 97.428286 
L 197.599293 98.041385 
L 198.877537 96.329259 
L 200.155781 98.11425 
L 201.434025 97.288571 
L 202.712269 96.921703 
L 203.990513 97.049751 
L 205.268757 97.770295 
L 206.547001 99.154316 
L 207.825245 96.425425 
L 209.103489 99.08443 
L 210.381733 97.08109 
L 211.659977 95.350844 
L 212.938221 100.389317 
L 214.216465 99.801722 
L 215.494709 99.662632 
L 216.772953 100.078516 
L 218.051197 101.057007 
L 219.329441 93.634437 
L 220.607685 95.426236 
L 221.885929 98.127526 
L 223.164173 101.744343 
L 224.442417 94.392774 
L 225.720661 99.41506 
L 226.998905 91.832598 
L 228.277148 98.712319 
L 229.555392 91.066627 
L 230.833636 100.184334 
L 232.11188 92.681702 
L 233.390124 104.37275 
L 235.946612 89.445031 
L 237.224856 105.664779 
L 239.781344 90.842435 
L 241.059588 82.591582 
L 242.337832 106.29665 
L 244.89432 91.658563 
L 246.172564 83.596715 
L 247.450808 117.57254 
L 250.007296 104.723082 
L 251.28554 97.62275 
L 253.842028 81.741483 
L 256.398516 63.216203 
L 257.67676 128.193837 
L 260.233248 117.088828 
L 262.789736 103.942802 
L 264.06798 96.810946 
L 267.902711 71.516084 
L 270.459199 51.502687 
L 273.015687 28.822247 
L 275.572175 3.045865 
L 276.850419 203.62 
L 343.319106 203.62 
L 343.319106 203.62 
" clip-path="url(#pa62366d565)" style="fill: none; stroke: #164e63; stroke-width: 1.4; stroke-linecap: square"/>
   </g>
   <g id="line2d_30">
    <path d="M 55.778125 97.756928 
L 560.556668 97.756928 
" clip-path="url(#pa62366d565)" style="fill: none; stroke-dasharray: 4.44,1.92; stroke-dashoffset: 0; stroke: #b45309; stroke-width: 1.2"/>
   </g>
   <g id="line2d_31">
    <path d="M 170.75617 97.43 
" clip-path="url(#pa62366d565)" style="fill: none; stroke: #dc2626; stroke-width: 1.5; stroke-linecap: square"/>
    <defs>
     <path id="m963ab8750e" d="M 0 2.75 
C 0.729309 2.75 1.428845 2.460243 1.944544 1.944544 
C 2.460243 1.428845 2.75 0.729309 2.75 0 
C 2.75 -0.729309 2.460243 -1.428845 1.944544 -1.944544 
C 1.428845 -2.460243 0.729309 -2.75 0 -2.75 
C -0.729309 -2.75 -1.428845 -2.460243 -1.944544 -1.944544 
C -2.460243 -1.428845 -2.75 -0.729309 -2.75 0 
C -2.75 0.729309 -2.460243 1.428845 -1.944544 1.944544 
C -1.428845 2.460243 -0.729309 2.75 0 2.75 
z
" style="stroke: #dc2626"/>
    </defs>
    <g clip-path="url(#pa62366d565)">
     <use xlink:href="#m963ab8750e" x="170.75617" y="97.43" style="fill: #dc2626; stroke: #dc2626"/>
    </g>
   </g>
   <g id="patch_3">
    <path d="M 55.778125 203.62 
L 55.778125 35.16 
" style="fill: none; stroke: #000000; stroke-width: 0.8; stroke-linejoin: miter; stroke-linecap: square"/>
   </g>
   <g id="patch_4">
    <path d="M 560.556668 203.62 
L 560.556668 35.16 
" style="fill: none; stroke: #000000; stroke-width: 0.8; stroke-linejoin: miter; stroke-linecap: square"/>
   </g>
   <g id="patch_5">
    <path d="M 55.778125 203.62 
L 560.556668 203.62 
" style="fill: none; stroke: #000000; stroke-width: 0.8; stroke-linejoin: miter; stroke-linecap: square"/>
   </g>
   <g id="patch_6">
    <path d="M 55.778125 35.16 
L 560.556668 35.16 
" style="fill: none; stroke: #000000; stroke-width: 0.8; stroke-linejoin: miter; stroke-linecap: square"/>
   </g>
   <g id="legend_1">
    <g id="line2d_32">
     <path d="M 417.859168 45.63875 
L 425.859168 45.63875 
L 433.859168 45.63875 
" style="fill: none; stroke: #164e63; stroke-width: 1.4; stroke-linecap: square"/>
    </g>
    <g id="text_9">
     <!-- local channel Nu -->
     <g transform="translate(440.259168 48.43875) scale(0.08 -0.08)">
      <defs>
       <path id="DejaVuSans-6c" d="M 603 4863 
L 1178 4863 
L 1178 0 
L 603 0 
L 603 4863 
z
" transform="scale(0.015625)"/>
       <path id="DejaVuSans-6f" d="M 1959 3097 
Q 1497 3097 1228 2736 
Q 959 2375 959 1747 
Q 959 1119 1226 758 
Q 1494 397 1959 397 
Q 2419 397 2687 759 
Q 2956 1122 2956 1747 
Q 2956 2369 2687 2733 
Q 2419 3097 1959 3097 
z
M 1959 3584 
Q 2709 3584 3137 3096 
Q 3566 2609 3566 1747 
Q 3566 888 3137 398 
Q 2709 -91 1959 -91 
Q 1206 -91 779 398 
Q 353 888 353 1747 
Q 353 2609 779 3096 
Q 1206 3584 1959 3584 
z
" transform="scale(0.015625)"/>
       <path id="DejaVuSans-63" d="M 3122 3366 
L 3122 2828 
Q 2878 2963 2633 3030 
Q 2388 3097 2138 3097 
Q 1578 3097 1268 2742 
Q 959 2388 959 1747 
Q 959 1106 1268 751 
Q 1578 397 2138 397 
Q 2388 397 2633 464 
Q 2878 531 3122 666 
L 3122 134 
Q 2881 22 2623 -34 
Q 2366 -91 2075 -91 
Q 1284 -91 818 406 
Q 353 903 353 1747 
Q 353 2603 823 3093 
Q 1294 3584 2113 3584 
Q 2378 3584 2631 3529 
Q 2884 3475 3122 3366 
z
" transform="scale(0.015625)"/>
       <path id="DejaVuSans-61" d="M 2194 1759 
Q 1497 1759 1228 1600 
Q 959 1441 959 1056 
Q 959 750 1161 570 
Q 1363 391 1709 391 
Q 2188 391 2477 730 
Q 2766 1069 2766 1631 
L 2766 1759 
L 2194 1759 
z
M 3341 1997 
L 3341 0 
L 2766 0 
L 2766 531 
Q 2569 213 2275 61 
Q 1981 -91 1556 -91 
Q 1019 -91 701 211 
Q 384 513 384 1019 
Q 384 1609 779 1909 
Q 1175 2209 1959 2209 
L 2766 2209 
L 2766 2266 
Q 2766 2663 2505 2880 
Q 2244 3097 1772 3097 
Q 1472 3097 1187 3025 
Q 903 2953 641 2809 
L 641 3341 
Q 956 3463 1253 3523 
Q 1550 3584 1831 3584 
Q 2591 3584 2966 3190 
Q 3341 2797 3341 1997 
z
" transform="scale(0.015625)"/>
       <path id="DejaVuSans-20" transform="scale(0.015625)"/>
       <path id="DejaVuSans-68" d="M 3513 2113 
L 3513 0 
L 2938 0 
L 2938 2094 
Q 2938 2591 2744 2837 
Q 2550 3084 2163 3084 
Q 1697 3084 1428 2787 
Q 1159 2491 1159 1978 
L 1159 0 
L 581 0 
L 581 4863 
L 1159 4863 
L 1159 2956 
Q 1366 3272 1645 3428 
Q 1925 3584 2291 3584 
Q 2894 3584 3203 3211 
Q 3513 2838 3513 2113 
z
" transform="scale(0.015625)"/>
       <path id="DejaVuSans-6e" d="M 3513 2113 
L 3513 0 
L 2938 0 
L 2938 2094 
Q 2938 2591 2744 2837 
Q 2550 3084 2163 3084 
Q 1697 3084 1428 2787 
Q 1159 2491 1159 1978 
L 1159 0 
L 581 0 
L 581 3500 
L 1159 3500 
L 1159 2956 
Q 1366 3272 1645 3428 
Q 1925 3584 2291 3584 
Q 2894 3584 3203 3211 
Q 3513 2838 3513 2113 
z
" transform="scale(0.015625)"/>
       <path id="DejaVuSans-65" d="M 3597 1894 
L 3597 1613 
L 953 1613 
Q 991 1019 1311 708 
Q 1631 397 2203 397 
Q 2534 397 2845 478 
Q 3156 559 3463 722 
L 3463 178 
Q 3153 47 2828 -22 
Q 2503 -91 2169 -91 
Q 1331 -91 842 396 
Q 353 884 353 1716 
Q 353 2575 817 3079 
Q 1281 3584 2069 3584 
Q 2775 3584 3186 3129 
Q 3597 2675 3597 1894 
z
M 3022 2063 
Q 3016 2534 2758 2815 
Q 2500 3097 2075 3097 
Q 1594 3097 1305 2825 
Q 1016 2553 972 2059 
L 3022 2063 
z
" transform="scale(0.015625)"/>
       <path id="DejaVuSans-4e" d="M 628 4666 
L 1478 4666 
L 3547 763 
L 3547 4666 
L 4159 4666 
L 4159 0 
L 3309 0 
L 1241 3903 
L 1241 0 
L 628 0 
L 628 4666 
z
" transform="scale(0.015625)"/>
       <path id="DejaVuSans-75" d="M 544 1381 
L 544 3500 
L 1119 3500 
L 1119 1403 
Q 1119 906 1312 657 
Q 1506 409 1894 409 
Q 2359 409 2629 706 
Q 2900 1003 2900 1516 
L 2900 3500 
L 3475 3500 
L 3475 0 
L 2900 0 
L 2900 538 
Q 2691 219 2414 64 
Q 2138 -91 1772 -91 
Q 1169 -91 856 284 
Q 544 659 544 1381 
z
M 1991 3584 
L 1991 3584 
z
" transform="scale(0.015625)"/>
      </defs>
      <use xlink:href="#DejaVuSans-6c"/>
      <use xlink:href="#DejaVuSans-6f" transform="translate(27.783203 0)"/>
      <use xlink:href="#DejaVuSans-63" transform="translate(88.964844 0)"/>
      <use xlink:href="#DejaVuSans-61" transform="translate(143.945312 0)"/>
      <use xlink:href="#DejaVuSans-6c" transform="translate(205.224609 0)"/>
      <use xlink:href="#DejaVuSans-20" transform="translate(233.007812 0)"/>
      <use xlink:href="#DejaVuSans-63" transform="translate(264.794922 0)"/>
      <use xlink:href="#DejaVuSans-68" transform="translate(319.775391 0)"/>
      <use xlink:href="#DejaVuSans-61" transform="translate(383.154297 0)"/>
      <use xlink:href="#DejaVuSans-6e" transform="translate(444.433594 0)"/>
      <use xlink:href="#DejaVuSans-6e" transform="translate(507.8125 0)"/>
      <use xlink:href="#DejaVuSans-65" transform="translate(571.191406 0)"/>
      <use xlink:href="#DejaVuSans-6c" transform="translate(632.714844 0)"/>
      <use xlink:href="#DejaVuSans-20" transform="translate(660.498047 0)"/>
      <use xlink:href="#DejaVuSans-4e" transform="translate(692.285156 0)"/>
      <use xlink:href="#DejaVuSans-75" transform="translate(767.089844 0)"/>
     </g>
    </g>
    <g id="line2d_33">
     <path d="M 417.859168 57.38125 
L 425.859168 57.38125 
L 433.859168 57.38125 
" style="fill: none; stroke-dasharray: 4.44,1.92; stroke-dashoffset: 0; stroke: #b45309; stroke-width: 1.2"/>
    </g>
    <g id="text_10">
     <!-- UWT target 7.541 -->
     <g transform="translate(440.259168 60.18125) scale(0.08 -0.08)">
      <defs>
       <path id="DejaVuSans-55" d="M 556 4666 
L 1191 4666 
L 1191 1831 
Q 1191 1081 1462 751 
Q 1734 422 2344 422 
Q 2950 422 3222 751 
Q 3494 1081 3494 1831 
L 3494 4666 
L 4128 4666 
L 4128 1753 
Q 4128 841 3676 375 
Q 3225 -91 2344 -91 
Q 1459 -91 1007 375 
Q 556 841 556 1753 
L 556 4666 
z
" transform="scale(0.015625)"/>
       <path id="DejaVuSans-57" d="M 213 4666 
L 850 4666 
L 1831 722 
L 2809 4666 
L 3519 4666 
L 4500 722 
L 5478 4666 
L 6119 4666 
L 4947 0 
L 4153 0 
L 3169 4050 
L 2175 0 
L 1381 0 
L 213 4666 
z
" transform="scale(0.015625)"/>
       <path id="DejaVuSans-54" d="M -19 4666 
L 3928 4666 
L 3928 4134 
L 2272 4134 
L 2272 0 
L 1638 0 
L 1638 4134 
L -19 4134 
L -19 4666 
z
" transform="scale(0.015625)"/>
       <path id="DejaVuSans-74" d="M 1172 4494 
L 1172 3500 
L 2356 3500 
L 2356 3053 
L 1172 3053 
L 1172 1153 
Q 1172 725 1289 603 
Q 1406 481 1766 481 
L 2356 481 
L 2356 0 
L 1766 0 
Q 1100 0 847 248 
Q 594 497 594 1153 
L 594 3053 
L 172 3053 
L 172 3500 
L 594 3500 
L 594 4494 
L 1172 4494 
z
" transform="scale(0.015625)"/>
       <path id="DejaVuSans-72" d="M 2631 2963 
Q 2534 3019 2420 3045 
Q 2306 3072 2169 3072 
Q 1681 3072 1420 2755 
Q 1159 2438 1159 1844 
L 1159 0 
L 581 0 
L 581 3500 
L 1159 3500 
L 1159 2956 
Q 1341 3275 1631 3429 
Q 1922 3584 2338 3584 
Q 2397 3584 2469 3576 
Q 2541 3569 2628 3553 
L 2631 2963 
z
" transform="scale(0.015625)"/>
       <path id="DejaVuSans-67" d="M 2906 1791 
Q 2906 2416 2648 2759 
Q 2391 3103 1925 3103 
Q 1463 3103 1205 2759 
Q 947 2416 947 1791 
Q 947 1169 1205 825 
Q 1463 481 1925 481 
Q 2391 481 2648 825 
Q 2906 1169 2906 1791 
z
M 3481 434 
Q 3481 -459 3084 -895 
Q 2688 -1331 1869 -1331 
Q 1566 -1331 1297 -1286 
Q 1028 -1241 775 -1147 
L 775 -588 
Q 1028 -725 1275 -790 
Q 1522 -856 1778 -856 
Q 2344 -856 2625 -561 
Q 2906 -266 2906 331 
L 2906 616 
Q 2728 306 2450 153 
Q 2172 0 1784 0 
Q 1141 0 747 490 
Q 353 981 353 1791 
Q 353 2603 747 3093 
Q 1141 3584 1784 3584 
Q 2172 3584 2450 3431 
Q 2728 3278 2906 2969 
L 2906 3500 
L 3481 3500 
L 3481 434 
z
" transform="scale(0.015625)"/>
       <path id="DejaVuSans-37" d="M 525 4666 
L 3525 4666 
L 3525 4397 
L 1831 0 
L 1172 0 
L 2766 4134 
L 525 4134 
L 525 4666 
z
" transform="scale(0.015625)"/>
       <path id="DejaVuSans-2e" d="M 684 794 
L 1344 794 
L 1344 0 
L 684 0 
L 684 794 
z
" transform="scale(0.015625)"/>
       <path id="DejaVuSans-35" d="M 691 4666 
L 3169 4666 
L 3169 4134 
L 1269 4134 
L 1269 2991 
Q 1406 3038 1543 3061 
Q 1681 3084 1819 3084 
Q 2600 3084 3056 2656 
Q 3513 2228 3513 1497 
Q 3513 744 3044 326 
Q 2575 -91 1722 -91 
Q 1428 -91 1123 -41 
Q 819 9 494 109 
L 494 744 
Q 775 591 1075 516 
Q 1375 441 1709 441 
Q 2250 441 2565 725 
Q 2881 1009 2881 1497 
Q 2881 1984 2565 2268 
Q 2250 2553 1709 2553 
Q 1456 2553 1204 2497 
Q 953 2441 691 2322 
L 691 4666 
z
" transform="scale(0.015625)"/>
      </defs>
      <use xlink:href="#DejaVuSans-55"/>
      <use xlink:href="#DejaVuSans-57" transform="translate(73.193359 0)"/>
      <use xlink:href="#DejaVuSans-54" transform="translate(172.070312 0)"/>
      <use xlink:href="#DejaVuSans-20" transform="translate(233.154297 0)"/>
      <use xlink:href="#DejaVuSans-74" transform="translate(264.941406 0)"/>
      <use xlink:href="#DejaVuSans-61" transform="translate(304.150391 0)"/>
      <use xlink:href="#DejaVuSans-72" transform="translate(365.429688 0)"/>
      <use xlink:href="#DejaVuSans-67" transform="translate(404.792969 0)"/>
      <use xlink:href="#DejaVuSans-65" transform="translate(468.269531 0)"/>
      <use xlink:href="#DejaVuSans-74" transform="translate(529.792969 0)"/>
      <use xlink:href="#DejaVuSans-20" transform="translate(569.001953 0)"/>
      <use xlink:href="#DejaVuSans-37" transform="translate(600.789062 0)"/>
      <use xlink:href="#DejaVuSans-2e" transform="translate(664.412109 0)"/>
      <use xlink:href="#DejaVuSans-35" transform="translate(696.199219 0)"/>
      <use xlink:href="#DejaVuSans-34" transform="translate(759.822266 0)"/>
      <use xlink:href="#DejaVuSans-31" transform="translate(823.445312 0)"/>
     </g>
    </g>
    <g id="line2d_34">
     <path d="M 417.859168 69.12375 
L 425.859168 69.12375 
L 433.859168 69.12375 
" style="fill: none; stroke: #dc2626; stroke-width: 1.5; stroke-linecap: square"/>
     <g>
      <use xlink:href="#m963ab8750e" x="425.859168" y="69.12375" style="fill: #dc2626; stroke: #dc2626"/>
     </g>
    </g>
    <g id="text_11">
     <!-- selected comparison station -->
     <g transform="translate(440.259168 71.92375) scale(0.08 -0.08)">
      <defs>
       <path id="DejaVuSans-73" d="M 2834 3397 
L 2834 2853 
Q 2591 2978 2328 3040 
Q 2066 3103 1784 3103 
Q 1356 3103 1142 2972 
Q 928 2841 928 2578 
Q 928 2378 1081 2264 
Q 1234 2150 1697 2047 
L 1894 2003 
Q 2506 1872 2764 1633 
Q 3022 1394 3022 966 
Q 3022 478 2636 193 
Q 2250 -91 1575 -91 
Q 1294 -91 989 -36 
Q 684 19 347 128 
L 347 722 
Q 666 556 975 473 
Q 1284 391 1588 391 
Q 1994 391 2212 530 
Q 2431 669 2431 922 
Q 2431 1156 2273 1281 
Q 2116 1406 1581 1522 
L 1381 1569 
Q 847 1681 609 1914 
Q 372 2147 372 2553 
Q 372 3047 722 3315 
Q 1072 3584 1716 3584 
Q 2034 3584 2315 3537 
Q 2597 3491 2834 3397 
z
" transform="scale(0.015625)"/>
       <path id="DejaVuSans-64" d="M 2906 2969 
L 2906 4863 
L 3481 4863 
L 3481 0 
L 2906 0 
L 2906 525 
Q 2725 213 2448 61 
Q 2172 -91 1784 -91 
Q 1150 -91 751 415 
Q 353 922 353 1747 
Q 353 2572 751 3078 
Q 1150 3584 1784 3584 
Q 2172 3584 2448 3432 
Q 2725 3281 2906 2969 
z
M 947 1747 
Q 947 1113 1208 752 
Q 1469 391 1925 391 
Q 2381 391 2643 752 
Q 2906 1113 2906 1747 
Q 2906 2381 2643 2742 
Q 2381 3103 1925 3103 
Q 1469 3103 1208 2742 
Q 947 2381 947 1747 
z
" transform="scale(0.015625)"/>
       <path id="DejaVuSans-6d" d="M 3328 2828 
Q 3544 3216 3844 3400 
Q 4144 3584 4550 3584 
Q 5097 3584 5394 3201 
Q 5691 2819 5691 2113 
L 5691 0 
L 5113 0 
L 5113 2094 
Q 5113 2597 4934 2840 
Q 4756 3084 4391 3084 
Q 3944 3084 3684 2787 
Q 3425 2491 3425 1978 
L 3425 0 
L 2847 0 
L 2847 2094 
Q 2847 2600 2669 2842 
Q 2491 3084 2119 3084 
Q 1678 3084 1418 2786 
Q 1159 2488 1159 1978 
L 1159 0 
L 581 0 
L 581 3500 
L 1159 3500 
L 1159 2956 
Q 1356 3278 1631 3431 
Q 1906 3584 2284 3584 
Q 2666 3584 2933 3390 
Q 3200 3197 3328 2828 
z
" transform="scale(0.015625)"/>
       <path id="DejaVuSans-70" d="M 1159 525 
L 1159 -1331 
L 581 -1331 
L 581 3500 
L 1159 3500 
L 1159 2969 
Q 1341 3281 1617 3432 
Q 1894 3584 2278 3584 
Q 2916 3584 3314 3078 
Q 3713 2572 3713 1747 
Q 3713 922 3314 415 
Q 2916 -91 2278 -91 
Q 1894 -91 1617 61 
Q 1341 213 1159 525 
z
M 3116 1747 
Q 3116 2381 2855 2742 
Q 2594 3103 2138 3103 
Q 1681 3103 1420 2742 
Q 1159 2381 1159 1747 
Q 1159 1113 1420 752 
Q 1681 391 2138 391 
Q 2594 391 2855 752 
Q 3116 1113 3116 1747 
z
" transform="scale(0.015625)"/>
       <path id="DejaVuSans-69" d="M 603 3500 
L 1178 3500 
L 1178 0 
L 603 0 
L 603 3500 
z
M 603 4863 
L 1178 4863 
L 1178 4134 
L 603 4134 
L 603 4863 
z
" transform="scale(0.015625)"/>
      </defs>
      <use xlink:href="#DejaVuSans-73"/>
      <use xlink:href="#DejaVuSans-65" transform="translate(52.099609 0)"/>
      <use xlink:href="#DejaVuSans-6c" transform="translate(113.623047 0)"/>
      <use xlink:href="#DejaVuSans-65" transform="translate(141.40625 0)"/>
      <use xlink:href="#DejaVuSans-63" transform="translate(202.929688 0)"/>
      <use xlink:href="#DejaVuSans-74" transform="translate(257.910156 0)"/>
      <use xlink:href="#DejaVuSans-65" transform="translate(297.119141 0)"/>
      <use xlink:href="#DejaVuSans-64" transform="translate(358.642578 0)"/>
      <use xlink:href="#DejaVuSans-20" transform="translate(422.119141 0)"/>
      <use xlink:href="#DejaVuSans-63" transform="translate(453.90625 0)"/>
      <use xlink:href="#DejaVuSans-6f" transform="translate(508.886719 0)"/>
      <use xlink:href="#DejaVuSans-6d" transform="translate(570.068359 0)"/>
      <use xlink:href="#DejaVuSans-70" transform="translate(667.480469 0)"/>
      <use xlink:href="#DejaVuSans-61" transform="translate(730.957031 0)"/>
      <use xlink:href="#DejaVuSans-72" transform="translate(792.236328 0)"/>
      <use xlink:href="#DejaVuSans-69" transform="translate(833.349609 0)"/>
      <use xlink:href="#DejaVuSans-73" transform="translate(861.132812 0)"/>
      <use xlink:href="#DejaVuSans-6f" transform="translate(913.232422 0)"/>
      <use xlink:href="#DejaVuSans-6e" transform="translate(974.414062 0)"/>
      <use xlink:href="#DejaVuSans-20" transform="translate(1037.792969 0)"/>
      <use xlink:href="#DejaVuSans-73" transform="translate(1069.580078 0)"/>
      <use xlink:href="#DejaVuSans-74" transform="translate(1121.679688 0)"/>
      <use xlink:href="#DejaVuSans-61" transform="translate(1160.888672 0)"/>
      <use xlink:href="#DejaVuSans-74" transform="translate(1222.167969 0)"/>
      <use xlink:href="#DejaVuSans-69" transform="translate(1261.376953 0)"/>
      <use xlink:href="#DejaVuSans-6f" transform="translate(1289.160156 0)"/>
      <use xlink:href="#DejaVuSans-6e" transform="translate(1350.341797 0)"/>
     </g>
    </g>
   </g>
  </g>
  <g id="axes_2">
   <g id="patch_7">
    <path d="M 55.778125 388.68 
L 560.556668 388.68 
L 560.556668 220.22 
L 55.778125 220.22 
z
" style="fill: #ffffff"/>
   </g>
   <g id="matplotlib.axis_3">
    <g id="xtick_8">
     <g id="line2d_35">
      <path d="M 78.083482 388.68 
L 78.083482 220.22 
" clip-path="url(#p29e55c78c4)" style="fill: none; stroke: #d6d3d1; stroke-opacity: 0.8; stroke-width: 0.6; stroke-linecap: square"/>
     </g>
     <g id="line2d_36">
      <g>
       <use xlink:href="#m09a3bee679" x="78.083482" y="388.68" style="stroke: #000000; stroke-width: 0.8"/>
      </g>
     </g>
     <g id="text_12">
      <!-- 0 -->
      <g transform="translate(74.902232 403.278437) scale(0.1 -0.1)">
       <use xlink:href="#DejaVuSans-30"/>
      </g>
     </g>
    </g>
    <g id="xtick_9">
     <g id="line2d_37">
      <path d="M 154.77812 388.68 
L 154.77812 220.22 
" clip-path="url(#p29e55c78c4)" style="fill: none; stroke: #d6d3d1; stroke-opacity: 0.8; stroke-width: 0.6; stroke-linecap: square"/>
     </g>
     <g id="line2d_38">
      <g>
       <use xlink:href="#m09a3bee679" x="154.77812" y="388.68" style="stroke: #000000; stroke-width: 0.8"/>
      </g>
     </g>
     <g id="text_13">
      <!-- 10 -->
      <g transform="translate(148.41562 403.278437) scale(0.1 -0.1)">
       <use xlink:href="#DejaVuSans-31"/>
       <use xlink:href="#DejaVuSans-30" transform="translate(63.623047 0)"/>
      </g>
     </g>
    </g>
    <g id="xtick_10">
     <g id="line2d_39">
      <path d="M 231.472758 388.68 
L 231.472758 220.22 
" clip-path="url(#p29e55c78c4)" style="fill: none; stroke: #d6d3d1; stroke-opacity: 0.8; stroke-width: 0.6; stroke-linecap: square"/>
     </g>
     <g id="line2d_40">
      <g>
       <use xlink:href="#m09a3bee679" x="231.472758" y="388.68" style="stroke: #000000; stroke-width: 0.8"/>
      </g>
     </g>
     <g id="text_14">
      <!-- 20 -->
      <g transform="translate(225.110258 403.278437) scale(0.1 -0.1)">
       <use xlink:href="#DejaVuSans-32"/>
       <use xlink:href="#DejaVuSans-30" transform="translate(63.623047 0)"/>
      </g>
     </g>
    </g>
    <g id="xtick_11">
     <g id="line2d_41">
      <path d="M 308.167396 388.68 
L 308.167396 220.22 
" clip-path="url(#p29e55c78c4)" style="fill: none; stroke: #d6d3d1; stroke-opacity: 0.8; stroke-width: 0.6; stroke-linecap: square"/>
     </g>
     <g id="line2d_42">
      <g>
       <use xlink:href="#m09a3bee679" x="308.167396" y="388.68" style="stroke: #000000; stroke-width: 0.8"/>
      </g>
     </g>
     <g id="text_15">
      <!-- 30 -->
      <g transform="translate(301.804896 403.278437) scale(0.1 -0.1)">
       <defs>
        <path id="DejaVuSans-33" d="M 2597 2516 
Q 3050 2419 3304 2112 
Q 3559 1806 3559 1356 
Q 3559 666 3084 287 
Q 2609 -91 1734 -91 
Q 1441 -91 1130 -33 
Q 819 25 488 141 
L 488 750 
Q 750 597 1062 519 
Q 1375 441 1716 441 
Q 2309 441 2620 675 
Q 2931 909 2931 1356 
Q 2931 1769 2642 2001 
Q 2353 2234 1838 2234 
L 1294 2234 
L 1294 2753 
L 1863 2753 
Q 2328 2753 2575 2939 
Q 2822 3125 2822 3475 
Q 2822 3834 2567 4026 
Q 2313 4219 1838 4219 
Q 1578 4219 1281 4162 
Q 984 4106 628 3988 
L 628 4550 
Q 988 4650 1302 4700 
Q 1616 4750 1894 4750 
Q 2613 4750 3031 4423 
Q 3450 4097 3450 3541 
Q 3450 3153 3228 2886 
Q 3006 2619 2597 2516 
z
" transform="scale(0.015625)"/>
       </defs>
       <use xlink:href="#DejaVuSans-33"/>
       <use xlink:href="#DejaVuSans-30" transform="translate(63.623047 0)"/>
      </g>
     </g>
    </g>
    <g id="xtick_12">
     <g id="line2d_43">
      <path d="M 384.862035 388.68 
L 384.862035 220.22 
" clip-path="url(#p29e55c78c4)" style="fill: none; stroke: #d6d3d1; stroke-opacity: 0.8; stroke-width: 0.6; stroke-linecap: square"/>
     </g>
     <g id="line2d_44">
      <g>
       <use xlink:href="#m09a3bee679" x="384.862035" y="388.68" style="stroke: #000000; stroke-width: 0.8"/>
      </g>
     </g>
     <g id="text_16">
      <!-- 40 -->
      <g transform="translate(378.499535 403.278437) scale(0.1 -0.1)">
       <use xlink:href="#DejaVuSans-34"/>
       <use xlink:href="#DejaVuSans-30" transform="translate(63.623047 0)"/>
      </g>
     </g>
    </g>
    <g id="xtick_13">
     <g id="line2d_45">
      <path d="M 461.556673 388.68 
L 461.556673 220.22 
" clip-path="url(#p29e55c78c4)" style="fill: none; stroke: #d6d3d1; stroke-opacity: 0.8; stroke-width: 0.6; stroke-linecap: square"/>
     </g>
     <g id="line2d_46">
      <g>
       <use xlink:href="#m09a3bee679" x="461.556673" y="388.68" style="stroke: #000000; stroke-width: 0.8"/>
      </g>
     </g>
     <g id="text_17">
      <!-- 50 -->
      <g transform="translate(455.194173 403.278437) scale(0.1 -0.1)">
       <use xlink:href="#DejaVuSans-35"/>
       <use xlink:href="#DejaVuSans-30" transform="translate(63.623047 0)"/>
      </g>
     </g>
    </g>
    <g id="xtick_14">
     <g id="line2d_47">
      <path d="M 538.251311 388.68 
L 538.251311 220.22 
" clip-path="url(#p29e55c78c4)" style="fill: none; stroke: #d6d3d1; stroke-opacity: 0.8; stroke-width: 0.6; stroke-linecap: square"/>
     </g>
     <g id="line2d_48">
      <g>
       <use xlink:href="#m09a3bee679" x="538.251311" y="388.68" style="stroke: #000000; stroke-width: 0.8"/>
      </g>
     </g>
     <g id="text_18">
      <!-- 60 -->
      <g transform="translate(531.888811 403.278437) scale(0.1 -0.1)">
       <use xlink:href="#DejaVuSans-36"/>
       <use xlink:href="#DejaVuSans-30" transform="translate(63.623047 0)"/>
      </g>
     </g>
    </g>
    <g id="text_19">
     <!-- $x/D_h$ -->
     <g transform="translate(297.317396 416.956562) scale(0.1 -0.1)">
      <defs>
       <path id="DejaVuSans-Oblique-78" d="M 3841 3500 
L 2234 1784 
L 3219 0 
L 2559 0 
L 1819 1388 
L 531 0 
L -166 0 
L 1556 1844 
L 641 3500 
L 1300 3500 
L 1972 2234 
L 3144 3500 
L 3841 3500 
z
" transform="scale(0.015625)"/>
       <path id="DejaVuSans-2f" d="M 1625 4666 
L 2156 4666 
L 531 -594 
L 0 -594 
L 1625 4666 
z
" transform="scale(0.015625)"/>
      </defs>
      <use xlink:href="#DejaVuSans-Oblique-78" transform="translate(0 0.09375)"/>
      <use xlink:href="#DejaVuSans-2f" transform="translate(59.179688 0.09375)"/>
      <use xlink:href="#DejaVuSans-Oblique-44" transform="translate(92.871094 0.09375)"/>
      <use xlink:href="#DejaVuSans-Oblique-68" transform="translate(169.873047 -16.3125) scale(0.7)"/>
     </g>
    </g>
   </g>
   <g id="matplotlib.axis_4">
    <g id="ytick_8">
     <g id="line2d_49">
      <path d="M 55.778125 369.192237 
L 560.556668 369.192237 
" clip-path="url(#p29e55c78c4)" style="fill: none; stroke: #d6d3d1; stroke-opacity: 0.8; stroke-width: 0.6; stroke-linecap: square"/>
     </g>
     <g id="line2d_50">
      <g>
       <use xlink:href="#me5e735dba5" x="55.778125" y="369.192237" style="stroke: #000000; stroke-width: 0.8"/>
      </g>
     </g>
     <g id="text_20">
      <!-- $\mathdefault{10^{-11}}$ -->
      <g transform="translate(20.878125 372.991456) scale(0.1 -0.1)">
       <defs>
        <path id="DejaVuSans-2212" d="M 678 2272 
L 4684 2272 
L 4684 1741 
L 678 1741 
L 678 2272 
z
" transform="scale(0.015625)"/>
       </defs>
       <use xlink:href="#DejaVuSans-31" transform="translate(0 0.684375)"/>
       <use xlink:href="#DejaVuSans-30" transform="translate(63.623047 0.684375)"/>
       <use xlink:href="#DejaVuSans-2212" transform="translate(128.203125 38.965625) scale(0.7)"/>
       <use xlink:href="#DejaVuSans-31" transform="translate(186.855469 38.965625) scale(0.7)"/>
       <use xlink:href="#DejaVuSans-31" transform="translate(231.391602 38.965625) scale(0.7)"/>
      </g>
     </g>
    </g>
    <g id="ytick_9">
     <g id="line2d_51">
      <path d="M 55.778125 345.531257 
L 560.556668 345.531257 
" clip-path="url(#p29e55c78c4)" style="fill: none; stroke: #d6d3d1; stroke-opacity: 0.8; stroke-width: 0.6; stroke-linecap: square"/>
     </g>
     <g id="line2d_52">
      <g>
       <use xlink:href="#me5e735dba5" x="55.778125" y="345.531257" style="stroke: #000000; stroke-width: 0.8"/>
      </g>
     </g>
     <g id="text_21">
      <!-- $\mathdefault{10^{-9}}$ -->
      <g transform="translate(25.278125 349.330476) scale(0.1 -0.1)">
       <defs>
        <path id="DejaVuSans-39" d="M 703 97 
L 703 672 
Q 941 559 1184 500 
Q 1428 441 1663 441 
Q 2288 441 2617 861 
Q 2947 1281 2994 2138 
Q 2813 1869 2534 1725 
Q 2256 1581 1919 1581 
Q 1219 1581 811 2004 
Q 403 2428 403 3163 
Q 403 3881 828 4315 
Q 1253 4750 1959 4750 
Q 2769 4750 3195 4129 
Q 3622 3509 3622 2328 
Q 3622 1225 3098 567 
Q 2575 -91 1691 -91 
Q 1453 -91 1209 -44 
Q 966 3 703 97 
z
M 1959 2075 
Q 2384 2075 2632 2365 
Q 2881 2656 2881 3163 
Q 2881 3666 2632 3958 
Q 2384 4250 1959 4250 
Q 1534 4250 1286 3958 
Q 1038 3666 1038 3163 
Q 1038 2656 1286 2365 
Q 1534 2075 1959 2075 
z
" transform="scale(0.015625)"/>
       </defs>
       <use xlink:href="#DejaVuSans-31" transform="translate(0 0.765625)"/>
       <use xlink:href="#DejaVuSans-30" transform="translate(63.623047 0.765625)"/>
       <use xlink:href="#DejaVuSans-2212" transform="translate(128.203125 39.046875) scale(0.7)"/>
       <use xlink:href="#DejaVuSans-39" transform="translate(186.855469 39.046875) scale(0.7)"/>
      </g>
     </g>
    </g>
    <g id="ytick_10">
     <g id="line2d_53">
      <path d="M 55.778125 321.870278 
L 560.556668 321.870278 
" clip-path="url(#p29e55c78c4)" style="fill: none; stroke: #d6d3d1; stroke-opacity: 0.8; stroke-width: 0.6; stroke-linecap: square"/>
     </g>
     <g id="line2d_54">
      <g>
       <use xlink:href="#me5e735dba5" x="55.778125" y="321.870278" style="stroke: #000000; stroke-width: 0.8"/>
      </g>
     </g>
     <g id="text_22">
      <!-- $\mathdefault{10^{-7}}$ -->
      <g transform="translate(25.278125 325.669496) scale(0.1 -0.1)">
       <use xlink:href="#DejaVuSans-31" transform="translate(0 0.684375)"/>
       <use xlink:href="#DejaVuSans-30" transform="translate(63.623047 0.684375)"/>
       <use xlink:href="#DejaVuSans-2212" transform="translate(128.203125 38.965625) scale(0.7)"/>
       <use xlink:href="#DejaVuSans-37" transform="translate(186.855469 38.965625) scale(0.7)"/>
      </g>
     </g>
    </g>
    <g id="ytick_11">
     <g id="line2d_55">
      <path d="M 55.778125 298.209298 
L 560.556668 298.209298 
" clip-path="url(#p29e55c78c4)" style="fill: none; stroke: #d6d3d1; stroke-opacity: 0.8; stroke-width: 0.6; stroke-linecap: square"/>
     </g>
     <g id="line2d_56">
      <g>
       <use xlink:href="#me5e735dba5" x="55.778125" y="298.209298" style="stroke: #000000; stroke-width: 0.8"/>
      </g>
     </g>
     <g id="text_23">
      <!-- $\mathdefault{10^{-5}}$ -->
      <g transform="translate(25.278125 302.008516) scale(0.1 -0.1)">
       <use xlink:href="#DejaVuSans-31" transform="translate(0 0.684375)"/>
       <use xlink:href="#DejaVuSans-30" transform="translate(63.623047 0.684375)"/>
       <use xlink:href="#DejaVuSans-2212" transform="translate(128.203125 38.965625) scale(0.7)"/>
       <use xlink:href="#DejaVuSans-35" transform="translate(186.855469 38.965625) scale(0.7)"/>
      </g>
     </g>
    </g>
    <g id="ytick_12">
     <g id="line2d_57">
      <path d="M 55.778125 274.548318 
L 560.556668 274.548318 
" clip-path="url(#p29e55c78c4)" style="fill: none; stroke: #d6d3d1; stroke-opacity: 0.8; stroke-width: 0.6; stroke-linecap: square"/>
     </g>
     <g id="line2d_58">
      <g>
       <use xlink:href="#me5e735dba5" x="55.778125" y="274.548318" style="stroke: #000000; stroke-width: 0.8"/>
      </g>
     </g>
     <g id="text_24">
      <!-- $\mathdefault{10^{-3}}$ -->
      <g transform="translate(25.278125 278.347537) scale(0.1 -0.1)">
       <use xlink:href="#DejaVuSans-31" transform="translate(0 0.765625)"/>
       <use xlink:href="#DejaVuSans-30" transform="translate(63.623047 0.765625)"/>
       <use xlink:href="#DejaVuSans-2212" transform="translate(128.203125 39.046875) scale(0.7)"/>
       <use xlink:href="#DejaVuSans-33" transform="translate(186.855469 39.046875) scale(0.7)"/>
      </g>
     </g>
    </g>
    <g id="ytick_13">
     <g id="line2d_59">
      <path d="M 55.778125 250.887338 
L 560.556668 250.887338 
" clip-path="url(#p29e55c78c4)" style="fill: none; stroke: #d6d3d1; stroke-opacity: 0.8; stroke-width: 0.6; stroke-linecap: square"/>
     </g>
     <g id="line2d_60">
      <g>
       <use xlink:href="#me5e735dba5" x="55.778125" y="250.887338" style="stroke: #000000; stroke-width: 0.8"/>
      </g>
     </g>
     <g id="text_25">
      <!-- $\mathdefault{10^{-1}}$ -->
      <g transform="translate(25.278125 254.686557) scale(0.1 -0.1)">
       <use xlink:href="#DejaVuSans-31" transform="translate(0 0.684375)"/>
       <use xlink:href="#DejaVuSans-30" transform="translate(63.623047 0.684375)"/>
       <use xlink:href="#DejaVuSans-2212" transform="translate(128.203125 38.965625) scale(0.7)"/>
       <use xlink:href="#DejaVuSans-31" transform="translate(186.855469 38.965625) scale(0.7)"/>
      </g>
     </g>
    </g>
    <g id="ytick_14">
     <g id="line2d_61">
      <path d="M 55.778125 227.226358 
L 560.556668 227.226358 
" clip-path="url(#p29e55c78c4)" style="fill: none; stroke: #d6d3d1; stroke-opacity: 0.8; stroke-width: 0.6; stroke-linecap: square"/>
     </g>
     <g id="line2d_62">
      <g>
       <use xlink:href="#me5e735dba5" x="55.778125" y="227.226358" style="stroke: #000000; stroke-width: 0.8"/>
      </g>
     </g>
     <g id="text_26">
      <!-- $\mathdefault{10^{1}}$ -->
      <g transform="translate(31.178125 231.025577) scale(0.1 -0.1)">
       <use xlink:href="#DejaVuSans-31" transform="translate(0 0.684375)"/>
       <use xlink:href="#DejaVuSans-30" transform="translate(63.623047 0.684375)"/>
       <use xlink:href="#DejaVuSans-31" transform="translate(128.203125 38.965625) scale(0.7)"/>
      </g>
     </g>
    </g>
    <g id="text_27">
     <!-- $T_w - T_b$ [K] -->
     <g transform="translate(14.798438 330.85) rotate(-90) scale(0.1 -0.1)">
      <defs>
       <path id="DejaVuSans-Oblique-54" d="M 378 4666 
L 4325 4666 
L 4225 4134 
L 2559 4134 
L 1759 0 
L 1125 0 
L 1925 4134 
L 275 4134 
L 378 4666 
z
" transform="scale(0.015625)"/>
       <path id="DejaVuSans-Oblique-77" d="M 544 3500 
L 1113 3500 
L 1259 684 
L 2566 3500 
L 3231 3500 
L 3425 684 
L 4666 3500 
L 5241 3500 
L 3641 0 
L 2969 0 
L 2797 2900 
L 1459 0 
L 781 0 
L 544 3500 
z
" transform="scale(0.015625)"/>
       <path id="DejaVuSans-Oblique-62" d="M 3169 2138 
Q 3169 2591 2961 2847 
Q 2753 3103 2388 3103 
Q 2122 3103 1889 2973 
Q 1656 2844 1484 2597 
Q 1303 2338 1198 1995 
Q 1094 1653 1094 1313 
Q 1094 881 1298 636 
Q 1503 391 1863 391 
Q 2134 391 2365 517 
Q 2597 644 2772 891 
Q 2950 1147 3059 1487 
Q 3169 1828 3169 2138 
z
M 1381 2969 
Q 1594 3256 1914 3420 
Q 2234 3584 2584 3584 
Q 3122 3584 3439 3221 
Q 3756 2859 3756 2241 
Q 3756 1734 3570 1259 
Q 3384 784 3041 416 
Q 2816 172 2522 40 
Q 2228 -91 1906 -91 
Q 1566 -91 1316 65 
Q 1066 222 909 531 
L 806 0 
L 231 0 
L 1178 4863 
L 1753 4863 
L 1381 2969 
z
" transform="scale(0.015625)"/>
       <path id="DejaVuSans-5b" d="M 550 4863 
L 1875 4863 
L 1875 4416 
L 1125 4416 
L 1125 -397 
L 1875 -397 
L 1875 -844 
L 550 -844 
L 550 4863 
z
" transform="scale(0.015625)"/>
       <path id="DejaVuSans-4b" d="M 628 4666 
L 1259 4666 
L 1259 2694 
L 3353 4666 
L 4166 4666 
L 1850 2491 
L 4331 0 
L 3500 0 
L 1259 2247 
L 1259 0 
L 628 0 
L 628 4666 
z
" transform="scale(0.015625)"/>
       <path id="DejaVuSans-5d" d="M 1947 4863 
L 1947 -844 
L 622 -844 
L 622 -397 
L 1369 -397 
L 1369 4416 
L 622 4416 
L 622 4863 
L 1947 4863 
z
" transform="scale(0.015625)"/>
      </defs>
      <use xlink:href="#DejaVuSans-Oblique-54" transform="translate(0 0.015625)"/>
      <use xlink:href="#DejaVuSans-Oblique-77" transform="translate(61.083984 -16.390625) scale(0.7)"/>
      <use xlink:href="#DejaVuSans-2212" transform="translate(140.551758 0.015625)"/>
      <use xlink:href="#DejaVuSans-Oblique-54" transform="translate(243.823242 0.015625)"/>
      <use xlink:href="#DejaVuSans-Oblique-62" transform="translate(304.907227 -16.390625) scale(0.7)"/>
      <use xlink:href="#DejaVuSans-20" transform="translate(352.075195 0.015625)"/>
      <use xlink:href="#DejaVuSans-5b" transform="translate(383.862305 0.015625)"/>
      <use xlink:href="#DejaVuSans-4b" transform="translate(422.875977 0.015625)"/>
      <use xlink:href="#DejaVuSans-5d" transform="translate(488.452148 0.015625)"/>
     </g>
    </g>
   </g>
   <g id="line2d_63">
    <path d="M 78.722604 227.877273 
L 80.000848 228.464753 
L 99.174508 233.94672 
L 308.806518 293.178087 
L 310.084762 293.612788 
L 312.64125 294.080027 
L 313.919494 294.373026 
L 315.197738 295.237067 
L 316.475982 295.52967 
L 317.754226 295.642671 
L 322.867202 296.727219 
L 325.42369 298.612094 
L 331.81491 299.210932 
L 333.093154 299.210932 
L 336.927886 299.86836 
L 338.20613 300.429871 
L 339.484374 300.755549 
L 340.762618 301.51737 
L 342.040862 302.469353 
L 343.319106 304.465101 
L 344.59735 381.022727 
L 537.612189 381.022727 
L 537.612189 381.022727 
" clip-path="url(#p29e55c78c4)" style="fill: none; stroke: #475569; stroke-width: 1.3; stroke-linecap: square"/>
   </g>
   <g id="line2d_64">
    <path d="M 170.75617 388.68 
L 170.75617 220.22 
" clip-path="url(#p29e55c78c4)" style="fill: none; stroke-dasharray: 1,1.65; stroke-dashoffset: 0; stroke: #dc2626"/>
   </g>
   <g id="line2d_65">
    <path d="M 55.778125 254.44867 
L 560.556668 254.44867 
" clip-path="url(#p29e55c78c4)" style="fill: none; stroke-dasharray: 3.7,1.6; stroke-dashoffset: 0; stroke: #78716c"/>
   </g>
   <g id="patch_8">
    <path d="M 55.778125 388.68 
L 55.778125 220.22 
" style="fill: none; stroke: #000000; stroke-width: 0.8; stroke-linejoin: miter; stroke-linecap: square"/>
   </g>
   <g id="patch_9">
    <path d="M 560.556668 388.68 
L 560.556668 220.22 
" style="fill: none; stroke: #000000; stroke-width: 0.8; stroke-linejoin: miter; stroke-linecap: square"/>
   </g>
   <g id="patch_10">
    <path d="M 55.778125 388.68 
L 560.556668 388.68 
" style="fill: none; stroke: #000000; stroke-width: 0.8; stroke-linejoin: miter; stroke-linecap: square"/>
   </g>
   <g id="patch_11">
    <path d="M 55.778125 220.22 
L 560.556668 220.22 
" style="fill: none; stroke: #000000; stroke-width: 0.8; stroke-linejoin: miter; stroke-linecap: square"/>
   </g>
  </g>
  <g id="text_28">
   <!-- Heated channel diagnostic: local Nu and thermal margin -->
   <g transform="translate(127.667137 15.558281) scale(0.11 -0.11)">
    <defs>
     <path id="DejaVuSans-48" d="M 628 4666 
L 1259 4666 
L 1259 2753 
L 3553 2753 
L 3553 4666 
L 4184 4666 
L 4184 0 
L 3553 0 
L 3553 2222 
L 1259 2222 
L 1259 0 
L 628 0 
L 628 4666 
z
" transform="scale(0.015625)"/>
     <path id="DejaVuSans-3a" d="M 750 794 
L 1409 794 
L 1409 0 
L 750 0 
L 750 794 
z
M 750 3309 
L 1409 3309 
L 1409 2516 
L 750 2516 
L 750 3309 
z
" transform="scale(0.015625)"/>
    </defs>
    <use xlink:href="#DejaVuSans-48"/>
    <use xlink:href="#DejaVuSans-65" transform="translate(75.195312 0)"/>
    <use xlink:href="#DejaVuSans-61" transform="translate(136.71875 0)"/>
    <use xlink:href="#DejaVuSans-74" transform="translate(197.998047 0)"/>
    <use xlink:href="#DejaVuSans-65" transform="translate(237.207031 0)"/>
    <use xlink:href="#DejaVuSans-64" transform="translate(298.730469 0)"/>
    <use xlink:href="#DejaVuSans-20" transform="translate(362.207031 0)"/>
    <use xlink:href="#DejaVuSans-63" transform="translate(393.994141 0)"/>
    <use xlink:href="#DejaVuSans-68" transform="translate(448.974609 0)"/>
    <use xlink:href="#DejaVuSans-61" transform="translate(512.353516 0)"/>
    <use xlink:href="#DejaVuSans-6e" transform="translate(573.632812 0)"/>
    <use xlink:href="#DejaVuSans-6e" transform="translate(637.011719 0)"/>
    <use xlink:href="#DejaVuSans-65" transform="translate(700.390625 0)"/>
    <use xlink:href="#DejaVuSans-6c" transform="translate(761.914062 0)"/>
    <use xlink:href="#DejaVuSans-20" transform="translate(789.697266 0)"/>
    <use xlink:href="#DejaVuSans-64" transform="translate(821.484375 0)"/>
    <use xlink:href="#DejaVuSans-69" transform="translate(884.960938 0)"/>
    <use xlink:href="#DejaVuSans-61" transform="translate(912.744141 0)"/>
    <use xlink:href="#DejaVuSans-67" transform="translate(974.023438 0)"/>
    <use xlink:href="#DejaVuSans-6e" transform="translate(1037.5 0)"/>
    <use xlink:href="#DejaVuSans-6f" transform="translate(1100.878906 0)"/>
    <use xlink:href="#DejaVuSans-73" transform="translate(1162.060547 0)"/>
    <use xlink:href="#DejaVuSans-74" transform="translate(1214.160156 0)"/>
    <use xlink:href="#DejaVuSans-69" transform="translate(1253.369141 0)"/>
    <use xlink:href="#DejaVuSans-63" transform="translate(1281.152344 0)"/>
    <use xlink:href="#DejaVuSans-3a" transform="translate(1336.132812 0)"/>
    <use xlink:href="#DejaVuSans-20" transform="translate(1369.824219 0)"/>
    <use xlink:href="#DejaVuSans-6c" transform="translate(1401.611328 0)"/>
    <use xlink:href="#DejaVuSans-6f" transform="translate(1429.394531 0)"/>
    <use xlink:href="#DejaVuSans-63" transform="translate(1490.576172 0)"/>
    <use xlink:href="#DejaVuSans-61" transform="translate(1545.556641 0)"/>
    <use xlink:href="#DejaVuSans-6c" transform="translate(1606.835938 0)"/>
    <use xlink:href="#DejaVuSans-20" transform="translate(1634.619141 0)"/>
    <use xlink:href="#DejaVuSans-4e" transform="translate(1666.40625 0)"/>
    <use xlink:href="#DejaVuSans-75" transform="translate(1741.210938 0)"/>
    <use xlink:href="#DejaVuSans-20" transform="translate(1804.589844 0)"/>
    <use xlink:href="#DejaVuSans-61" transform="translate(1836.376953 0)"/>
    <use xlink:href="#DejaVuSans-6e" transform="translate(1897.65625 0)"/>
    <use xlink:href="#DejaVuSans-64" transform="translate(1961.035156 0)"/>
    <use xlink:href="#DejaVuSans-20" transform="translate(2024.511719 0)"/>
    <use xlink:href="#DejaVuSans-74" transform="translate(2056.298828 0)"/>
    <use xlink:href="#DejaVuSans-68" transform="translate(2095.507812 0)"/>
    <use xlink:href="#DejaVuSans-65" transform="translate(2158.886719 0)"/>
    <use xlink:href="#DejaVuSans-72" transform="translate(2220.410156 0)"/>
    <use xlink:href="#DejaVuSans-6d" transform="translate(2259.773438 0)"/>
    <use xlink:href="#DejaVuSans-61" transform="translate(2357.185547 0)"/>
    <use xlink:href="#DejaVuSans-6c" transform="translate(2418.464844 0)"/>
    <use xlink:href="#DejaVuSans-20" transform="translate(2446.248047 0)"/>
    <use xlink:href="#DejaVuSans-6d" transform="translate(2478.035156 0)"/>
    <use xlink:href="#DejaVuSans-61" transform="translate(2575.447266 0)"/>
    <use xlink:href="#DejaVuSans-72" transform="translate(2636.726562 0)"/>
    <use xlink:href="#DejaVuSans-67" transform="translate(2676.089844 0)"/>
    <use xlink:href="#DejaVuSans-69" transform="translate(2739.566406 0)"/>
    <use xlink:href="#DejaVuSans-6e" transform="translate(2767.349609 0)"/>
   </g>
  </g>
 </g>
 <defs>
  <clipPath id="pa62366d565">
   <rect x="55.778125" y="35.16" width="504.778543" height="168.46"/>
  </clipPath>
  <clipPath id="p29e55c78c4">
   <rect x="55.778125" y="220.22" width="504.778543" height="168.46"/>
  </clipPath>
 </defs>
</svg>
